<?xml version="1.0" encoding="UTF-8" standalone="no"?>
<!-- Created with Inkscape (http://www.inkscape.org/) -->
<svg xmlns:inkscape="http://www.inkscape.org/namespaces/inkscape" xmlns:rdf="http://www.w3.org/1999/02/22-rdf-syntax-ns#" xmlns="http://www.w3.org/2000/svg" xmlns:sodipodi="http://sodipodi.sourceforge.net/DTD/sodipodi-0.dtd" xmlns:cc="http://creativecommons.org/ns#" xmlns:xlink="http://www.w3.org/1999/xlink" xmlns:dc="http://purl.org/dc/elements/1.1/" xmlns:svg="http://www.w3.org/2000/svg" xmlns:ns1="http://sozi.baierouge.fr" id="svg3440" sodipodi:docname="bullet_hole.svg" inkscape:export-filename="/home/roger/mis-dibujos/open/bullet_hole.png" viewBox="0 0 428.21 205.48" sodipodi:version="0.32" inkscape:export-xdpi="90" version="1.0" inkscape:output_extension="org.inkscape.output.svg.inkscape" inkscape:export-ydpi="90" inkscape:version="0.46">
  <defs id="defs3442">
    <linearGradient id="linearGradient4192" inkscape:collect="always">
      <stop id="stop4194" style="stop-color:#888a85" offset="0"/>
      <stop id="stop4196" style="stop-color:#888a85;stop-opacity:0" offset="1"/>
    </linearGradient>
    <linearGradient id="linearGradient4089" inkscape:collect="always">
      <stop id="stop4091" style="stop-color:#636a72" offset="0"/>
      <stop id="stop4097" style="stop-color:#636a72" offset=".41580"/>
      <stop id="stop4099" style="stop-color:#c4c4c6" offset=".51492"/>
      <stop id="stop4093" style="stop-color:#e7e7e7" offset="1"/>
    </linearGradient>
    <filter id="filter4141" inkscape:collect="always">
      <feGaussianBlur id="feGaussianBlur4143" stdDeviation="0.35044037" inkscape:collect="always"/>
    </filter>
    <linearGradient id="linearGradient4208" y2="267.64" xlink:href="#linearGradient4192" gradientUnits="userSpaceOnUse" x2="125.12" gradientTransform="matrix(1.4961 0 0 1.4961 -85.833 -256.14)" y1="244.13" x1="125.96" inkscape:collect="always"/>
    <linearGradient id="linearGradient4210" y2="269.11" xlink:href="#linearGradient4089" gradientUnits="userSpaceOnUse" x2="120.72" y1="255.7" x1="111.27" inkscape:collect="always"/>
    <linearGradient id="linearGradient4372" y2="267.64" xlink:href="#linearGradient4192" gradientUnits="userSpaceOnUse" x2="125.12" gradientTransform="translate(-42,-169)" y1="244.13" x1="125.96" inkscape:collect="always"/>
  </defs>
  <sodipodi:namedview id="base" bordercolor="#666666" inkscape:pageshadow="2" inkscape:guide-bbox="true" pagecolor="#ffffff" inkscape:window-height="944" inkscape:zoom="0.5" inkscape:window-x="0" showgrid="false" borderopacity="1.0" inkscape:current-layer="layer1" inkscape:cx="245.11207" inkscape:cy="253.41543" showguides="true" inkscape:window-y="0" inkscape:window-width="1272" inkscape:pageopacity="0.0" inkscape:document-units="px"/>
  <g id="layer1" inkscape:label="Capa 1" inkscape:groupmode="layer" transform="translate(-57.543 26.67)">
    <path id="path4341" style="fill:#c4c4c4" d="m339.5 31.21c0.97 5.085 9.39 16.816-1.59 15.495-4.16-3.073-12.24-0.433-5.42 3.689 6 6.37-3.94 11.863-0.98 18.601-1.44 8.126-11.31 9.933-17.48 13.414-1.35 4.406 7.39-2.139 10.19-1.443 2.16-2.623 3.6 1.564 6.64-2.282 7.16 1.054 8.85 10.492 16.06 12.484 3.79 3.162 1.3 15.522 6.47 13.592-0.14-5.967 3.52-14.015 10.81-11.755 4.59-1.448 10.02-5.337 13.51-1.502-0.01-6.333 2.89-13.936 10.39-13.954-8.94-5.775 6.83-10.316 10.65-13.053-3.71-3.668-15.95 0.87-16.37-8.781-1.51-6.593 14.57-0.482 4.22-4.29-6.26-0.292-12.99-4.506-7.48-10.846-2.61-5.446-10.33 6.541-16.25 1.654-5.39-5.358-13.83 4.417-17.51-4.593-1.83-2.239-3.45-4.746-5.86-6.43zm13.79 73.45c0.68 0.17 0.06-0.76 0 0zm-30.34-26.649c0.68-1.013-1.51-0.049 0 0zm8.88-11.034l-0.42-0.083 0.42 0.083zm-0.88-2.291c-0.69-0.086 0.14 0.532 0 0zm25.9-28.474c0.1 0.351 0.1-0.351 0 0zm0.23 0c-0.62 0.415 0.41 0.041 0 0zm-0.75 0.328c-1.19 0.957 0.59 0.344 0 0zm0.66 0.467c-0.06 0.519 0.47-0.647 0 0zm-8.32 2.431c-0.07 1.298 0.86-0.739 0 0zm0.42 0.375c0.16 0.387 0.27-0.433 0 0zm0.51 2.945c0.72 0.244-0.41 0.095 0 0zm1.87 0.374c-0.27 0.212-0.04-0.452 0 0zm1.96 0.14c0.41 0.268-0.35 0.05 0 0zm0.47 0.702c-0.5 0.205 0-0.845 0 0zm-0.79 0.28c-0.47 0.107 0.21-0.987 0 0zm-13.66 1.824c-0.55 0.718 0.69 0.028 0 0zm3.46 0.327l-0.09-0.13 0.09 0.13zm-3.46 0.28v-0.094 0.094zm42.41 6.078c-0.97 0.178 1.04-0.296 0 0zm2.06 0.421c0.14 0.698 0.43-0.538 0 0zm-54.1 11.829c1.12 0.162-1.68-0.685 0 0zm0.28 0.14c0.24 0.495 0.4-0.792 0 0zm1.08 0.748c0.55 0.42 0.09-0.683 0 0zm-6.27 10.286c-0.24 0.536 0.24-0.52 0 0zm-3.18 1.356c1.16 0.142-0.23-1.003 0 0zm0.38-0.046l0.1-0.109-0.1 0.109zm0.33 0.187c0.23-0.354-0.49-0.045 0 0zm-0.57 0.42c0.93 0.749-0.07-1.069 0 0zm67.94 0c0.4 0.827 0.61-0.719 0 0zm-5.61 0.281c0.33 0.606 0.02-0.728 0 0zm8.51 0.374c0.62-0.113-0.34-0.589 0 0zm-59.57-0.047l-0.17-0.072 0.17 0.072zm50.31 0.281c-0.1 0.988 0.47 0.067 0 0zm-48.3 0.233c-0.46 1.129-0.44-0.919 0 0zm-2.66 0.281c0.72 0.683 0.02-0.548 0 0zm-4.68 0.327c0.59 2.498-1.22-0.65 0 0zm-2.38 1.356c-1.21 2.586 1.33-0.543 0 0zm0.05 0.795c-0.02 2.716 1.71-1.149 0 0zm1.07 0.047c-1.08 0.811 1.33 0.266 0 0zm-14.73 2.431c0.57-0.389-1.25-0.525 0 0zm63.5 7.153c-0.59 0.894 0.67-0.511 0 0zm3.74 0.094c-0.55 0.977 0.41-0.268 0 0zm-3.28 0.374c-0.1 0.988 0.47 0.067 0 0zm3.51 1.262c-0.92 1.025 0.85-0.291 0 0zm-0.37 0.561c0.13 0.866 0.6-0.644 0 0z"/>
    <path id="path4235" sodipodi:rx="8.3337584" sodipodi:ry="10.101525" style="filter:url(#filter4141);fill:url(#linearGradient4210)" sodipodi:type="arc" d="m124.25 261.92a8.3338 10.102 0 1 1 -16.67 0 8.3338 10.102 0 1 1 16.67 0z" transform="matrix(2.3576 0 0 1.945 85.143 -441.01)" sodipodi:cy="261.91782" sodipodi:cx="115.915"/>
    <g id="g4366" transform="matrix(1.4961 0 0 1.4961 -4.6109 -112.65)">
      <path id="path3557" style="stroke-linejoin:round;stroke:url(#linearGradient4372);stroke-linecap:round;stroke-width:0.3;fill:#c4c4c4" d="m67.031 72.531c-1.781 3.188-3.562 6.375-5.343 9.563-2.313-2.469-4.626-4.938-6.938-7.406 1.594 4.218 3.188 8.437 4.781 12.656-1.51 1.639-5.127 3.15-5.551 4.572 1.916-0.003 4.909 0.464 3.528 3.106-0.549 2.955 1.583 6.018 1.358 8.548-1.675 1.34-2.583 3.82 0.46 3.45 1.822-0.07 4.291 0.94 2.873 3.12-0.486 1.63-1.617 5.46 1.43 3.76 2.565-0.34 5.57-2.05 7.884-1.39 1.141 2.9-0.505 6.03-0.155 9.05 0.843-0.97 1.511-3 2.303-4.37 0.974-1.37 1.345-3.94 2.723-4.52 2.518-0.2 6.177-3.18 7.37 0.7 0.463 1.23 2.028 3.44 1.726 0.58-0.607-3.28 0.596-6.23 3.004-8.43 0.78-1.9 3.8-0.95 4.192-1.1-0.231-0.91 2.26 0.23 0.875-1.07-1.582-0.71-4.017-3.769-0.717-3.701 3.159 0.002 6.319-0.093 9.476-0.149-3.487-1.354-6.977-2.708-10.466-4.062 0.558-0.774 3.405-2.18 0.831-2.017-0.857-1.315 3.68-1.5 4.796-2.473 0.863-0.174 3.209-1.141 0.923-1.071-2.533-0.575-5.902-0.252-7.91-1.391 0.103-2.633 2.901-4.138 3.658-6.525-2.201-0.307-4.67 0.9-7.005 0.692-1.232-0.815 2.174-2.399 3.121-3.121 0.872-0.539 3.215-2.16 0.879-1.32-2.233 0.555-4.392 1.428-6.626 1.871-2.044-1.495-0.823-5.089-2.7-6.86-1.712 0.842-3.754 4.234-5.304 3.521 0.2-1.502-1.207-2.629-2.281-1.161-0.332-1.843-0.859 2.177-2.228 1.798-2.726 0.567-3.053-3.606-4.961-4.841l-0.006-0.009z"/>
      <g id="g4360">
        <path id="path3578" sodipodi:rx="8.3337584" sodipodi:ry="10.101525" style="filter:url(#filter4141);fill:url(#linearGradient4210)" sodipodi:type="arc" d="m124.25 261.92a8.3338 10.102 0 1 1 -16.67 0 8.3338 10.102 0 1 1 16.67 0z" transform="matrix(1.5758 0 0 1.3 -106.97 -246.57)" sodipodi:cy="261.91782" sodipodi:cx="115.915"/>
        <path id="path3553" style="fill:#232126" d="m77.111 83.851c-1.034 0.888-3.301 3.533-4.236 1.307-0.355 1.725-0.913-0.107-0.998 1.503-0.811 1.959-4.682-0.846-3.309 1.455-0.146 2.209-1.947 4.13-2.434 5.927 1.149 1.439 0.834 4.068 2.324 5.607 0.57 1.67 3.1 2.07 4.691 2.91 2.037 1.13 4.479-0.75 6.344 0.7 1.353 1.43-0.824-2.33 1.291-2.18 2.52 0.17 1.268-3.242 3.89-3.046 1.396-0.017 3.474-0.12 1.018-0.682-2.538-0.782-1.032-4.091-0.028-4.431-2.314 0.053-2.177-3.757-2.946-4.142-1.683 0.128-0.822-2.479-0.628-2.126-1.996 0.965-4.244-0.218-4.769-1.83-0.031-0.33-0.058-0.67-0.21-0.972z"/>
      </g>
    </g>
    <path id="path4202" style="stroke-linejoin:round;stroke:url(#linearGradient4208);stroke-linecap:round;stroke-width:.44884;fill:#c4c4c4" d="m77.293 105.23c-2.665 4.77-5.33 9.54-7.995 14.31-3.46-3.7-6.92-7.39-10.379-11.08 2.384 6.31 4.769 12.62 7.153 18.93-2.259 2.45-7.671 4.71-8.305 6.84 2.867 0 7.345 0.7 5.278 4.65-0.821 4.42 2.369 9 2.031 12.79-2.506 2-3.864 5.71 0.689 5.16 2.727-0.1 6.42 1.41 4.298 4.66-0.727 2.45-2.418 8.18 2.14 5.63 3.837-0.5 8.333-3.06 11.795-2.08 1.707 4.35-0.754 9.03-0.231 13.55 1.26-1.46 2.26-4.5 3.445-6.54 1.458-2.06 2.013-5.89 4.074-6.77 3.767-0.29 9.244-4.76 11.024 1.06 0.7 1.84 3.04 5.14 2.58 0.86-0.9-4.9 0.9-9.32 4.5-12.61 1.17-2.84 5.68-1.42 6.27-1.65-0.34-1.36 3.38 0.34 1.31-1.6-2.37-1.07-6.01-5.64-1.07-5.54 4.72 0 9.45-0.14 14.18-0.22-5.22-2.03-10.44-4.05-15.66-6.08 0.83-1.16 5.09-3.26 1.24-3.02-1.28-1.96 5.51-2.24 7.17-3.7 1.3-0.26 4.81-1.7 1.39-1.6-3.79-0.86-8.83-0.38-11.84-2.08 0.16-3.94 4.34-6.19 5.47-9.76-3.29-0.46-6.98 1.34-10.48 1.03-1.84-1.22 3.26-3.59 4.67-4.67 1.31-0.8 4.81-3.23 1.32-1.97-3.34 0.83-6.57 2.14-9.91 2.8-3.06-2.24-1.24-7.62-4.045-10.27-2.56 1.26-5.615 6.34-7.934 5.27 0.299-2.24-1.807-3.93-3.413-1.73-0.497-2.76-1.286 3.25-3.334 2.68-4.079 0.85-4.567-5.39-7.422-7.24l-0.009-0.01z"/>
    <path id="path4204" sodipodi:rx="8.3337584" sodipodi:ry="10.101525" style="filter:url(#filter4141);fill:url(#linearGradient4210)" sodipodi:type="arc" d="m124.25 261.92a8.3338 10.102 0 1 1 -16.67 0 8.3338 10.102 0 1 1 16.67 0z" transform="matrix(2.3576 0 0 1.945 -183.04 -372.19)" sodipodi:cy="261.91782" sodipodi:cx="115.915"/>
    <path id="path4173" style="fill:#232126" d="m92.778 121.54l-3.646 3.08c-0.81 0.09-1.625 0.3-2.385 0.52l-0.28-2.34-0.608 2.57-0.842-1.63 0.515 1.77c-1.176 0.46-2.246 1.09-3.227 1.83l-3.272-1.64 1.309 3.41c-0.334 0.38-0.65 0.8-0.935 1.22l-0.468-0.19 0.468 0.28c-0.98 1.46-1.717 3.13-2.011 4.91l-1.309 0.56-0.608 0.19 0.047 0.05-0.234 0.09 1.964 0.79c-0.003 0.11 0 0.18 0 0.29 0 3.1 1.158 5.97 3.086 8.18l-0.702 1.49 1.543-0.6c0.527 0.49 1.123 0.95 1.73 1.35 1.717 2.86 4.824 4.77 8.369 4.77 1.933 0 3.719-0.56 5.237-1.54l1.262 1.17-0.748-1.55c1.449-1.07 2.582-2.5 3.277-4.2l0.93 0.65-0.79-1.03c0.06-0.17 0.13-0.34 0.18-0.51 0.04-0.05 0.06-0.1 0.1-0.14l0.32 0.14-0.18-0.24c0.62-0.75 1.1-1.6 1.54-2.47l6.03-0.1-5.19-2.06c0.3-1.05 0.47-2.17 0.47-3.31 0-0.36-0.02-0.73-0.05-1.08l2.85-1.08-3.03-0.42c-0.37-1.73-1.14-3.32-2.16-4.72l0.94-1.4-1.92 0.23c-0.34-0.37-0.687-0.69-1.073-1.03l0.561-1.12-0.561-0.04 1.733-1.27-3.65 1.08c-1.134-0.66-2.37-1.18-3.693-1.5l1.028-1.54-1.262 0.89-0.655-2.76z"/>
    <g id="g4355" transform="matrix(1.4961 0 0 1.4961 18.225 -109)">
      <path id="path4308" style="fill:#c4c4c4" d="m131.56 55.969l5.13 10.406c-0.92 0.475-1.78 1.016-2.6 1.625l-1.56-0.875 0.35 1.094-9.07-3 5.91 7.562c-1.03 1.667-1.77 3.508-2.16 5.469l-4.75-0.031 4.6 0.843c-0.12 0.784-0.16 1.592-0.16 2.407 0 0.982 0.11 1.938 0.28 2.875l-0.31 0.5-14.38 8.218 11.57-3.468-1.32 2.25 2.13-2.469 3.53-1.063c1.12 2.441 2.8 4.584 4.91 6.282l-1.72 2.906 2.18-2.562c1.08 0.813 2.25 1.53 3.5 2.093l3.26 11.939 3.31-10.376c0.35 0.019 0.7 0.062 1.06 0.062 3.71 0 7.19-1.066 10.06-2.906l3.69 3.906-1.41-5.687c1.73-1.549 3.11-3.416 4.1-5.5l7.9 0.562-7.34-1.843c0.29-0.77 0.52-1.559 0.69-2.376l0.68-1.031 10.44-5.125-11.15-0.687c-0.53-2.425-1.59-4.665-3.07-6.594l9.75 0.687-11.9-3c-0.32-0.286-0.64-0.579-0.97-0.843l3.81-7.75-7.84 5.343c-2.04-0.879-4.27-1.4-6.63-1.5l-1.87-3.562-0.97 3.656c-1.4 0.149-2.75 0.432-4.03 0.875l-7.63-9.312z"/>
      <path id="path4239" sodipodi:rx="8.3337584" sodipodi:ry="10.101525" style="filter:url(#filter4141);fill:url(#linearGradient4210)" sodipodi:type="arc" d="m124.25 261.92a8.3338 10.102 0 1 1 -16.67 0 8.3338 10.102 0 1 1 16.67 0z" transform="matrix(1.5758 0 0 1.3 -37.51 -260.22)" sodipodi:cy="261.91782" sodipodi:cx="115.915"/>
      <path id="path4212" style="fill:#232126" d="m146.49 71.596l-2.01 1.732h-0.02c-0.45 0.045-0.9 0.147-1.32 0.267l-0.15-1.295-0.35 1.428-0.45-0.914 0.28 1.009c-0.66 0.254-1.26 0.6-1.81 1.009l-1.82-0.914 0.74 1.904c-0.18 0.212-0.36 0.434-0.52 0.667l-0.26-0.095 0.24 0.152c-0.54 0.811-0.93 1.731-1.1 2.723l-0.74 0.323-0.34 0.115 0.04 0.019-0.13 0.057 1.08 0.419v0.171c0 1.728 0.64 3.321 1.71 4.551l-0.39 0.838 0.88-0.343c0.85 0.803 1.9 1.398 3.07 1.732h0.02c0.59 0.168 1.22 0.284 1.86 0.305l0.06 0.248v-0.248c0.05 0.002 0.11 0 0.16 0 0.84 0 1.64-0.133 2.39-0.381l1.67 1.543-0.87-1.866c0.78-0.361 1.49-0.842 2.08-1.428l0.71 0.457-0.52-0.648c0.08-0.089 0.16-0.192 0.24-0.285l0.19 0.076-0.11-0.134c0.34-0.42 0.63-0.881 0.87-1.37l3.33-0.058-2.86-1.142c0.16-0.588 0.26-1.209 0.26-1.847 0-0.199-0.02-0.395-0.04-0.59l1.6-0.609-1.71-0.229c-0.21-0.963-0.63-1.85-1.19-2.627l0.52-0.8-1.06 0.152c-0.19-0.205-0.4-0.405-0.62-0.59l0.32-0.628-0.32-0.019 0.97-0.686-2.03 0.59c-0.63-0.369-1.31-0.663-2.05-0.837l0.58-0.857-0.71 0.495-0.37-1.542z"/>
    </g>
    <path id="path4219" style="fill:#232126" d="m355.01 54.026l-0.46 2.586c-1.28 0.432-2.41 1.091-3.42 1.94l-3.32-0.277 1.47 2.217c-0.79 1.114-1.43 2.413-1.75 3.787l-1.11 0.739 0.92 0.277c-0.06 0.464-0.09 0.904-0.09 1.385 0 4.435 2.72 8.256 6.56 9.884 1.16 2.318 3.58 3.972 6.37 3.972 3.93 0 7.12-3.145 7.12-7.02 0-0.455-0.1-0.955-0.19-1.386 0.96-1.603 1.57-3.449 1.57-5.45 0-2.526-0.93-4.818-2.4-6.65l0.46-0.554-0.83 0.092c-1.02-1.14-2.27-2.058-3.69-2.679l0.46-1.478-2.03 1.016c-0.88-0.229-1.74-0.461-2.68-0.461-0.62 0-1.26 0.085-1.85 0.184l-1.11-2.124z"/>
    <g id="g4346" transform="matrix(1.4961 0 0 1.4961 11.847 -124.62)">
      <path id="path4243" sodipodi:nodetypes="ccsssccccccscccccccccccsccccccsssccc" style="fill:#c4c4c4" d="m146.38 152.94l4.68 12.75c-0.75 1.09-1.4 2.29-1.91 3.56-0.12 0.31-1.93 0.12-2.03 0.44-0.11 0.32 1.47 1.14 1.38 1.47-0.37 1.32-0.61 2.72-0.69 4.15l-7.06 3.28 7.34 1.38c0.42 2.25 1.24 4.34 2.35 6.19l-7.44 3.43 13.44 2.53c2.23 1.29 4.77 2.04 7.47 2.04 0.31 0 0.6-0.05 0.9-0.07l7.69 6.29-3.28-7.22c1.89-0.73 3.63-1.85 5.12-3.25l0.82 0.15 8.34 6.82-5.41-11.97v-0.03c0.45-0.9 0.8-1.86 1.1-2.85l2.56 2.09-2.03-4.46c0.18-1.06 0.31-2.14 0.31-3.25 0-2.81-0.6-5.46-1.65-7.82l0.21-0.65-0.34 0.34c-1.01-2.15-2.41-4.06-4.09-5.59l2.68-7.5-5.59 5.4c-1.74-0.98-2.53-1.8-4.56-2.03-0.29-0.03-0.59-5.68-0.88-5.7-0.26-0.01-1.64 5.8-1.9 5.8-2.32 0-4.51 0.53-6.5 1.5l-0.79-0.22-10.24-7z"/>
      <path id="path4231" sodipodi:rx="8.3337584" sodipodi:ry="10.101525" style="filter:url(#filter4141);fill:url(#linearGradient4210)" sodipodi:type="arc" d="m124.25 261.92a8.3338 10.102 0 1 1 -16.67 0 8.3338 10.102 0 1 1 16.67 0z" transform="matrix(1.5758 0 0 1.3 -18.51 -165.47)" sodipodi:cy="261.91782" sodipodi:cx="115.915"/>
      <path id="path4214" style="fill:#2e3436" d="m167.27 183.73c2.44-0.64 4.1-2.51 3.9-4.28l0.75 0.16-1.16-1.6c0.12-0.24 0.23-0.5 0.32-0.76l0.26 0.03-0.24-0.07c0.32-0.89 0.45-1.87 0.36-2.84l0.62-0.48 0.3-0.21-0.06 0.02 0.1-0.09-1.1-0.14-0.03-0.15c-0.43-1.62-1.42-2.99-2.72-3.88l0.16-0.88-0.73 0.55c-1-0.55-2.15-0.86-3.33-0.88-0.6-0.02-1.22 0.04-1.83 0.18l-0.12-0.23 0.06 0.25-0.15 0.03c-0.79 0.21-1.5 0.53-2.14 0.95l-1.95-1.04 1.27 1.54c-0.64 0.53-1.2 1.14-1.62 1.84l-0.78-0.25 0.64 0.48c-0.05 0.1-0.09 0.22-0.14 0.33l-0.2-0.05 0.16 0.12c-0.23 0.48-0.41 0.97-0.52 1.49l-3.1 0.87 2.97 0.36c-0.01 0.59 0.06 1.22 0.21 1.82 0.05 0.19 0.11 0.36 0.17 0.53l-1.36 0.97 1.66-0.2c0.43 0.85 1.04 1.6 1.76 2.19l-0.29 0.88 0.96-0.41c0.23 0.14 0.47 0.27 0.72 0.39l-0.15 0.69 0.31-0.08-0.74 0.9 1.37-0.84c0.71 1.6 3.03 2.41 5.43 1.79z"/>
      <path id="path4302" style="fill:#000000" sodipodi:type="inkscape:offset" d="m164.62 170.03c-0.43-0.01-0.87 0.06-1.34 0.16h-0.03l-0.06 0.03c-0.19 0.04-0.21 0.03-0.1 0h-0.03c-0.58 0.15-1.1 0.4-1.59 0.72-0.09 0.05-0.19 0.09-0.28 0.12l-0.03 0.03c-0.06 0.08-0.12 0.15-0.19 0.22-0.51 0.42-0.93 0.89-1.22 1.38-0.03 0.05-0.06 0.1-0.09 0.15 0.05-0.09-0.01 0.01-0.13 0.25v0.07c-0.19 0.41-0.34 0.77-0.41 1.09-0.03 0.13-0.09 0.26-0.15 0.37v0.04c0.04 0.15 0.06 0.31 0.06 0.46-0.01 0.42 0.04 0.88 0.16 1.32 0.06 0.22 0.11 0.4 0.12 0.44 0.03 0.09 0.05 0.18 0.07 0.28 0.05 0.08 0.11 0.16 0.15 0.25 0.31 0.62 0.75 1.16 1.28 1.59 0.07 0.06 0.13 0.12 0.19 0.19l0.06 0.03c0.09 0.03 0.17 0.08 0.25 0.12 0.18 0.12 0.39 0.23 0.57 0.32 0.27 0.14 0.51 0.36 0.68 0.62 0.42 0.18 0.75 0.5 0.94 0.91 0.21 0.47 1.55 1.24 3.31 0.78 1.78-0.46 2.59-1.79 2.53-2.31-0.01-0.16 0-0.32 0.04-0.47l-0.1-0.13c-0.4-0.54-0.46-1.27-0.16-1.87 0.11-0.21 0.18-0.36 0.22-0.47 0.01-0.03 0.02-0.06 0.04-0.1 0.23-0.67 0.34-1.41 0.28-2.09-0.01-0.11-0.01-0.23 0-0.34-0.04-0.1-0.08-0.21-0.1-0.31-0.04-0.2-0.06-0.2-0.03-0.1-0.31-1.19-1.05-2.19-2-2.84-0.04-0.04-0.08-0.08-0.12-0.13-0.02-0.01-0.05-0.02-0.07-0.03-0.07-0.03-0.14-0.06-0.22-0.09-0.71-0.4-1.59-0.64-2.5-0.66z" inkscape:original="M 162.71875 168.1875 L 162.78125 168.4375 C 162.7285 168.44978 162.67769 168.45507 162.625 168.46875 C 161.83911 168.67284 161.14383 168.99099 160.5 169.40625 L 158.53125 168.375 L 159.8125 169.90625 C 159.1693 170.43465 158.60572 171.05346 158.1875 171.75 L 157.40625 171.5 L 158.0625 171.96875 C 158.00505 172.07293 157.95788 172.20559 157.90625 172.3125 L 157.71875 172.25 L 157.875 172.375 C 157.65102 172.85483 157.45346 173.35575 157.34375 173.875 L 154.25 174.75 L 157.21875 175.09375 C 157.2073 175.68603 157.28199 176.30743 157.4375 176.90625 C 157.48613 177.09352 157.53029 177.28951 157.59375 177.46875 L 156.25 178.40625 L 157.90625 178.21875 C 158.33405 179.07302 158.93326 179.81459 159.65625 180.40625 L 159.375 181.28125 L 160.34375 180.875 C 160.57343 181.02117 160.81569 181.15959 161.0625 181.28125 L 160.90625 181.96875 L 161.21875 181.875 L 160.46875 182.78125 L 161.84375 181.9375 C 162.55763 183.53959 164.87484 184.34369 167.28125 183.71875 C 169.71623 183.08636 171.3575 181.20343 171.15625 179.4375 L 171.90625 179.625 L 170.75 178 C 170.87286 177.75627 171.00101 177.50717 171.09375 177.25 L 171.34375 177.28125 L 171.09375 177.21875 C 171.40811 176.32426 171.55735 175.34687 171.46875 174.375 L 172.09375 173.875 L 172.375 173.6875 L 172.3125 173.6875 L 172.4375 173.59375 L 171.3125 173.46875 C 171.29986 173.41453 171.29532 173.36668 171.28125 173.3125 C 170.85961 171.689 169.87046 170.3307 168.5625 169.4375 L 168.71875 168.5625 L 168 169.09375 C 167.00617 168.54616 165.83979 168.24686 164.65625 168.21875 C 164.05869 168.20599 163.45441 168.2691 162.84375 168.40625 L 162.71875 168.1875 z " transform="translate(-.44194 -.88388)" inkscape:radius="-1.8129114"/>
      <path id="path4304" sodipodi:nodetypes="ccc" style="fill-rule:evenodd;fill:#e2e2e3" d="m150.56 186.29c10.33 9.97 12.63 7.63 14.05 7.62-5.9-1.87-17.46-11.96-14.05-7.62z"/>
    </g>
    <path id="path4378" style="fill:#c4c4c4" d="m425.25-26.67c0.79 4.737 4.73 8.46 6 12.697-2.66 4.0169-8.02 3.091-11.62 1.001-1.92-0.581-8.02-2.895-4.85 0.807 2.41 3.6425 8.09 7.3415 4.78 12.155-1.54 3.2618-4.03 5.9005-1.88 9.4093 1.05 6.1007-5.56 7.7847-9.69 10.029-1.98 1.659-6.63 3.594-6.7 5.562 4.85-2.52 10.41-3.092 15.52-4.939 5.46-0.747 6.29 6.753 10.07 9.244 4.51 1.515 7.7 4.554 8.13 9.488 1.58 2.282 0.38 9.984 4.49 7.556 2.63-3.44 0.23-10.24 5.65-11.375 4-0.589 8.05-1.153 11.63-3.193 3.14-2.935 5.27 2.979 7.33 2.21-1.54-3.405-1.33-7.425 2.1-10.013 1.7-5.371 6.99-4.048 11.23-3.637 0.17-1.36-9.94-0.604-6.86-5.519 2.99-4.496 8.88-5.1396 13.2-7.8254 2.64-0.7376 2.74-2.9458-0.39-2.1381-4.12-0.7623-9.32 1.0731-12.7-1.477-0.83-2.7776-1.48-6.2237-3.11-8.1259 3.17-2.7188 8.12 0.6721 12.04-0.1982-1.07-0.6474-5.61-1.4303-7.96-2.1374-2.86-1.0968-6.79-0.8951-8.92-2.8635-1.3-4.4875 3.54-7.7755 4.19-11.828-3.81 1.71-6.57 5.328-10.56 6.753-3.84 0.562-8.07-0.812-11.4-2.662-2.75-3.722-5.95 5.074-9.71 1.721-3.55-3.16-5.85-7.636-9.47-10.575l-0.54-0.125zm-18.42 47.924c0.95 1.082-0.4 0.25 0 0zm6.17 0.654c-1.01 0.664 0.4 0.296 0 0zm0 0.748c0.18-0.014-0.19-0.214 0 0zm-0.75 0.702c0.53-0.294-0.37-0.799 0 0zm-0.19 0.561c0.42-0.067-0.19-0.479 0 0zm25.81 24.92c-0.31 0.687 0.5 0.13 0 0z"/>
    <path id="path4380" sodipodi:rx="8.3337584" sodipodi:ry="10.101525" style="filter:url(#filter4141);fill:url(#linearGradient4210)" sodipodi:type="arc" d="m124.25 261.92a8.3338 10.102 0 1 1 -16.67 0 8.3338 10.102 0 1 1 16.67 0z" transform="matrix(2.3576 0 0 1.945 171.05 -502.02)" sodipodi:cy="261.91782" sodipodi:cx="115.915"/>
    <path id="path4382" style="fill:#232126" d="m446.05-5.2092c-0.66 0.7259-0.67 1.6583-1.85 1.9418-1.05 0.4304-2.21 0.4943-3.33 0.3681-1.2 0.4735-1.94 1.8263-3.28 1.9784-0.8-0.1103-1.43-1.5332-2.09-0.3092 0.92 0.33882 0.23 1.7228 0.3 2.593 0.15 1.6974-2.07 1.3418-2.24 2.8229-0.46 0.6431 0.22 3.0996-0.92 2.4331 0.69-0.3364-0.71-1.2493-0.76-0.2707-0.52 1.4259 1.27 0.5205 1.67 1.0854-0.07 0.7313 0.36 1.4718 0.7 1.8321-0.33 0.9183-1.95 1.5403-0.63 2.4973 1.55 0.17 2.09 1.935 2.41 3.217-1.31 0.437 0.24 0.71 0.83 0.456 1.31-0.285 1.5 1.272 0.75 1.328 1.53 0.397 2.97 1.399 4.6 1.186 1.33-0.967 2.81-0.06 4.21 0.15 1.08-0.412 2.3-0.241 3.36-0.599 0.54-0.952 0.66-2.726 2.27-2.041 0.96 0.35 1.7-0.478 1.12-1.324 0.17-1.214 1.33-2.234 2.52-2.373 0.54 0.905 3.05-0.427 1.4-0.576-1.31 0.151-1.58-1.7096-1.55-2.7076-0.3-1.1511 2.13-2.634 0.19-2.989-1.15 0.1296-1.26-1.6486-1.47-2.5107-0.09-1.2579-0.89-2.258-2-2.7884-1.05-0.4042-0.42-1.9955-0.27-2.1549-1.33 0.6795-3.36 0.6435-4.11-0.8612-0.71 0.5937-0.1-1.2751-0.76-0.4546-0.08-0.5998-0.35-1.9752-1.07-1.9298zm11.6 17.018c0.22 0.239 0.13-0.093 0 0zm-9.4-15.756c0.53-0.2028-0.41-0.3727 0 0zm-0.37 0.187c0.73 0.4133-0.3-0.7991 0 0zm8.83 9.6782c0.24-0.1817-0.46-0.2891 0 0zm-24.12 1.6364c-0.18 0.7127 0.04 0.7139 0 0zm17.11 12.296c1.06 0.851 0.44-1.048 0 0z"/>
  </g>
  <metadata>
    <rdf:RDF>
      <cc:Work>
        <dc:format>image/svg+xml</dc:format>
        <dc:type rdf:resource="http://purl.org/dc/dcmitype/StillImage"/>
        <cc:license rdf:resource="http://creativecommons.org/licenses/publicdomain/"/>
        <dc:publisher>
          <cc:Agent rdf:about="http://openclipart.org/">
            <dc:title>Openclipart</dc:title>
          </cc:Agent>
        </dc:publisher>
        <dc:title>Set of bullet holes</dc:title>
        <dc:date>2008-12-03T21:47:43</dc:date>
        <dc:description>bullet holes made with different techniques.</dc:description>
        <dc:source>https://openclipart.org/detail/20561/set-of-bullet-holes-by-rg1024</dc:source>
        <dc:creator>
          <cc:Agent>
            <dc:title>rg1024</dc:title>
          </cc:Agent>
        </dc:creator>
        <dc:subject>
          <rdf:Bag>
            <rdf:li>bullet</rdf:li>
            <rdf:li>gun</rdf:li>
            <rdf:li>hole</rdf:li>
          </rdf:Bag>
        </dc:subject>
      </cc:Work>
      <cc:License rdf:about="http://creativecommons.org/licenses/publicdomain/">
        <cc:permits rdf:resource="http://creativecommons.org/ns#Reproduction"/>
        <cc:permits rdf:resource="http://creativecommons.org/ns#Distribution"/>
        <cc:permits rdf:resource="http://creativecommons.org/ns#DerivativeWorks"/>
      </cc:License>
    </rdf:RDF>
  </metadata>
</svg>