<?xml version="1.0" encoding="UTF-8" standalone="no"?>
<!-- Created with Inkscape (http://www.inkscape.org/) -->
<svg xmlns:inkscape="http://www.inkscape.org/namespaces/inkscape" xmlns:rdf="http://www.w3.org/1999/02/22-rdf-syntax-ns#" xmlns="http://www.w3.org/2000/svg" xmlns:cc="http://creativecommons.org/ns#" xmlns:dc="http://purl.org/dc/elements/1.1/" xmlns:sodipodi="http://sodipodi.sourceforge.net/DTD/sodipodi-0.dtd" xmlns:svg="http://www.w3.org/2000/svg" xmlns:ns1="http://sozi.baierouge.fr" xmlns:xlink="http://www.w3.org/1999/xlink" id="svg4445" sodipodi:docname="Hestia.svg" viewBox="0 0 395.22 1004.1" sodipodi:version="0.32" version="1.0" inkscape:output_extension="org.inkscape.output.svg.inkscape" inkscape:version="0.46">
  <sodipodi:namedview id="base" bordercolor="#666666" inkscape:pageshadow="2" guidetolerance="10" pagecolor="#ffffff" gridtolerance="10000" inkscape:window-height="744" inkscape:zoom="0.35" objecttolerance="10" showgrid="false" borderopacity="1.0" inkscape:current-layer="layer1" inkscape:cx="-162.14286" inkscape:cy="520" inkscape:window-y="-4" inkscape:window-x="-4" inkscape:window-width="1280" inkscape:pageopacity="0.0" inkscape:document-units="px"/>
  <g id="layer1" inkscape:label="Layer 1" inkscape:groupmode="layer" transform="translate(-399.36 -10.868)">
    <path id="path7148" style="fill:#000000" d="m177.75 0c-4.98-0.098939-9.65 0.43253-13.25 1.6562-22.81 7.7438-36.55 17.934-38.78 28.75-0.55 2.681-1.77 7.691-2.69 11.125-2.03 7.626-5.28 51.151-5.28 70.629 0 8.82-0.91 15.53-2.37 17.72-1.3 1.93-3.47 6.34-4.82 9.78-4.3 10.98-9.5 17.79-13.654 17.81-2.144 0.01-6.063 0.84-8.687 1.84-7.675 2.92-26.244 22.97-34.313 37.07-9.688 16.92-6.817 15.09 4.25-2.72 8.45-13.6 12.524-18.61 19.282-23.75 3.28-2.5 3.287-2.42 0.687 2.75-4.408 8.76-7.39 27.44-4.875 30.46 1.164 1.41 2.67 2.54 3.375 2.54 1.905 0 9.933-15.64 13.25-25.85 3.292-10.13 9.18-20.53 11.625-20.53 0.9 0 1.24 1.51 0.75 3.38-0.49 1.86 0.05 5.19 1.22 7.37 1.42 2.65 1.5 3.56 0.19 2.75-1.14-0.7-2.02 0.13-2.1 2-0.12 3.06-0.21 3.06-1.44-0.06-1.054-2.69-1.638-2.87-3.214-0.91-4.996 6.22-9.425 18.25-12.875 34.91-5.488 26.51-11.79 45.05-23.031 67.81-7.305 14.79-10.803 20.13-13.219 20.13-1.809 0-7.887-1.89-13.5-4.22s-14.442-5.24-19.593-6.44c-5.1524-1.2-9.3443-2.78-9.3442-3.53 0-0.75 1.8393-4.08 4.0937-7.41 8.4205-12.42 22.72-37.81 21.812-38.72-1.212-1.21-0.971-1.56-8.906 13.04-3.734 6.86-8.576 14.89-10.75 17.84-8.1527 11.04-10.382 17.08-7.969 21.59 1.8371 3.44 1.7164 4.88-0.7188 8.6-3.3519 5.11-3.5938 6.4-1.2812 6.4 0.9002 0 3.0151-3.66 4.7188-8.12 2.9416-7.71 3.3778-8.05 8.6252-6.97 3.039 0.63 10.551 3.49 16.687 6.34s13.367 5.19 16.063 5.19c5.273 0.01 16.5 5.98 16.5 8.78 0 3.83-3.592 3.46-8.781-0.91-3.028-2.54-5.5-3.83-5.5-2.84 0 1.09-1.95 0.88-4.907-0.53-6.044-2.89-19.913-5.45-17.406-3.22 0.981 0.88 6.197 2.95 11.594 4.59 5.397 1.65 12.235 4.47 15.187 6.29 5.093 3.13 13.189 16.89 15.938 27.09 1.189 4.41 1.152 4.41-2.032 0.88-4.991-5.54-18.429-15.7-19.437-14.69-0.497 0.49 1.343 2.6 4.094 4.69 2.75 2.08 7.343 5.58 10.219 7.78 2.875 2.2 11.207 11.18 18.5 19.93 13.16 15.8 13.252 15.96 12.124 24.07-0.624 4.49-1.917 15.8-2.874 25.12-2.097 20.42-8.117 39.06-13.282 41.06-1.988 0.78-5.151 4.09-7 7.38-3.788 6.74-20.188 22.28-21.812 20.66-1.419-1.42 10.185-17.46 11.875-16.41 0.729 0.45 1.852-2.02 2.5-5.47s1.751-5.92 2.437-5.5c0.687 0.42 1.219-6.2 1.219-14.69 0-15.62 3.575-31.36 6.687-29.43 0.942 0.58 0.9-0.43-0.124-2.29-3.223-5.83-17.99-20.11-23.969-23.18-12.664-6.52-32.688-28.33-41.313-45-1.626-3.15-3.4379-10.93-4.031-17.29-1.108-11.86-4.1595-16.11-4.125-5.74 0.04633 13.91 6.9908 28.9 21.938 47.34 4.987 6.15 9.323 12.97 9.656 15.16 0.739 4.84 5.262 9.64 7.156 7.62 0.759-0.81 0.363-1.84-0.875-2.28s-3.135-2.45-4.219-4.47c-1.911-3.57-1.8-3.56 3.594 0.28 5.946 4.23 6.806 8.64 5.906 29.59-0.21 4.91 0.391 10.08 1.313 11.5 2.923 4.53 10.309-1.1 13.75-10.46 3.765-10.25 5.545-12.33 7.062-8.38 1.369 3.57-3.691 13.84-9.531 19.34-4.6 4.34-5.878 10.47-1.406 6.76 1.443-1.2 5.058-5.83 8.031-10.32 6.185-9.34 7.442-6.83 1.469 2.94-7.996 13.07-11.432 13.92-18.5 4.66-5.412-7.1-7.906-7.9-7.906-2.57 0 2.02-0.8 3.17-1.782 2.57-3.241-2.01-1.857 2.05 1.844 5.4 2.064 1.87 3.19 4.48 2.594 6.03-0.577 1.51-0.503 2.19 0.156 1.53 0.659-0.65 2.356-0.01 3.781 1.41 4.255 4.26 7.181 3.05 14.125-5.87 3.629-4.67 5.946-6.87 5.156-4.91-0.789 1.96-1.269 7.79-1.062 12.94 0.297 7.4-0.203 9.34-2.375 9.34-4.423 0-19.269 15.28-18.5 19.03 0.408 1.99 1.913 3.06 3.844 2.72 2.706-0.47 2.893 0 1.187 3.19-2.527 4.72-0.724 10.75 3.219 10.75 2.541 0 2.909 1.6 2.406 10.5-0.597 10.56 0.141 12.83 8.563 26.09 2.98 4.7 3.257 7.6 2.344 23.66l-1.032 18.31 7.344 6.97c7.169 6.82 7.325 7.23 6.75 17.37-0.324 5.72 0.034 12.01 0.812 13.97 0.797 2.01 1.492-8.56 1.563-24.18 0.101-22.43 0.645-28.42 2.906-31.22 2.57-3.18 2.711-1.81 1.813 17.03-0.643 13.48-0.38 19.6 0.75 17.84 0.946-1.47 1.766-11.1 1.812-21.4 0.065-14.32 0.743-19.59 2.906-22.32 2.595-3.27 2.737 1 1.75 50.88-0.591 29.93-1.888 72.87-2.874 95.44-0.987 22.57-2.618 69.15-3.657 103.5-1.039 34.34-2.602 70.46-3.469 80.28-0.866 9.81-1.767 26.86-2 37.9-0.378 17.96-0.759 20.1-3.624 20.1-6.593 0-7.285-5.77-4.344-36.25 6.488-67.27 11.412-174.32 8.031-174.31-0.996 0-1.688 13.02-1.687 31.78 0 17.46-0.77 42.55-1.719 55.75-3.431 47.7-7.937 96.25-8.938 96.25-1.117 0-0.853-5.22 1.781-34.78 3.555-39.89 5.728-91.57 8.126-192.69 0.628-26.5 1.323-51.66 1.531-55.88s-0.287-8.06-1.094-8.56-1.561 7.35-1.687 17.47c-0.127 10.12-0.436 21.6-0.688 25.53s-0.97 27.63-1.594 52.66c-0.623 25.02-1.481 53.11-1.906 62.43-0.425 9.33-1.24 29.39-1.812 44.6-0.868 23.04-3.142 52.52-5.313 68.72-0.263 1.96-0.594 5.43-0.719 7.75-0.16 2.96-1.023 3.91-2.906 3.18-4.931-1.89-7.85 0.88-8.812 8.38-1.523 11.87-2.236 68.17-1.126 88.62l1.032 18.71 51.716 0.9c82.15 1.4 232.4 1.1 234.03-0.6 0.82-0.8 1.5-12.44 1.5-25.85v-24.37l-7.37-15.19c-4.06-8.34-10.45-21.59-14.19-29.44l-6.81-14.25-0.31-135.62c-0.18-74.59-0.82-142.41-1.41-150.76-3.68-51.66-3.61-52.57 3.19-59.37 1.92-1.92 2.17-4.24 1.03-9.31-2.06-9.15 0.62-24.02 6.47-35.97 3.7-7.56 4.79-12.39 4.72-20.75-0.1-10.62 3.43-20.22 6.71-18.19 1.73 1.07 2.93-2.49 4.44-13.22 1.08-7.61 5.27-16.25 7.91-16.25 2.39 0 11.2-8.48 9.5-9.15-2.9-1.15-11.08-37.27-13.06-57.63-1.05-10.72-2.23-20.04-2.63-20.69s1.87-3.68 5.03-6.75c5.66-5.48 5.84-5.55 12.85-3.06 13.36 4.76 19.89 2.87 27.65-8.03 2.56-3.59 3.39-6.58 2.57-9.19-1.09-3.42-1.51-3.05-3.63 3.13-4.7 13.74-13.18 16.28-29.5 8.87-11.73-5.32-18.8-10.04-22.09-14.75-3.75-5.34-6.45-24.7-4.25-30.5 1.77-4.69 10.11-14.62 12.28-14.62 0.6 0 0.88 3.01 0.62 6.69-0.43 6.21-0.3 6.06 2-2.22 1.37-4.91 5.73-18.21 9.66-29.54 4.68-13.48 7.58-25.48 8.41-34.78 0.69-7.81 1.47-15.4 1.74-16.87 0.28-1.47 0.55-5.2 0.63-8.28 0.1-4.24 1.12-5.87 4.16-6.69 4.21-1.14 11.79-10 8.56-10-1.03 0-1.88 0.76-1.88 1.72 0 0.95-2.29 2.93-5.09 4.37-3.83 1.98-5.58 2.14-7.12 0.6-2.9-2.9-2.55-5 0.62-3.78 1.47 0.56 2.69 0.15 2.69-0.94 0-1.8-2.42-2.74-5.78-2.22-1.33 0.2-12.04-17.4-12.07-19.84-0.01-0.74 1.19-1.35 2.66-1.35s2.69-0.57 2.69-1.31-4.05-1.34-9-1.31c-8.96 0.04-9 0.02-8.47-5.35 0.51-5.25 0.74-5.37 8.81-4.81 4.61 0.32 8.81-0.28 9.47-1.34 1.03-1.67-6.5-2.78-16.44-2.41-2.87 0.11-2.82-1.59 0.16-5.65 1.9-2.6 4.6-3.2 13.37-3 6.05 0.13 11-0.43 11-1.26 0-0.82-3.26-1.65-7.28-1.81-4.01-0.15-8.06-0.73-9-1.31-0.93-0.58-3.78 0.31-6.31 1.97-3.76 2.46-4.86 2.57-6.06 0.62-2.05-3.31 4.37-13.01 9.09-13.75 2.21-0.34 10.57 2.22 18 5.1 0.04 0.1 0.08 0.21 0.13 0.31 0.23 0.6 0.9 0.89 1.5 0.66 0.11-0.05 0.22-0.12 0.31-0.19 4.48 1.81 8.37 3.64 9.91 4.9 1.46 1.21 2.21 1.21 2.21 0.04 0-1.19-5.55-4.43-12.34-7.57-1.08-2.47-2.32-4.86-3.72-7.21-0.03-0.6-0.37-1.11-0.87-1.41-4.94-7.889-11.48-15.226-18.6-22.595-0.17-0.186-0.41-0.273-0.65-0.313-2.43-5.318 1.21-6.021 8.59-0.968 8 5.479 18.69 15.437 18.69 17.406 0 0.716 2.66 5.03 5.93 9.59 3.28 4.56 6.46 11.48 7.04 15.38s3.42 21.14 6.34 38.31 5.8 38.05 6.38 46.41c0.57 8.35 1.86 21.6 2.87 29.43 2.62 20.3 1.78 54.86-1.66 68.38-1.57 6.21-3.4 10.72-4.06 10.06s-0.75 0.49-0.22 2.53c1.52 5.8 3.42 3.07 7.03-10.03 4.12-14.92 4.53-52.95 0.91-86.12-2.81-25.81-3.8-35.51-4.03-39.25-0.09-1.47-0.96-6.27-1.91-10.69-0.94-4.42-2.84-14.88-4.22-23.22-4.48-27.23-6.68-34.62-13.53-45.22-3.71-5.741-7.22-11.882-7.78-13.654-1.28-4.038-21.98-16.548-25.28-15.281-3.77 1.445-4.58 5.025-2.31 8.5 0.05 0.126 0.12 0.242 0.22 0.344 0.02 0.021 0.04 0.041 0.06 0.062 0.02 0.031 0.04 0.063 0.06 0.094 0.38 0.518 0.82 1.031 1.35 1.531l1.59 1.532c5.95 6.334 11.29 12.636 15.41 19.282 1.16 1.88 2.23 3.77 3.18 5.72-3.27-1.42-6.65-2.74-9.75-3.75-3.6-1.18-7.55-3.37-8.78-4.85-3.37-4.053-8.18-6.168-11.31-4.965-1.8 0.691-3.26 2.543-3.25 5.155 0.01 2.83 1.83 6.31 3.47 8.28 1.73 2.09 3.24 3.32 4.06 3.66-3.7 5.2-4.44 8.84-2.22 11.06 0.71 0.71 1.32 6.44 1.34 12.72 0.05 11.83 2.95 16.73 10 16.88 4.58 0.09 20.17 25.26 18.72 30.21-0.45 1.57-1.32 10.88-1.93 20.69-1.76 28.11-7.85 45.86-10.69 31.13-0.46-2.37-2.46-6.52-4.44-9.19-1.97-2.67-3.59-5.99-3.59-7.38 0-3.52-11.82-29.09-14.1-30.5-1.02-0.63-3.12-3.72-4.65-6.87-2.51-5.14-20.53-17.61-31.66-21.88-1.71-0.65-3.12-2.59-3.12-4.31s-4.12-6.24-9.16-10.06c-7.48-5.67-10.88-10.26-18.47-24.88-6.16-11.87-10.04-22.073-11.56-30.309-2.74-14.83-7.91-35.447-10.63-42.469-1.07-2.78-1.5-5.753-0.96-6.624 1.3-2.114-3.88-9.936-12.1-18.188-3.68-3.696-6.69-7.475-6.69-8.406 0-0.932-2.88-3.878-6.4-6.5628-6.42-4.8958-18.98-8.0635-29.94-8.2812zm-6.22 2.9375c1.33-0.0244 2.65 0.0727 4.06 0.2813 4 0.5904 11.08 1.2776 15.72 1.5312 9.38 0.5123 16.28 5.191 14.75 10-0.53 1.678 0.63 4.381 2.66 6.219 1.98 1.788 3.59 2.388 3.59 1.312 0-1.075-0.8-2.456-1.78-3.062-0.98-0.607-1.81-2.046-1.81-3.188s1.23-0.314 2.72 1.813 2.51 4.907 2.25 6.187c-0.27 1.281 0.32 2.175 1.34 2s1.97 1.041 2.09 2.688c0.13 1.647 1.09 6.199 2.13 10.125 1.04 3.925 1.83 9.556 1.75 12.5-0.13 4.693-0.33 4.476-1.59-1.782-2.17-10.732-4.9-16.881-11.97-27.187-5.49-7.991-6.83-9.047-9.25-7.156-2.46 1.917-2.55 1.843-0.6-0.657 3.41-4.366-1.44-7.6395-9.18-6.187-4.21 0.7889-6.35 0.4159-6.88-1.1562-0.6-1.7764-1.48-1.6789-4.06 0.4062-1.91 1.5419-2.74 1.7224-1.97 0.4375 1.73-2.8816-1.02-2.8816-4.25 0-1.96 1.7515-1.94 1.4971 0.09-1.1875 2.45-3.2275 2.32-3.3396-2.68-2.0938-7.57 1.8854-24.1 9.7568-30.63 14.594-9.42 6.981-12.25 27.627-14.12 102.44-1.09 43.43-2.37 56.74-8.82 90.99-3.97 21.11-5.82 36.79-7.09 60.66-1.48 27.82-2.34 32.12-6.56 32.12-1.887 0-3.906 1.19-4.471 2.66-1.354 3.53-4.848 3.25-16.875-1.44l-9.969-3.9 3.375-6c8.69-15.51 30.2-80.9 27.5-83.6-1.253-1.25-1.409-0.83-8.25 24.47-3.051 11.29-7.58 25.75-10.094 32.13-5.731 14.54-14.687 33.9-15.687 33.9-0.416 0-3.534-1.63-6.907-3.62l-6.124-3.63 9.624-19.03c11.082-21.91 18.883-44.98 23.782-70.25 3.715-19.17 7.924-28.37 12.936-28.37 1.75 0 3.19 0.8 3.19 1.78s0.8 1.78 1.78 1.78c2.18 0 2.41-13.67 0.25-15-2.51-1.55-0.26-10.04 6.19-23.16l6.06-12.28v8.44c0 7.15-0.87 9.24-5.56 13.62-3.22 3.01-4.49 5.19-3.03 5.19 1.38 0 3.47-0.98 4.65-2.16 1.67-1.66 2.16-1.61 2.16 0.16 0 5.97-20.819 137.27-23.158 146.06-0.848 3.19-0.906 5.82-0.124 5.82 0.781 0 3.201-9.83 5.374-21.85 2.178-12.02 5.488-30.43 7.378-40.9 1.89-10.48 5.03-30.16 6.97-43.72 1.93-13.57 4.26-29.91 5.18-36.28 0.93-6.38 2.16-23.24 2.72-37.47 3.04-76.991 4.37-90.737 10-102.63 3.7-7.789 8.93-11.547 26.57-19.185 6.68-2.8956 10.68-4.1144 14.65-4.1875zm2.88 8.7505c0.21-0.062 0.36 0.113 0.37 0.5 0.03 1.03-0.7 2.63-1.62 3.562-0.93 0.932-1.97 5.687-2.35 10.594-0.37 4.906-0.82 6.877-1 4.375-0.17-2.503-1.24-5.457-2.34-6.563-1.2-1.195-1.52-3.998-0.78-6.937 0.88-3.515 1.68-4.265 2.72-2.594 1.13 1.834 1.86 1.602 3.37-1 0.67-1.147 1.26-1.835 1.63-1.937zm11.87 1.374c0.54-0.139 0.27 1.441-1.12 4.5-1.65 3.617-1.61 4.902 0.22 6.032 1.5 0.929 1.66 1.822 0.46 2.562-2.77 1.715-4.35-5.371-2.12-9.531 1.22-2.287 2.14-3.454 2.56-3.563zm-6.37 3.126c0.86-0.218 1.01 1.29 0.59 4.906-0.4 3.386-1.41 6.156-2.28 6.156-0.88 0-1.6 1.564-1.6 3.469 0 7.262-2.69 4.712-2.9-2.75-0.12-4.315 0.52-7.844 1.44-7.844 0.91 0 1.08-1.023 0.37-2.25-0.7-1.227-0.61-1.634 0.19-0.906 0.8 0.727 2.38 0.581 3.5-0.344 0.27-0.228 0.49-0.387 0.69-0.437zm-22.07 3.187c0.61-0.045 1.25 0.697 1.78 2.375 1.26 3.943-4.07 19.768-6.65 19.781-0.74 0.004-1.34 1.6-1.35 3.563 0 1.962 0.87 3.562 1.91 3.562s1.29 0.958 0.56 2.125c-0.89 1.445-1.84 0.878-3.03-1.781-0.96-2.148-2.44-3.906-3.31-3.906s-0.74 1.6 0.31 3.562c2.25 4.197 0.92 4.905-1.4 0.75-1.6-2.852 0.16-13.504 3.65-22.156 2.55-6.329 3.88-1.209 1.47 5.688-1.07 3.082-1.48 6.045-0.94 6.593 1.83 1.823 4.32-4.168 4.38-10.5 0.05-5.713 1.29-9.557 2.62-9.656zm-10.43 1.906c2.04-0.33 2.19 2.441-0.41 7.125l-2.81 5.094 1.15-5.344c1.1-5.028 0.99-5.183-1.87-2.375-1.67 1.644-3.11 5.454-3.22 8.469s-0.22 5.419-0.22 5.344-0.94-0.529-2.09-1c-2.97-1.21 0.3-9.874 5.59-14.844 1.63-1.531 2.95-2.319 3.88-2.469zm10.25 0.938c-0.37 0.134-0.59 1.089-0.54 2.5 0.09 2.078 0.53 2.517 1.1 1.093 0.51-1.287 0.44-2.844-0.16-3.437-0.15-0.148-0.28-0.201-0.4-0.156zm40.96 2.156c0.49 0.012 0.56 0.684 0.1 1.875-1.19 3.091-2.47 3.66-2.47 1.094 0-0.924 0.78-2.151 1.75-2.75 0.25-0.157 0.46-0.223 0.62-0.219zm-8.4 1.125c0.21-0.139 0.54 0.455 1 1.688 0.87 2.367 1.12 6.48 0.53 9.156-0.79 3.579-0.22 5.367 2.16 6.75 3.01 1.75 3 1.887 0.09 1.937-3.62 0.063-3.51 0.362-4-12.375-0.18-4.66-0.14-6.925 0.22-7.156zm-26.72 0.688c0.25-0.023 0.11 0.906-0.41 2.843-0.65 2.454-1.93 5.653-2.84 7.125-1.15 1.86-1.27 1.319-0.44-1.781 0.66-2.453 1.94-5.653 2.85-7.125 0.43-0.698 0.69-1.049 0.84-1.062zm40.56 1.406c0.12-0.045 0.26-0.023 0.41 0.125 0.59 0.593 0.64 2.149 0.12 3.437-0.57 1.424-0.97 0.985-1.06-1.094-0.06-1.41 0.17-2.334 0.53-2.468zm-37.06 1.437c0.39 0 0.69 1.216 0.69 2.688s-0.77 2.656-1.72 2.656-1.25-1.184-0.69-2.656c0.57-1.472 1.33-2.688 1.72-2.688zm52.59 0.219c0.29-0.096 1.4 1.532 2.72 3.969 1.51 2.785 2.44 5.373 2.03 5.781-0.78 0.788-4.96-7.473-4.84-9.594 0-0.086 0.05-0.142 0.09-0.156zm-32.5 0.5c0.35 0.045 0.66 0.304 0.97 0.812 0.68 1.1 0.47 3.39-0.47 5.063-1.01 1.811-1.05 4.712-0.12 7.156 0.87 2.292 0.86 4.094 0 4.094-2.33 0-4.1-12.105-2.25-15.406 0.69-1.228 1.3-1.793 1.87-1.719zm-6.06 0.094c0.11 0.04 0.22 0.224 0.35 0.531 0.49 1.227 0.49 3.242 0 4.469-0.5 1.226-0.91 0.203-0.91-2.25 0-1.84 0.24-2.87 0.56-2.75zm17.56 0.094l0.75 6.218c0.41 3.435 2.01 7.683 3.57 9.406 1.55 1.724 2.49 3.424 2.09 3.813-1.92 1.852-6.94-8.302-6.69-13.531l0.28-5.906zm-3.28 2.374c0.12-0.039 0.24 0.214 0.38 0.75 0.45 1.718 0.45 4.502 0 6.219-0.45 1.718-0.81 0.31-0.81-3.125 0-2.361 0.18-3.756 0.43-3.844zm-26.97 4.313c0.24-0.098 0.87 0.338 2 1.281 1.5 1.241 2.72 2.567 2.72 2.938 0 1.999-3.35 0.251-4.31-2.25-0.47-1.225-0.64-1.871-0.41-1.969zm35.72 1.656c0.12-0.045 0.26 0.008 0.41 0.157 0.59 0.592 0.64 2.118 0.12 3.406-0.57 1.423-0.97 1.016-1.06-1.063-0.06-1.41 0.17-2.365 0.53-2.5zm-40.94 0.125c1.31 0.004 3.38 1.666 7.26 5.5 6.94 6.861 6.99 6.975 1.56 4.188-3.07-1.577-6.12-4.227-6.75-5.875-0.64-1.649-1.58-2.547-2.13-2-0.54 0.547-0.08 2.744 1.06 4.875 1.15 2.13 1.75 4.188 1.35 4.594-1.7 1.698-5.23-7.926-3.78-10.313 0.38-0.626 0.84-0.97 1.43-0.969zm-26.87 1.969c0.58-0.116 1.79 0.691 2.87 2 1.41 1.696 1.53 2.719 0.35 2.719-2.16 0-4.68-3.388-3.44-4.625 0.06-0.056 0.14-0.077 0.22-0.094zm42.84 3.531c0.64-0.107 1.1 0.315 1.1 1.094 0 1.039-0.8 1.875-1.78 1.875-0.99 0-1.79-0.349-1.79-0.781 0-0.433 0.8-1.3 1.79-1.906 0.24-0.152 0.47-0.246 0.68-0.282zm48.53 0c0.42-0.026 0.8 1.144 1.44 3.688 0.7 2.778 0.82 5.493 0.28 6.031-0.53 0.538-1.07-0.557-1.18-2.437-0.13-2.096-0.76-1.343-1.6 1.937-1.23 4.857-1.36 4.922-1.44 0.875-0.04-2.453 0.53-6.011 1.29-7.938 0.53-1.371 0.89-2.135 1.21-2.156zm-93.84 0.813c0.41 0.044 0.97 0.442 1.72 1.093 1.51 1.309 3.68 2.04 4.81 1.626 2.59-0.943 4.8 2.368 3.25 4.874-0.79 1.279-1.96 1.21-3.68-0.218-1.98-1.643-2.5-1.501-2.5 0.625 0 1.487-1.18 3.143-2.6 3.687-2 0.769-2.5-0.579-2.28-6 0.17-4.202 0.37-5.785 1.28-5.687zm24.13 2.219c0.44-0.02 1.01 0.511 1.68 1.593 0.57 0.914 0.22 2.165-0.78 2.781-0.99 0.617-1.81-0.126-1.81-1.656 0-1.763 0.34-2.694 0.91-2.718zm25.81 1.687c0.34-0.036 0.65 0.06 0.9 0.313 0.35 0.345-0.51 2.19-1.9 4.093-2.12 2.894-2.53 2.967-2.53 0.531 0-2.24 2.04-4.782 3.53-4.937zm7.78 0.844c0.89-0.109 1.19 0.485 1.19 1.906 0 1.564-0.75 2.404-1.66 1.844-0.91-0.561-1.93 0.395-2.28 2.125-0.6 2.965-0.69 2.95-1.84 0.031-0.83-2.092-0.09-3.702 2.28-4.969 1.05-0.562 1.78-0.872 2.31-0.937zm-24.69 6.156c1.25 0.024 2.92 0.487 4.47 1.313 3.22 1.71 3.58 2.387 1.38 2.406-4.52 0.039-6.76 5.72-6.5 16.406l0.22 9.5 2-9.812c1.1-5.398 2.64-10.836 3.43-12.063 1.64-2.528 7.34-3.114 5.78-0.594-0.55 0.898 0.02 2.079 1.25 2.625 1.24 0.546 0.71 0.811-1.15 0.594-4.73-0.551-5.51 3.216-1.5 7.219 3.98 3.987 16.5 3.489 16.5-0.657 0-1.365 1.79-2.529 4-2.562l4.03-0.062-4.22-3.5c-4-3.33-4.03-3.5-0.59-3.5 1.99 0 3.89-0.872 4.25-1.938 0.35-1.066 0.83 1.842 1.03 6.469 0.2 4.626 1.31 9.572 2.5 11 1.18 1.428 2.27 4.133 2.4 6 0.14 1.866 1.74 5.017 3.53 7 1.8 1.983 2.72 4.133 2.07 4.781s-1.16 0.203-1.16-1-0.77-1.72-1.69-1.156c-0.91 0.564-1.28 5.009-0.84 9.876 0.74 8.14 0.3 9.39-5.5 15.81-4.33 4.79-8.79 7.6-14.22 8.97-4.35 1.09-9.73 1.94-12 1.91-3.55-0.06-3.31-0.43 1.69-2.6 3.51-1.52 5.75-3.77 5.72-5.72-0.06-2.96-0.25-2.94-2.69 0.28-1.92 2.55-4.42 3.36-9.25 3.04-7.1-0.48-9.62-2.71-8.19-7.25 0.72-2.27 0.56-2.34-0.84-0.38-1.35 1.9-2.79 0.67-6.31-5.37-5.68-9.72-8.09-15.824-11.16-28.316-3.25-13.211-3.19-18.773 0.13-11.156 2.49 5.746 8.3 7.938 10.71 4.031 2.5-4.042 3.55-1.252 2.97 8-0.48 7.709-0.01 10.049 2.22 10.906 2.98 1.144 4 6.065 1.25 6.065-3.78 0-3.84 6.31-0.09 9.34 5.33 4.32 12.47 4.09 13.65-0.44 0.52-1.96 2.05-3.56 3.41-3.56s2.48-0.61 2.47-1.34c-0.02-1.85-8.9-5.78-13-5.78-4.64 0-2.85-4.341 2.09-5.066 8.31-1.219 6.15-9.212-2.47-9.125-3.16 0.032-3.08 0.333 0.88 2.593 4.4 2.518 4.43 2.532 0.47 2.594-2.21 0.035-4.03 0.862-4.03 1.813 0 0.95-1 1.344-2.22 0.875-1.53-0.587-2.25-5.419-2.25-15.406 0-10.817-0.63-14.751-2.47-15.376-1.36-0.461-2.03-0.144-1.5 0.719 0.53 0.864-2.11 1.594-5.85 1.594-3.73 0-6.42-0.608-5.96-1.344 0.45-0.736 3.3-1.343 6.31-1.343 4.65 0 5.14-0.408 3.25-2.688-1.89-2.275-1.47-2.656 2.97-2.656 2.87 0 6-0.702 6.93-1.532 0.36-0.314 0.94-0.451 1.69-0.437zm45.5 1.969c0.98 0 1.78 0.8 1.78 1.781s-0.8 1.781-1.78 1.781-1.78-0.8-1.78-1.781 0.8-1.781 1.78-1.781zm-64.19 0.437c1.02-0.087 1.72 0.342 1.72 1.157 0 1.086-1.14 1.968-2.56 1.968s-3.4 1.408-4.4 3.125c-1.63 2.789-1.83 2.679-1.88-0.906-0.03-2.208 0.66-4 1.56-4s2.92-0.498 4.47-1.094c0.39-0.149 0.76-0.221 1.09-0.25zm-11.74 0.469c0.24-0.074 0.45 0.124 0.62 0.625 0.43 1.287-0.09 3.182-1.12 4.219-1.33 1.324-1.56 0.624-0.79-2.344 0.4-1.508 0.88-2.377 1.29-2.5zm45.74 1.094c0.62-0.026 1.33 0.086 1.97 0.344 1.43 0.569 0.99 0.976-1.09 1.062-1.88 0.077-2.94-0.345-2.34-0.938 0.29-0.296 0.85-0.443 1.46-0.468zm45.13 5.468c0.12-0.044 0.26-0.023 0.41 0.126 0.59 0.592 0.64 2.149 0.12 3.437-0.57 1.423-0.98 0.985-1.06-1.094-0.06-1.41 0.16-2.334 0.53-2.469zm3.72 0.532c0.1-0.01 0.22 0.135 0.34 0.437 0.49 1.208 0.52 3.608 0.07 5.344-0.46 1.736-0.84 0.756-0.88-2.187-0.03-2.208 0.16-3.566 0.47-3.594zm-8.59 0.25c0.23-0.044 0.33 1.408 0.4 4.125 0.12 4.365-0.71 14.411-1.84 22.312-1.85 12.839-1.65 16.459 1.87 33.999 5.84 29.1 10.92 38.11 36.1 64.16 22.88 23.67 25.91 29.07 32.03 56.87 1.94 8.84 1.91 10.63-0.25 12-4.48 2.84-5.22 1.85-5.22-6.93 0-7.25-4.05-22.21-9.94-36.76-1.06-2.62-0.79-3.1 1.16-2.06 1.39 0.74-4.85-5.73-13.85-14.4-26.94-25.98-34.45-38.18-40.84-66.35-4.79-21.1-5.22-35.201-1.75-56.498 1.17-7.142 1.78-10.404 2.13-10.468zm12 1c0.12-0.045 0.25 0.008 0.4 0.156 0.59 0.593 0.67 2.118 0.16 3.406-0.57 1.424-1.01 0.985-1.1-1.094-0.05-1.41 0.17-2.334 0.54-2.468zm-19.26 0.094c2.09-0.07 1.96 0.389 0 2.343-3.17 3.176-4.59 3.271-4.59 0.281 0-1.263 1.59-2.413 3.56-2.562 0.39-0.029 0.74-0.053 1.03-0.062zm-11.09 0.093c0.28-0.028 0.86 0.148 1.78 0.5 1.61 0.618 2.91 1.843 2.91 2.719 0 2.294-1.03 1.971-3.6-1.125-1.17-1.42-1.55-2.047-1.09-2.094zm-18.75 1.594c1.78-0.023 3.47 0.379 4.19 1.094 1.12 1.122 0.96 2.207-0.47 3.093-1.43 0.883-1.79 0.641-0.97-0.687 0.84-1.354-0.42-2.153-3.72-2.313-4.51-0.218-4.61-0.311-0.81-1.031 0.58-0.11 1.19-0.148 1.78-0.156zm-47.94 0.094c1.74-0.062 2.09 1.226 0.69 3.469-2.85 4.566-2.37 8.379 1.16 9.5 2.8 0.89 3.31 2.117 2.4 5.906-1.55 6.463-3.16 7.778-2.06 1.687 0.66-3.666-0.09-5.503-3.09-7.469-4.59-3.005-5.41-10.98-1.28-12.562 0.87-0.334 1.61-0.511 2.18-0.531zm15.28 1.406c1.37 0.013 2.6 0.512 2.6 1.531 0 1.97-4.64 3.893-6.03 2.5-0.56-0.56-0.59-1.718-0.07-2.562 0.63-1.014 2.14-1.482 3.5-1.469zm55.82 4.031c1.8-0.135 3.28 0.883 3.28 2.282 0 2.656-0.62 2.865-4.31 1.374-3.3-1.328-2.72-3.373 1.03-3.656zm28.09 10.563c0.32-0.018 1.13 2.618 2.47 7.656 1.83 6.869 3.42 13.905 3.5 15.625 0.32 6.94-3.09 2.52-4.16-5.38-1.64-12.187-2.27-17.876-1.81-17.901zm-5.72 5.312c0.12-0.045 0.26 0.008 0.41 0.157 0.59 0.592 0.67 2.118 0.16 3.406-0.57 1.423-1.01 1.016-1.1-1.063-0.06-1.41 0.17-2.365 0.53-2.5zm-88.19 5.031c0.05-0.016 0.07 0 0.13 0 2.35 0 5.54 6.658 4.94 10.278-0.31 1.82 0.46 2.88 1.84 2.6 1.3-0.27 1.87 0.34 1.25 1.34-1.56 2.52-3.66 2.28-6.12-0.69-1.36-1.63-1.45-2.72-0.25-3.12 1.16-0.39 0.89-2.4-0.72-5.501-1.32-2.53-1.75-4.654-1.07-4.907zm81.07 0.313c0.12-0.045 0.26 0.008 0.4 0.156 0.6 0.593 0.64 2.119 0.13 3.407-0.57 1.422-0.98 1.016-1.06-1.063-0.06-1.411 0.16-2.366 0.53-2.5zm8.72 1.437c0.02-0.006 0.06 0.001 0.09 0.032 1.49 1.456 6 23.466 6.38 31.156 0.38 7.77 6.16 35.16 9 42.62 0.98 2.6 1.5 4.72 1.12 4.72-1.6 0-10.39-11.73-13.81-18.43-5.06-9.92-10.84-34.94-9.35-40.44 1.18-4.33 1.28-4.29 2.91 1.65 1.27 4.63 2.05 5.5 3.25 3.57 0.96-1.55 0.92-2.8-0.12-3.16-0.95-0.33-1.71-1.93-1.69-3.56 0.02-2.59 0.27-2.61 1.9-0.28 1.36 1.93 1.55-0.31 0.69-8.03-0.61-5.52-0.78-9.749-0.37-9.848zm-103.03 0.157c0.34 0.11 0.74 1.083 1.24 3 0.46 1.731 0.2 4.771-0.56 6.721-1.05 2.69-1.4 1.94-1.5-3.16-0.08-4.48 0.25-6.745 0.82-6.561zm198.34 1.656c1.89 0 4.94 1.094 6.78 2.435 3.2 2.34 3.09 2.73-2.34 9.32-0.61 0.73-1.12 1.44-1.63 2.12-0.32-0.78-1.24-2.1-3-4.06-5.96-6.63-3.3-9.815 0.19-9.815zm-187.88 0.563c0.49-0.129 1.21 0.706 1.72 2.032 1.21 3.14 0.17 3.69-1.59 0.84-0.65-1.04-0.78-2.28-0.31-2.748 0.05-0.058 0.11-0.106 0.18-0.124zm73.47 1.782c0.48 0.03 0.78 0.39 0.78 1 0 0.98-0.8 2.3-1.78 2.91-0.98 0.6-1.78 0.29-1.78-0.69s0.8-2.3 1.78-2.91c0.37-0.23 0.72-0.33 1-0.31zm-44.37 6.59c5.04 0.02 6.11 0.47 4.12 1.75-3.49 2.26-8.42 2.26-9.81 0-0.66-1.07 1.61-1.76 5.69-1.75zm-21 6.35c0.52-0.06 1.43 0.05 2.78 0.31 2.45 0.47 4 1.57 3.47 2.44-1.4 2.26-3.58 1.96-5.91-0.85-1.02-1.23-1.22-1.81-0.34-1.9zm93.44 3.43l0.74 4.91c0.41 2.7 1.4 4.91 2.19 4.91s1.98 4.19 2.66 9.28c1.7 12.82 8.39 31.2 17.81 48.9 4.38 8.23 7.78 14.97 7.56 14.97s-4.75-4.4-10.06-9.78c-7.02-7.11-10.27-12.09-11.97-18.28-4.06-14.83-9.46-43.97-9.19-49.53l0.26-5.38zm-106.66 0.69c0.09 0.01 0.2 0.2 0.31 0.63 0.45 1.7 0.46 4.93 0.03 7.15-0.42 2.22-0.79 0.83-0.81-3.09-0.01-2.95 0.18-4.71 0.47-4.69zm72.69 0.38l3.34 6.53c3.56 6.97 4.41 10.21 1.53 5.78-1.36-2.1-1.68-1.68-1.47 1.81 0.15 2.45-0.32 8.66-1.06 13.81-0.92 6.42-0.74 9.38 0.59 9.38 1.08 0 1.87-0.61 1.75-1.34-0.81-5.14 0.52-18.29 1.85-18.29 0.89 0 1.23 2.49 0.75 5.53-0.54 3.39-0.2 5.14 0.87 4.47 1.03-0.63 1.36 0.39 0.82 2.47-0.52 1.97-0.1 3.6 0.93 3.6s2.41 1.6 3.03 3.56c0.63 1.96 2.48 3.61 4.13 3.66 1.65 0.04 6 4.63 9.65 10.21l6.66 10.16-6.37 3.28c-8.28 4.25-6.69 5.91 1.78 1.88 6.23-2.97 6.56-2.98 8.97 0.31 2.27 3.11 1.99 3.63-2.97 5.72-3 1.26-4.99 2.73-4.44 3.28s3.54-0.31 6.69-1.94c4.3-2.23 5.54-2.38 4.97-0.59-0.42 1.31-7.54 5.18-15.82 8.59-13.08 5.4-16.85 6.19-28.97 6-7.66-0.12-13.7 0.02-13.4 0.31 0.3 0.3 4.59 1.36 9.5 2.35s10.92 2.34 13.37 3c3.36 0.89 3.79 0.73 1.82-0.66-3-2.1-3.81-1.68 12.47-6.5 5.39-1.6 10.91-3.35 12.28-3.9 5.8-2.39-0.93 3.63-13.6 12.18-15.06 10.16-27.06 15.39-46.9 20.35-7.34 1.83-12.04 3.59-10.44 3.93 4.62 0.99 31.55-6.47 41.4-11.46 12.37-6.27 34.68-21.82 38.79-27.04l3.4-4.31 6.88 6c7.23 6.31 16.76 19.43 10.28 14.16-2-1.63-0.88 1.64 3.06 8.9 6.83 12.59 9.14 22.51 8.63 37.1-0.29 8.1 0.43 10.48 4.87 16.09 5.07 6.4 5.29 7.48 7.25 36.88 1.11 16.66 2.76 37.12 3.66 45.46 0.89 8.35 2 19.16 2.47 24.07 0.46 4.9 1.85 17.85 3.09 28.75 1.65 14.53 1.73 21.44 0.31 25.87-1.84 5.78-1.95 5.85-2.12 1.22-0.11-2.81-1.61-5.63-3.6-6.69-2.9-1.55-49.33-2.59-109.87-2.46-21.46 0.04-62.93 2-66.56 3.15-3.21 1.02-3.34 0.53-1.97-6.53 0.81-4.2 1.39-9.61 1.31-12.06-0.08-2.46-1.08 0.74-2.25 7.12s-1.48 12.49-0.69 13.56c0.86 1.17-0.17 3.33-2.56 5.35l-4 3.41 3.41-4.04c1.87-2.2 2.48-4 1.37-4s-3.18 2.28-4.62 5.07c-2.98 5.76-14.277 15-16.098 13.18-0.663-0.66-0.751 0-0.187 1.47s-0.002 3.97-1.25 5.56c-1.248 1.6-4.158 3.46-6.5 4.16-3.967 1.18-4.169 0.94-2.937-3.81 2.999-11.58 6.477-33.3 9-55.97 1.474-13.25 3.906-31.71 5.406-41.03 1.496-9.32 3.226-24.3 3.816-33.28 0.96-14.59 1.5-16.55 5.03-18.16 5.48-2.5 6.22-8.08 6.25-46.47 0.02-32.23 0.2-33.69 5.34-48.4 2.92-8.34 5.33-18.78 5.38-23.19 0.07-6.85 0.39-7.58 2.25-4.91 14.82 21.37 18.95 26.39 23.06 28.16 2.65 1.14 5.85 1.68 7.12 1.19 1.28-0.5-0.17-1.48-3.25-2.16-4.11-0.91-7.7-4.15-13.59-12.22-10.37-14.21-13.9-21.26-13.44-26.91 0.21-2.51 0.51-4.56 0.66-4.56s3.84 1.98 8.19 4.41c12.54 7.01 32.43 14.72 40.93 15.87 6.3 0.86 5.22 0.22-5.56-3.31-7.36-2.41-20.22-7.83-28.56-12.03-18.95-9.54-20.32-13.35-8.13-22.47 5.47-4.09 7.63-6.84 6.97-8.91-0.78-2.45-0.64-2.53 0.85-0.43 2.44 3.44 7.64-0.65 6.28-4.94-0.59-1.84-0.37-2.25 0.56-1.06 0.83 1.06 3.1 2.94 5.06 4.15 3.48 2.15 3.47 2.17-0.31 1.38-2.57-0.54-3.59-0.08-3.03 1.37 1.02 2.67-10.22 11.59-16.85 13.35-2.81 0.74-5 2.69-5.31 4.75-0.88 5.95 15.78 12.53 51.28 20.25 16.4 3.56 44.69 5.05 44.69 2.34 0-0.74-7.12-1.48-15.84-1.62-8.72-0.15-20.56-1.23-26.32-2.41-15.14-3.1-47.49-14.08-50.62-17.19-1.47-1.46-1.86-2.52-0.88-2.34 3.93 0.72 6.27-0.36 14.63-6.78 15.06-11.56 15.66-11.71 18.19-4.72 1.21 3.34 2.91 6.06 3.78 6.06s0.15-3.23-1.63-7.19c-2.66-5.95-2.92-8.58-1.4-15.21 1.25-5.48 2.43-7.44 3.69-6.19 2.68 2.69 20.13 2.22 25.71-0.69 2.65-1.38 6.73-4.53 9.07-7.03l4.25-4.56zm-56.44 2.09c0.84-0.09 2.76 0.5 5.65 2 6.79 3.51 8.73 8.29 4.6 11.31-3.91 2.86-5.43 2.85-7.19 0.03-2.33-3.73-2.36-7.07-0.03-5.28 3.38 2.61 8.34 3.96 8.34 2.28 0-0.85-2.91-3.24-6.46-5.34-4.76-2.81-6.31-4.85-4.91-5zm101.28 1.28c0.3 0.01 2.07 2.9 4.47 7.38 5.05 9.44 9.57 14.36 19.87 21.59 4.04 2.83 4.16 3.24 1.29 5-3.64 2.23-4.13 7.69-0.91 10.22 3.36 2.65 12.6 4.55 11.22 2.31-0.63-1.02-2.21-1.87-3.5-1.87-2.69 0-7.36-4.96-5.97-6.35 1.12-1.12 15.58 6.42 22 11.47 2.56 2.01 6.11 4.12 7.9 4.69 5.34 1.69 27.1 40.47 24.29 43.28-0.57 0.57 0.95 3.63 3.4 6.84s4.47 7.15 4.47 8.72 1.29 4.85 2.91 7.32c2.73 4.17 2.74 5.23-0.31 15.31-1.81 5.94-4.54 11.25-6.07 11.81s-5.58 3.29-9 6.06c-5.44 4.43-7.67 5.03-18.28 5.03-8.46 0-12.1-0.65-12.12-2.21-0.03-1.77-0.31-1.76-1.44 0.03-1.4 2.2-3.88 1.2-3.88-1.57 0-1.37 2.33-1.09 10.41 1.25l4.12 1.22-4.12-8.25c-2.28-4.53-4.97-7.94-5.97-7.59-1.07 0.38-1.58-1.98-1.25-5.81 0.31-3.56-1.11-12.52-3.16-19.88-4.06-14.65-3.96-13.9-2.68-24.09 0.64-5.1 0.42-6.11-0.72-3.57-1.44 3.22-1.73 3.27-2.84 0.54-0.69-1.67-0.73-3.86-0.1-4.88 0.67-1.09 0.07-1.44-1.5-0.84-1.5 0.57-2.28 2.32-1.75 4 1.46 4.65-11.36-15.92-14.28-22.91-12.26-29.33-22.3-59.7-20.34-61.65 0.38-0.39 2.54 5.5 4.81 13.09 5.76 19.26 20.63 46.9 26.53 49.34 2.63 1.09 1.81-0.72-4.03-8.81-9.66-13.38-13.53-22.54-23.44-55.75-0.09-0.32-0.1-0.47-0.03-0.47zm112.28 2.5c-0.04 0.02-0.11 0.05-0.15 0.1-0.56 0.55 0.09 4.31 1.43 8.37s2.76 6.48 3.13 5.37c0.84-2.54-2.98-14.29-4.41-13.84zm-159.37 7.34l-2.57 10.72c-1.41 5.89-2.56 12.29-2.56 14.25 0 7.24 3.33-4.41 4.25-14.87l0.88-10.1zm155.22 2.69c-1.32 0-1.29 1.14 0.09 3.72 1.09 2.05 2.44 3.28 2.97 2.75 1.47-1.47-0.9-6.47-3.06-6.47zm-210.22 1.03c0.83-0.09 2.96 0.96 5.09 2.6 2.44 1.87 3.57 3.44 2.53 3.47-2.58 0.05-9.04-4.8-7.9-5.94 0.06-0.06 0.16-0.11 0.28-0.13zm205.72 2.66c-0.53-0.07-0.85 1.11-0.85 3.53 0 2.02 0.78 3.21 1.72 2.63s1.24-2.22 0.69-3.66c-0.62-1.61-1.16-2.44-1.56-2.5zm-185.6 0.59c-0.31-0.11 0.31 1.18 1.6 3.75 1.46 2.95 5.78 8.65 9.59 12.69 8.08 8.58 13.97 17.01 13.34 19.09-0.24 0.81 0.4 0.97 1.41 0.35 2.48-1.54-0.09-6.05-9.41-16.56-4.13-4.66-9.79-11.3-12.56-14.72-2.42-2.99-3.66-4.48-3.97-4.6zm-37.44 1.94c0.11-0.01 0.23 0.14 0.35 0.44 0.49 1.21 0.51 3.61 0.06 5.34-0.45 1.74-0.84 0.76-0.87-2.19-0.03-2.2 0.16-3.56 0.46-3.59zm205.6 8.06c1.17-0.01 2.61 0.8 3.22 1.79 1.37 2.21 0.74 2.21-2.69 0-1.61-1.04-1.81-1.77-0.53-1.79zm-75.91 2.07c-0.4 0.11 0.45 0.81 2.41 2.4s3.37 3.65 3.12 4.56c-0.62 2.31 2.63 2.09 4.1-0.28 1.51-2.44-0.6-4.45-6.32-5.96-1.9-0.51-2.99-0.81-3.31-0.72zm-38.84 1.81c0.12-0.05 0.26 0.01 0.4 0.15 0.6 0.6 0.64 2.15 0.13 3.44-0.57 1.43-0.98 0.99-1.06-1.09-0.06-1.41 0.16-2.37 0.53-2.5zm-13.35 5c-0.29 0.05-0.6 0.2-0.9 0.5-0.59 0.59-0.43 2.1 0.34 3.34 1.13 1.82 1.55 1.82 2.16 0 0.7-2.1-0.33-4.04-1.6-3.84zm-118.31 3.59c2.987 0 3.114 0.8 0.781 4.94-0.96 1.7-4.217 9.65-7.218 17.66-3.002 8-6.715 15.6-8.25 16.87-2.506 2.08-2.665 1.05-1.5-10.09 1.063-10.17 2.411-13.96 7.468-20.91 3.396-4.66 7.331-8.47 8.719-8.47zm126.53 3.56c-2.45 0-4.47 0.69-4.47 1.54 0 0.84 2.02 1.15 4.47 0.68 2.46-0.47 4.44-1.15 4.44-1.53 0-0.37-1.98-0.69-4.44-0.69zm-67.34 1.82c-1.18 0.05-1.64 0.28-1.22 0.68 0.41 0.39 4.37 1.22 8.78 1.85 4.42 0.63 10.85 1.84 14.28 2.69 3.44 0.84 9.45 1.53 13.38 1.53 4.78 0 1.54-1.07-9.82-3.28-11.89-2.32-21.87-3.64-25.4-3.47zm57.34 0.12c-1.56-0.07-4.38 1.67-6.25 3.88-3.37 3.98-3.35 3.99 0.19 1.12 1.96-1.59 4.75-3.33 6.22-3.87 2.27-0.84 2.26-1.01-0.16-1.13zm85.63 3.44c-0.98 0 0.81 3.2 3.97 7.12 6.47 8.07 6.73 8.16 11.5 4.44 2.39-1.87 2.63-2.57 0.78-2.25-1.47 0.26-3.17 1.12-3.75 1.91s-3.22-1.42-5.88-4.91c-2.66-3.48-5.64-6.31-6.62-6.31zm-5.94 4.09c-1.75 0.03-4.44 0.4-8.16 1.13-0.49 0.09 0.2 0.87 1.53 1.72 2.85 1.8 9.19 0.5 9.19-1.88 0-0.67-0.81-0.99-2.56-0.97zm-158.91 3.38c-0.05 0.01-0.09 0.03-0.12 0.06-0.51 0.51 2.54 2.99 6.75 5.53 8.42 5.08 8.53 5.16 8.53 3.91 0-1.5-13.45-9.85-15.16-9.5zm-29.371 3.22c-1.721 0-7.044 18.18-5.907 20.19 1.246 2.19 1.691 1.21 4.594-9.94 1.474-5.65 2.074-10.25 1.313-10.25zm212.5 5.62c-0.17 0.02-0.34 0.06-0.53 0.13-1.32 0.44-2.66 2.22-3 3.97-0.4 2.03 0.24 2.88 1.78 2.37 1.32-0.44 2.66-2.22 3-3.97 0.34-1.78-0.1-2.65-1.25-2.5zm-73.06 1.94c-3.29-0.13-13.07 3.33-19.03 6.97-7.91 4.82-2.67 4.03 7.65-1.16 4.89-2.45 9.91-4.44 11.16-4.44s1.77-0.5 1.19-1.09c-0.18-0.17-0.5-0.26-0.97-0.28zm-170.94 5.53c-0.214 0.04-0.442 0.13-0.688 0.28-0.981 0.61-1.781 1.48-1.781 1.91s0.8 0.78 1.781 0.78c0.982 0 1.782-0.84 1.781-1.87 0-0.78-0.453-1.21-1.093-1.1zm165.75 1.28c-0.85 0-2.32 0.56-4.06 1.69-2.31 1.49-2.26 1.73 0.34 1.75 1.66 0.02 3.49-0.77 4.09-1.75 0.7-1.13 0.48-1.69-0.37-1.69zm-40.22 1.03c-0.49 0.04-0.62 0.22-0.28 0.53 0.9 0.86 3.22 1.94 5.19 2.41 10.38 2.5 10.51 0.8 0.15-2.03-2.4-0.66-4.24-0.97-5.06-0.91zm-23.53 2.47c-0.92-0.01-0.12 1.11 1.78 2.5s3.85 2.15 4.31 1.69c0.98-0.98-3.62-4.15-6.09-4.19zm-104.66 5.6c-0.871 0.1-4.458 5.61-5.718 9.09-0.623 1.72-0.779 3.13-0.344 3.13 0.984 0 6.25-10.03 6.25-11.91 0-0.23-0.063-0.33-0.188-0.31zm248.13 1.5c-0.95 0-1.72 1.21-1.72 2.68 0 1.48 0.3 2.69 0.69 2.69 0.38 0 1.18-1.21 1.75-2.69 0.56-1.47 0.23-2.68-0.72-2.68zm-150.75 4.09c-0.13 0.02-0.22 0.06-0.28 0.13-0.5 0.49 2.19 2.5 5.97 4.5 7.63 4.02 11.31 4.68 11.31 2 0-0.99-1.26-1.79-2.78-1.79s-5.2-1.26-8.19-2.81c-2.61-1.35-5.12-2.17-6.03-2.03zm53 5.47c-0.24 0.03-0.66 0.13-1.22 0.31-1.96 0.65-6.58 1.63-10.28 2.16-3.71 0.52-7.14 1.61-7.63 2.4-1.35 2.2 11.97-0.3 17.03-3.18 2.11-1.2 2.82-1.79 2.1-1.69zm-171.32 0.56c-1.592-0.12-9.219 8.33-9.219 10.47 0 0.74 2.298-0.97 5.094-3.81s4.747-5.76 4.344-6.5c-0.049-0.09-0.113-0.15-0.219-0.16zm193.9 1.03c-0.54 0.05-1.81 0.56-3.28 1.35-1.96 1.05-3.56 2.8-3.56 3.9s1.6 0.56 3.56-1.22c1.96-1.77 3.56-3.53 3.56-3.9 0-0.1-0.1-0.14-0.28-0.13zm-49.47 3.38c-0.97 0.01-1.86 0.13-2.47 0.37-1.2 0.49 0.22 0.85 3.16 0.82 2.94-0.04 3.92-0.43 2.19-0.88-0.87-0.23-1.91-0.32-2.88-0.31zm-137.59 3.31c-0.982 0-1.781 0.87-1.781 1.91s0.799 1.38 1.781 0.78c0.981-0.61 1.781-1.44 1.781-1.88 0-0.43-0.8-0.81-1.781-0.81zm79.901 2.72c-2.51 0.17-6.17 7.57-7.71 16.09-1.69 9.28 0.8 6.88 3-2.9 0.93-4.17 2.98-8.54 4.56-9.69 1.95-1.43 2.22-2.48 0.87-3.31-0.23-0.15-0.45-0.21-0.72-0.19zm94.22 0.66c-1 0.11-3.74 1.56-7.12 3.84-4.51 3.04-8.19 5.95-8.19 6.47 0 1.67 14.98-7.85 15.69-9.97 0.09-0.28-0.04-0.38-0.38-0.34zm-179.9 0.31c-0.47 0.01-1.352 0.25-2.688 0.81-1.717 0.72-4.341 1.46-5.812 1.62-2.707 0.31-3.563 1.4-3.563 4.54 0 0.94 2.815 0.05 6.25-1.97 4.912-2.9 7.221-5.05 5.813-5zm227.44 1.69c-0.72 0-1.45 1.79-1.63 4-2.42 30.26-10.49 70-22.81 112.46-5.03 17.32-26.73 73.8-29.78 77.47-1.07 1.28-1.24 2.31-0.38 2.31 2.63 0 5.3-5.46 16.56-34.34 10.11-25.9 17.79-48.7 20.6-61 0.93-4.06 1.58-4.68 2.84-2.69 1.13 1.79 1.65 0.13 1.69-5.43 0.06-9.1 1.65-16.39 3.34-15.35 0.63 0.39 1.26-3.25 1.41-8.09s1.56-10.73 3.12-13.13c1.57-2.39 2.85-5.55 2.85-7 0-1.44 0.68-3.07 1.53-3.59s1.36 4.46 1.12 11.06c-0.4 11.11-0.34 11.33 0.85 3.06l1.25-8.9 0.31 12.34c0.52 21.99 1.91 11.46 2.31-17.47 0.29-20.51-0.2-28.52-1.78-29.5-1.19-0.73-1.63-2.7-1-4.34 1.3-3.38-0.43-11.87-2.4-11.87zm60.62 5.53c-5.42 0.2-12.88 3.28-12.88 5.5 0 0.85 1.83 0.59 4.04-0.6 2.2-1.18 6.43-2.72 9.37-3.43l5.35-1.29-4.82-0.18c-0.34-0.02-0.7-0.02-1.06 0zm-78.94 5.15c-1.2 0.04-6.09 1.88-12.09 4.82-5.41 2.64-8.95 5.11-7.88 5.46 1.08 0.36 4.5-0.67 7.6-2.28 3.1-1.6 6-2.53 6.47-2.06 1.23 1.23-14.9 12.06-20.5 13.75-3.92 1.18-4.12 1.44-1.04 1.56 5.37 0.22 26.98-14.02 24.04-15.84-1.76-1.09-1.52-1.86 1.03-3.35 2.48-1.44 3.09-2.08 2.37-2.06zm55.38 0c-0.98 0-1.78 0.87-1.78 1.91s0.8 1.39 1.78 0.78 1.78-1.47 1.78-1.91c0-0.43-0.8-0.78-1.78-0.78zm-211.66 2.13c-0.365 0.13-0.589 1.09-0.531 2.5 0.086 2.08 0.524 2.48 1.094 1.06 0.515-1.29 0.436-2.81-0.156-3.41-0.149-0.14-0.285-0.2-0.407-0.15zm221.56 2.03c-0.28-0.02-0.63 0.08-1 0.31-0.98 0.61-1.78 1.89-1.78 2.88 0 0.98 0.8 1.29 1.78 0.68 0.99-0.6 1.78-1.89 1.78-2.87 0-0.61-0.3-0.97-0.78-1zm-57.28 1.5c-0.83-0.03-4.81 2.69-9.22 6.34-4.7 3.9-10.75 8.5-13.46 10.25-6.6 4.25-33.02 5.8-46.13 2.72-11.08-2.6-30.84-11.08-32.66-14.03-0.68-1.1-2.54-2-4.15-2-4.25 0-1.17 2.44 11 8.72 7.03 3.63 9.64 5.78 7.84 6.47-1.48 0.57-4.58 3.61-6.87 6.75-4.07 5.56-3.95 5.51 3.47-1.13 5.32-4.76 8.52-6.4 10.59-5.5 6.2 2.71 33.62 6.05 41.31 5.03 4.42-0.58 11.04-2.58 14.72-4.43 3.68-1.86 6.69-2.67 6.69-1.82 0 2.66-14.34 14.67-19.78 16.57-2.85 0.99-5.19 2.47-5.19 3.31 0 0.83 2.41 0.68 5.34-0.35 6.06-2.11 23.7-18.89 22.28-21.18-0.51-0.83 2.69-4.53 7.1-8.22s7.67-7.04 7.25-7.47c-0.03-0.03-0.07-0.03-0.13-0.03zm-82.09 1.5c-0.43 0-0.78 0.8-0.78 1.78s0.83 1.78 1.87 1.78 1.42-0.8 0.82-1.78c-0.61-0.98-1.48-1.78-1.91-1.78zm126.91 1.78c-0.5 0-1.74 1.6-2.79 3.56-1.05 1.97-1.52 3.56-1.03 3.56s1.76-1.59 2.82-3.56c1.05-1.96 1.49-3.56 1-3.56zm-210.04 0.31c-0.099-0.09-0.46 0.41-1.125 1.47-0.923 1.47-2.233 4.87-2.875 7.56-0.691 2.91-0.421 4.91 0.656 4.91 1 0 1.844-1.94 1.844-4.31 0-2.38 0.435-5.77 1-7.56 0.407-1.3 0.598-1.98 0.5-2.07zm89.316 0.47c-0.96 0.04-1.63 0.26-1.63 0.75 0 0.98 1.82 2.05 4.03 2.41 4.04 0.64 6.13 0.18 4.75-1.06-1.44-1.3-5.04-2.17-7.15-2.1zm128.96 1c-2.05 0-5.68 13.67-5.68 21.38 0 3.94 0.79 7.15 1.75 7.15s1.27-2.25 0.72-5.03c-0.56-2.77 0.21-9.2 1.71-14.28 1.51-5.08 2.19-9.22 1.5-9.22zm-85.43 0.19c-0.89 0-2.55 0.54-5 1.59-3.44 1.48-3.43 1.54 0.34 1.66 2.15 0.07 4.39-0.68 5-1.66 0.65-1.05 0.54-1.59-0.34-1.59zm-107.07 2.03c-0.52 0.13-0.46 1.56 0.13 4.69 0.62 3.31 1.29 12.94 1.5 21.4 0.37 14.84 0.41 14.69 0.97-4.09 0.39-13.23-0.09-20.09-1.5-21.41-0.49-0.45-0.86-0.65-1.1-0.59zm77.66 0.5c-2.54-0.01-3.15 0.26-1.47 0.81 4.42 1.45 22.68 2.44 21.25 1.16-0.41-0.37-6.35-1.13-13.22-1.66-2.82-0.22-5.04-0.3-6.56-0.31zm-148.78 5.34c-2.656 0.05-6.418 0.86-7.75 2-0.409 0.36 1.799 0.63 4.906 0.63 3.108 0 5.625-0.81 5.625-1.81 0-0.6-1.188-0.84-2.781-0.82zm164.25 1.44c-1.47 0-2.66 0.68-2.66 1.5s1.19 1.47 2.66 1.47 2.69-0.65 2.69-1.47-1.22-1.5-2.69-1.5zm-68.31 1.63c-0.26-0.03-0.11 0.98 0.37 3.15 0.55 2.46 1.11 5.66 1.25 7.13 0.15 1.47 0.61 0.9 1.03-1.28 0.43-2.18-0.13-5.41-1.25-7.16-0.76-1.2-1.2-1.82-1.4-1.84zm-17.53 0.81c-0.17 0.02-0.36 0.18-0.6 0.53-0.99 1.47-1.83 7.03-1.84 12.34-0.04 12.56 0.98 11.16 2.47-3.4 0.67-6.56 0.67-9.57-0.03-9.47zm-83.254 0.56c-1.677 0.17-3.884 1.45-5.344 3.53-1.37 1.96-3.164 2.98-3.968 2.25-0.805-0.73-0.967 0-0.375 1.66 0.592 1.65 0.109 3.4-1.063 3.87-1.171 0.48-0.534 0.96 1.438 1.03 4.322 0.17 9.13-6.24 5.718-7.62-1.191-0.48-0.332-0.95 1.876-1.03 2.207-0.08 4-0.93 4-1.91 0-1.35-0.978-1.91-2.282-1.78zm213.93 2.31c-0.34-0.02-1.05 0.19-2.18 0.6-1.86 0.67-4.84 2.69-6.6 4.5-2.14 2.2-2.42 3.27-0.87 3.25 2.78-0.04 5.05-1.62 8.34-5.82 1.39-1.76 1.88-2.48 1.31-2.53zm30.91 1.25c1.04 0 1.87 0.8 1.88 1.78 0 0.99-0.35 1.79-0.79 1.79-0.43 0-1.3-0.8-1.9-1.79-0.61-0.98-0.23-1.78 0.81-1.78zm-134.16 7.25c-0.16-0.01-0.38 0.11-0.59 0.32-0.56 0.56 1.42 13.31 4.37 28.37 2.96 15.06 7.05 37.04 9.1 48.81 4.41 25.38 9.26 40.06 16.66 50.41 2.97 4.17 5.75 7.21 6.18 6.78 0.44-0.43-0.95-3.24-3.09-6.25-7.22-10.13-12.84-27.35-18-55.28-5.73-30.99-7.47-39.96-11.41-58.13-1.49-6.86-2.73-13.22-2.75-14.12-0.01-0.56-0.19-0.88-0.47-0.91zm97.75 1.97c-1.38-0.07-4.98 0.48-8.09 1.47l-4.47 1.44 4.47 0.31c4.12 0.28 4.17 0.4 0.88 1.81-3.41 1.47-3.4 1.57 0.43 1.69 2.34 0.07 4.03-0.94 4.03-2.4 0-1.4 1-2.95 2.22-3.44 1.39-0.56 1.36-0.83 0.53-0.88zm-104.03 1c-0.14 0.02-0.25 0.27-0.28 0.78-0.08 1.64 0.36 4.28 0.97 5.88 1.85 4.83 2.46 2.04 0.78-3.6-0.59-1.99-1.15-3.09-1.47-3.06zm-114.22 0.6c-0.906 0-2.239 0.53-3.969 1.65-2.164 1.4-1.903 1.76 1.344 1.78 2.208 0.02 4-0.8 4-1.78 0-1.12-0.469-1.65-1.375-1.65zm176.25 5.25c-0.98 0-1.78 0.83-1.78 1.87s0.8 1.39 1.78 0.78c0.99-0.6 1.79-1.44 1.79-1.87 0-0.44-0.8-0.78-1.79-0.78zm100.35 1.53c2.2-0.06 4.94 3.29 4.97 6.87 0.14 16.72 17.16 104.51 23.93 123.44 1.55 4.32 2.6 7.96 2.35 8.09-0.26 0.14-2.25-0.02-4.41-0.37-4.24-0.68-4.87-2-7.59-15.56-0.99-4.91-3.39-14.85-5.35-22.07-1.95-7.22-5.18-24.49-7.15-38.37s-4.8-33.18-6.28-42.91c-1.49-9.73-2.33-18.05-1.88-18.5 0.42-0.41 0.9-0.61 1.41-0.62zm-147.75 0.25c-0.49 0-0.05 1.6 1 3.56s2.32 3.56 2.81 3.56 0.02-1.6-1.03-3.56-2.29-3.56-2.78-3.56zm-76.252 0.19c-0.132-0.05-0.27 0.01-0.469 0.21-0.562 0.57-1.349 3.72-1.75 7-0.569 4.66-0.394 5.2 0.875 2.41 1.584-3.48 2.264-9.3 1.344-9.62zm157.68 0.03c-0.61 0.02-1.14 0.17-1.43 0.47-0.6 0.59 0.46 1.01 2.34 0.93 2.08-0.08 2.49-0.49 1.06-1.06-0.64-0.26-1.35-0.37-1.97-0.34zm53.54 1.56c1.45 0 3.97 14.7 7.06 41.03 2.93 24.99 12.09 88.89 16.06 112.03l3.44 20.16-5.16 5.06c-2.84 2.78-5.48 6.96-5.84 9.28-2.17 14.01-9.93-60.53-13.97-134.03-1.05-19.14-2.57-38.63-3.34-43.28-1.37-8.22-1-10.25 1.75-10.25zm34.59 0.81c-0.32-0.12-0.56 0.91-0.56 2.75 0 2.45 0.41 3.45 0.9 2.22 0.5-1.23 0.5-3.21 0-4.44-0.12-0.3-0.23-0.49-0.34-0.53zm-65.94 0.25c-0.23 0.14-0.37 2.35-0.37 6.06 0 5.4 0.34 7.61 0.75 4.91s0.41-7.11 0-9.81c-0.13-0.85-0.27-1.22-0.38-1.16zm-116.22 2.85c-0.36 0.13-0.59 1.05-0.53 2.46 0.09 2.08 0.53 2.52 1.1 1.1 0.51-1.29 0.43-2.85-0.16-3.44-0.15-0.15-0.28-0.17-0.41-0.12zm130.6 0.84c-0.2 0.34-0.32 5.77-0.31 14.87 0 13.25 0.28 18.66 0.62 12.03 0.34-6.62 0.34-17.46 0-24.09-0.11-2.07-0.22-2.96-0.31-2.81zm-112.1 3.03c-0.62-0.06 0.7 3.47 3.13 8.25 2.58 5.1 5.09 8.91 5.56 8.44 1.06-1.06-6.18-15.17-8.53-16.63-0.06-0.03-0.11-0.06-0.16-0.06zm164 1.5c-0.26 0.11-0.66 0.59-1.18 1.41-0.96 1.47-1.74 3.74-1.75 5.03-0.02 1.28 0.76 1.82 1.75 1.22 0.98-0.61 1.76-2.85 1.75-5-0.02-1.99-0.12-2.84-0.57-2.66zm-210.59 3.72c-0.51 0.13-0.68 5.41-0.62 16.87 0.05 12.02 0.77 21.85 1.59 21.85 1.9 0 1.73-27.18-0.22-36.57-0.3-1.46-0.55-2.2-0.75-2.15zm147.62 3.37c-0.36 0.14-0.58 1.09-0.53 2.5 0.09 2.08 0.53 2.49 1.1 1.07 0.51-1.29 0.43-2.82-0.16-3.41-0.15-0.15-0.28-0.2-0.41-0.16zm-117.71 5.04c-0.39 0-0.69 1.21-0.69 2.68s0.77 2.66 1.72 2.66 1.25-1.19 0.68-2.66c-0.56-1.47-1.33-2.68-1.71-2.68zm156.81 0.93c0.16 0.19 0.77 3.32 1.94 9.75 1.33 7.36 3.81 23.04 5.5 34.82 1.69 11.77 4.53 27.03 6.31 33.9s4.22 17.3 5.41 23.19c2.42 12.07 4.29 15.15 9.12 15.15 5.04 0 3.98 4.09-1.91 7.44-4.26 2.43-5.42 4.53-6.37 11.6-1.24 9.18-2.29 13.47-2.53 10.37-0.08-0.99-2.52-16.64-5.44-34.78-8.54-53.01-9.08-57.07-9.78-75.81-0.37-9.82-1.12-22.65-1.69-28.53-0.42-4.37-0.64-6.8-0.56-7.1zm-239.34 0.85c1.887 0 3.885 1.18 4.437 2.62 0.553 1.44-0.056 7.58-1.374 13.66l-2.407 11.06-3.219-8.97c-3.765-10.5-2.674-18.37 2.563-18.37zm191.24 1.9c-0.13 0.08-0.3 0.35-0.5 0.78-0.88 1.97-1.68 7.52-1.74 12.35-0.18 11.93 0.97 9.78 2.28-4.31 0.56-6.08 0.55-9.13-0.04-8.82zm3.88 0.28c-0.24 0.12-0.41 1.91-0.41 4.94 0 4.42 0.36 6.24 0.79 4.03 0.42-2.21 0.42-5.82 0-8.03-0.14-0.69-0.27-0.99-0.38-0.94zm-187.19 0.44c0.538-0.04 1.362 0.33 2.563 0.97 2.478 1.33 3.339 3.22 2.813 6.13-0.42 2.31-1.281 8.88-1.907 14.62-0.625 5.74-1.486 12.45-1.937 14.91-0.82 4.45-0.817 4.45 3.5-0.72 4.059-4.87 7.492-16.22 4.312-14.25-0.804 0.49-1.469 2.59-1.468 4.65 0 2.07-0.442 3.31-1 2.75-1.456-1.45 3.035-23.44 5.062-24.78 2.857-1.88 8.42 0.48 8.41 3.56-0.01 1.61-1.23 13.33-2.722 26.04-1.497 12.7-2.977 23.35-3.282 23.65-0.722 0.73-16.017-18.84-18.687-23.9-1.601-3.04-1.459-6.22 0.625-14.22 1.475-5.67 2.687-12.57 2.687-15.35 0-2.81 0.136-3.98 1.031-4.06zm162.44 1.6c-0.69-0.11-1.94 1.21-2.97 3.21-2.04 3.99-1.99 4.04 1.1 1.1 1.77-1.7 2.72-3.59 2.12-4.19-0.07-0.07-0.15-0.11-0.25-0.12zm-86.09 1.46c-0.37 0.14-0.59 1.09-0.54 2.5 0.09 2.08 0.53 2.49 1.1 1.07 0.51-1.29 0.44-2.82-0.16-3.41-0.15-0.15-0.28-0.2-0.4-0.16zm79.75 7.66c-0.1 0.02-0.17 0.06-0.29 0.12-0.88 0.55-1.62 2.18-1.62 3.6 0 3.69 1.22 3.16 2.31-1 0.45-1.72 0.24-2.84-0.4-2.72zm93.53 4.91c0.11-0.05 0.24 0.24 0.37 0.93 0.43 2.21 0.43 5.83 0 8.04-0.42 2.2-0.78 0.38-0.78-4.04 0-3.03 0.17-4.82 0.41-4.93zm3.62 0.09c0.58 0.13 2.61 1.28 4.94 2.81l4.84 3.19-4.25 4-4.25 4-0.87-6.81c-0.47-3.75-0.71-6.96-0.56-7.16 0.01-0.02 0.07-0.05 0.15-0.03zm-238.62 0.06c-0.53 0.07-2.086 7.44-5.813 27.03-0.609 3.2-0.351 4.61 0.625 3.57 1.824-1.96 5.662-22.95 5.406-29.54-0.027-0.7-0.096-1.07-0.218-1.06zm13.722 0.94c-0.26 0.09-0.44 1.48-0.44 3.84 0 3.44 0.39 4.85 0.84 3.13s0.45-4.53 0-6.25c-0.14-0.54-0.29-0.76-0.4-0.72zm124.65 2.75c-0.16 0-0.37 0.06-0.62 0.22-0.97 0.6-1.75 1.86-1.75 2.78 0 2.57 1.28 2 2.47-1.09 0.45-1.19 0.38-1.9-0.1-1.91zm23.44 0.81c-0.25 0.09-0.44 1.48-0.44 3.85 0 3.43 0.37 4.84 0.81 3.12 0.45-1.72 0.45-4.53 0-6.25-0.14-0.54-0.25-0.76-0.37-0.72zm4.5 2.06c-0.98 0-1.78 0.87-1.78 1.91s0.8 1.39 1.78 0.78c0.98-0.6 1.78-1.47 1.78-1.9 0-0.44-0.8-0.78-1.78-0.79zm21.5 1.79c-1.19 0-1.68 10.55-1.41 30.34 0.24 16.68 1.05 30.31 1.78 30.31 1.32 0.01 2.33-12.62 1.72-21.4-0.17-2.46-0.3-12.28-0.28-21.85 0.02-10.71-0.68-17.4-1.81-17.4zm-22.59 3.9c-0.37 0.14-0.59 1.09-0.54 2.5 0.09 2.08 0.5 2.49 1.07 1.07 0.51-1.29 0.47-2.82-0.13-3.41-0.15-0.15-0.28-0.2-0.4-0.16zm-134.97 5.78c-0.76 0.16-1.31 2.49-1.31 5.69 0 3.66 0.53 6.12 1.18 5.47 1.93-1.93 2.27-9.98 0.47-11.09-0.11-0.07-0.23-0.09-0.34-0.07zm206.34 1.38c0.12-0.05 0.26-0.02 0.41 0.12 0.59 0.6 0.64 2.15 0.12 3.44-0.57 1.42-0.97 0.99-1.06-1.09-0.06-1.41 0.17-2.34 0.53-2.47zm-109.94 10.47c-0.3 0.11-0.96 0.6-1.97 1.44-1.63 1.34-2.96 3.17-2.96 4.03 0 2.72 1.57 1.68 3.78-2.47 1.21-2.28 1.66-3.18 1.15-3zm-197.37 12.47c-0.157-0.04-0.25 0.1-0.25 0.43-0.001 1.76 1.672 6.46 3.719 10.47 5.179 10.16 6.515 24.88 2.75 30.25-5.137 7.34-2.616 20.13 5.25 26.66 1.67 1.39 4.553 6.05 6.406 10.37 1.853 4.33 3.798 7.42 4.344 6.88 0.545-0.55 0.123-2.61-0.938-4.59-1.061-1.99-1.906-4.46-1.906-5.5 0-2.41 6.557-2.52 8.031-0.13 0.606 0.98 1.956 1.78 3 1.78 1.172 0 1.007-1.05-0.406-2.75-1.912-2.3-1.658-3.18 1.562-5.44 2.119-1.48 3.875-3.62 3.875-4.72 0-1.09-1.885-0.22-4.156 1.91-6.399 6.01-14.035 5.1-20.656-2.44-6.061-6.9-7.068-13.84-2.813-19.47 4.616-6.1 3.37-22.28-2.719-35.15-2.391-5.06-4.412-8.42-5.093-8.56zm100.5 0.75c-0.32-0.12-0.56 0.88-0.56 2.72 0 2.45 0.41 3.47 0.9 2.24 0.5-1.22 0.5-3.24 0-4.46-0.12-0.31-0.23-0.46-0.34-0.5zm-19.88 3.4c-0.16 0-0.37 0.06-0.62 0.22-0.97 0.6-1.75 1.86-1.75 2.78 0 2.57 1.28 2 2.47-1.09 0.45-1.19 0.39-1.9-0.1-1.91zm106.04 1.56c-0.4-0.06-1.05 0.46-1.85 1.5-1.19 1.57-4.59 4.13-7.53 5.72-3.17 1.71-4.17 2.93-2.47 2.97 3.61 0.09 12.3-6.62 12.22-9.43-0.01-0.47-0.14-0.72-0.37-0.76zm-166.41 5.5c0.28-0.02 0.645 0.21 1.093 0.66 1.412 1.41 1.435 2.89 0.063 5.25-1.679 2.89-1.921 2.65-1.969-1.97-0.027-2.64 0.196-3.88 0.813-3.94zm5.562 2.97c0.386 0 0.688 1.22 0.688 2.69s-0.768 2.66-1.719 2.66-1.284-1.19-0.719-2.66 1.365-2.69 1.75-2.69zm2.469 1l3.594 3.57c3.466 3.46 3.505 3.91 0.656 12.46-1.622 4.87-3.756 9.84-4.719 11.07-0.962 1.22-2.921 2.25-4.343 2.25-2.101 0-2.338-1.95-1.344-10.28 0.673-5.65 1.933-11.03 2.812-11.97 1.459-1.57 0.511 12.58-1.218 18.22-0.377 1.22 0.015 2.21 0.843 2.21 1.979 0 3.719-9.09 3.719-19.34v-8.19zm18.031 3.13c-0.43 0.18 0.111 2 1.75 5.06 1.061 1.98 2.333 3.2 2.844 2.69s-0.334-2.79-1.906-5.03c-1.418-2.03-2.353-2.86-2.688-2.72zm14.313 5.16c-2.008 0-5.563 1.97-5.563 3.46 0 0.92 1.671 0.76 3.719-0.34 2.047-1.1 3.372-2.35 2.938-2.78-0.235-0.24-0.631-0.35-1.094-0.34zm-46.25 5c-0.853 0-1.684 2.81-1.813 6.24-0.129 3.44 0.406 6.22 1.157 6.22 0.75 0 1.549-2.78 1.781-6.22 0.231-3.43-0.272-6.24-1.125-6.24zm242.1 3.56c-2.16 0-1.99 3.08 0.56 10.12 1.18 3.26 2.86 5.94 3.75 5.94s1.02-1.41 0.28-3.12c-0.73-1.72-1.72-5.34-2.19-8.04-0.46-2.69-1.53-4.9-2.4-4.9zm-102.63 0.34c-0.36 0.14-0.59 1.06-0.53 2.47 0.09 2.08 0.53 2.52 1.09 1.09 0.52-1.28 0.44-2.84-0.15-3.43-0.15-0.15-0.29-0.17-0.41-0.13zm1.53 7.47c-0.05 0.01-0.1 0.03-0.15 0.06-0.85 0.53-1.16 2.99-0.69 5.47 1.17 6.12 2.22 5.66 2.22-0.97 0-2.81-0.6-4.76-1.38-4.56zm79.22 0c-2.96-0.05-14.95 8.64-17.78 13.41-1.81 3.05-2.58 5.53-1.72 5.53s3.01-2.44 4.78-5.44c1.78-3 5.97-6.78 9.32-8.37 3.34-1.6 6.06-3.64 6.06-4.54 0-0.4-0.23-0.58-0.66-0.59zm-153.43 5.28c-0.57 0.4-2.48 6.49-4.41 14.19-2.061 8.21-4.271 16.49-4.939 18.37-0.832 2.35-0.648 2.85 0.625 1.63 2.022-1.94 10.024-32.98 8.814-34.19-0.03-0.02-0.06-0.03-0.09 0zm178.24 5.81c-0.59 0.01-1.52 0.37-2.74 1.13-1.97 1.22-3.57 2.85-3.57 3.59 0 2.04 2.59 1.64 5-0.78 2.35-2.34 2.63-3.96 1.31-3.94zm-242.78 1.41c0.962 0.08 2.663 1.19 5.031 3.47 3.227 3.1 5.591 6.26 5.25 7-1.271 2.74-5.431 1.19-8.219-3.06-3.164-4.83-3.667-7.55-2.062-7.41zm150.1 10.03c1.39 0 2.53 1.51 2.53 3.38 0 4.25-8.71 7.67-13.16 5.18-1.68-0.94-5.46-1.17-8.4-0.53-3.33 0.73-6.38 0.34-8.07-1.06-2.21-1.84-3.62-1.72-7.59 0.63-2.68 1.58-5.84 2.27-7 1.56-1.16-0.72-7.68-1.16-14.5-0.97-6.82 0.18-13.35 0.91-14.5 1.62-1.59 0.99-1.6 0.41-0.06-2.47 2.22-4.16 8.84-5.06 12.25-1.65 1.66 1.66 2.61 1.66 4.28 0 3.04-3.04 11.57-2.64 12.81 0.59 0.88 2.3 1.57 2.15 4.63-0.9 4.11-4.12 7.31-4.57 10.4-1.47 1.42 1.41 2.13 1.5 2.13 0.22 0-1.07 2.57-2.32 5.72-2.79 4.26-0.62 6.48 0.08 8.65 2.76 2.84 3.5 7.03 2.97 7.03-0.88 0-1.2-0.96-1.06-2.65 0.34-1.55 1.28-2.69 1.45-2.69 0.41 0-1.97 4.15-3.97 8.19-3.97zm9.12 0.5c0.72-0.01 1.55 0.74 3.06 2.25 2.9 2.89 3.58 2.93 7.91 0.44 4.68-2.69 9.19-2.52 9.19 0.34 0 0.81-3.47 2.65-7.72 4.1-6.98 2.38-7.91 2.37-9.56-0.25-1.56-2.48-2.25-2.55-4.75-0.47-3.52 2.92-3.89 0.41-0.6-4.1 1.13-1.54 1.75-2.3 2.47-2.31zm43.35 1.19c4.91-0.01 10.69 0.98 11.37 2.75 0.57 1.47 1.93 2.69 3.06 2.69 1.55 0 1.56-0.63 0.04-2.47-3.02-3.63 6.9-3.35 11.03 0.31 2.66 2.36 4.16 2.49 9.06 0.72 8.19-2.96 9.19-2.75 11.59 2.53 3.21 7.04-0.26 10.26-9.65 8.97-8.29-1.14-12.78 1.42-9.47 5.41 1.43 1.72 1.41 2.37-0.1 2.37-2.83 0-4.32-4.55-3.09-9.44 0.9-3.57 1.92-3.96 8.44-3.34 5.06 0.48 6.64 1.19 4.97 2.25-1.86 1.17-1.58 1.56 1.12 1.56 1.96 0 4.78-0.79 6.25-1.72 2.36-1.49 2.31-2.03-0.28-4.62-2.31-2.31-4.05-2.57-8.03-1.22-3.27 1.1-6.88 1.08-10.13-0.03-3.49-1.2-5.64-1.11-7.03 0.28-2.88 2.88-6.8 2.47-9.31-0.97-2.01-2.75-2.73-2.77-9.34-0.12-6.18 2.47-7.65 2.52-10.72 0.37-3.06-2.14-4.02-2.13-6.91 0.06-4.93 3.74-5.98 3.23-3.66-1.78 2.41-5.17 7.82-5.82 11.13-1.34 1.97 2.66 2.65 2.75 4.66 0.62 1.67-1.78 1.68-2.15 0.09-1.25-1.23 0.7-2.22 0.42-2.22-0.62 0-1.36 3.3-1.96 7.13-1.97zm-73.13 1.87c-0.98 0-1.81 0.84-1.81 1.88s0.83 1.39 1.81 0.78 1.78-1.44 1.78-1.88c0-0.43-0.8-0.78-1.78-0.78zm125.78 3.57c1.89 0 2.66 1.89 2.66 6.43 0 5.16-1.32 7.67-6.6 12.5-3.62 3.33-7.24 6.03-8.03 6.04-2.04 0-1.75 17.48 0.41 25.28 1.81 6.53 8.7 16.61 8.81 12.9 0.04-1.07-1.11-4.27-2.53-7.12s-2.93-8.39-3.34-12.32c-0.42-3.92-0.38-5.67 0.06-3.87 0.77 3.11 0.99 3.1 4.25 0.16 1.88-1.71 3.41-4.24 3.41-5.63s1.21-3.71 2.68-5.19c1.48-1.47 2.78-5.64 2.91-9.25 0.47-12.83 3.02 10.15 3.19 28.69 0.15 17.13-0.61 19.49-4.85 15.25-3.5-3.5-2.45 0.1 1.66 5.66 2.38 3.22 4.11 8.74 4.59 14.65 0.43 5.22 1.55 11.53 2.5 14.03 1.25 3.29 1.04 5.91-0.75 9.35-2.85 5.49-5.3 4.58-3.12-1.16 2.05-5.4-0.38-28.67-3.38-32.28-1.37-1.65-4.64-4.09-7.25-5.44-3.04-1.57-6.46-6.31-9.56-13.21-4.15-9.24-4.76-12.72-4.31-24.63 0.46-12.24 0.94-13.93 4.09-14.5 5.69-1.04 9.81-5.79 9.82-11.28 0-3.32 0.93-5.06 2.68-5.06zm-120.25 3.56c2.75 0 3.33 1.24 3.16 6.69-0.12 3.68-0.55 5.28-1 3.56-1.12-4.28-4.13-3.93-4.13 0.47 0 1.96 0.8 3.56 1.78 3.56 3.52 0 0.14 60.04-5.37 95.44-0.92 5.89-2.13 18.75-2.69 28.56s-1.32 21.04-1.72 24.97c-0.57 5.63-0.41 6.2 0.78 2.69 0.84-2.46 2.43-15.32 3.57-28.57 1.14-13.24 2.84-26.87 3.78-30.31 0.94-3.43 2.46-13.86 3.37-23.19 1.35-13.77 1.5-9.95 0.88 20.5-0.42 20.61-1.3 51.13-1.94 67.82-0.64 16.68-0.72 29.92-0.22 29.43 2.11-2.05 5.44-97.54 5.1-145.87l-0.38-52.19h4.75 4.75l-0.66 56.13c-0.43 38.91-0.03 56.71 1.32 58.06 3.71 3.71 5.29-2.4 4.37-16.94l-0.87-14.28-1.06 15.16-1.04 15.18-0.34-16.5c-0.27-13.47 0.14-16.5 2.28-16.5 1.44 0 2.29-1.02 1.84-2.25-0.44-1.22-1.1-19.64-1.46-40.9-0.62-35.79-0.45-38.71 2.46-39.47 1.97-0.51 3.47 0.32 3.97 2.25 0.91 3.46-1.48 123.54-3.03 152.09-0.54 10.1-1.4 29.22-1.94 42.47-1.15 28.98-3.8 70.12-6.28 98.13-0.99 11.28-2.18 24.91-2.65 30.31-0.48 5.4-1.68 22.26-2.69 37.47s-2.24 32.48-2.72 38.37c-1.54 18.95-4.67 53.41-5.28 58-0.32 2.46-0.67 11.48-0.75 20.07l-0.13 15.59h-5.15c-8.78 0-9.49-2.6-8.44-30.66 0.53-14.04 0.65-24.31 0.25-22.84s-1.26 12.94-1.9 25.5c-0.79 15.3-1.82 22.62-3.13 22.19-2.76-0.93-1.5-67.45 2.31-120.85 0.88-12.26 1.56-29.13 1.53-37.47l-0.06-15.18-2.62 14.28c-1.45 7.85-2.35 16.81-2 19.94 0.34 3.12-0.01 5.29-0.79 4.81-0.77-0.48-1.4 0.37-1.4 1.9s0.99 2.8 2.22 2.82c1.53 0.02 1.43 0.53-0.35 1.65-2.72 1.72-4.45 18.87-2.25 22.32 2.22 3.47 1.36 11.68-1.22 11.68-2.03 0-2.27-4.32-1.43-24.53 1.06-25.52 5.78-100.01 7.34-115.53 0.49-4.91 1.37-18.15 1.91-29.44 0.54-11.28 2.54-51.44 4.44-89.22 1.89-37.78 3.85-82.82 4.37-100.12s1.45-32.75 2.06-34.34c0.61-1.6 2.64-2.91 4.5-2.91zm-29.69 0.28c0.04 0 0.04 0 0.07 0.03 0.43 0.44 0.01 5.58-0.94 11.41-1.63 9.97-2.58 102.13-1.03 100.53 0.39-0.41 1.27-24.01 1.97-52.47 0.69-28.46 2.01-52.97 2.9-54.44 1.06-1.74 1.24-0.32 0.5 4.03-0.74 4.4-0.45 6.69 0.85 6.69 1.09 0 1.98-2.21 2-4.91 0.01-2.69 0.89-6.12 1.94-7.59 1.39-1.97 1.64-0.32 0.9 6.25-2.34 21.02-8.3 100.89-9.9 132.94-2.82 56.12-8.92 166.07-9.76 175.75-2.13 24.8-4.81 61.52-7.4 101.69-1.58 24.53-3.29 49.01-3.78 54.4-0.91 9.88-2.82 14.29-4.82 11.06-0.59-0.95 0.12-19.68 1.57-41.62 5.47-82.92 8.03-130.42 7.81-144.69l-0.22-14.75-1.4 12.47c-0.78 6.87-2.38 28.95-3.57 49.06-2.76 46.76-2.93 49.85-3.25 66.79-0.15 7.76-0.6 13.77-1.03 13.34-1.42-1.42-2.8-39.06-1.44-39.06 0.74 0 1.4-2.21 1.5-4.91 0.99-25.07 7.07-110.44 7.5-105.25 0.31 3.7 1.33 6.26 2.25 5.69 0.96-0.59 1.5-12.72 1.28-28.13-0.19-13.5-0.31-20.11-0.43-20.62-0.12 0.58-0.26 5.58-0.5 14.5-0.31 11.53-1.14 20.93-1.85 20.94-0.7 0-0.91-13.44-0.46-29.88 0.44-16.44 1.09-26.07 1.43-21.41 0.35 4.67 1.39 8.47 2.31 8.47 1.02 0 1.75-21.72 1.85-54.87 0.09-30.18 0.38-58.46 0.65-62.88 0.28-4.41 0.78-18.87 1.1-32.12l0.56-24.1 1.1 20.53c0.9 17.32 1.14 13.98 1.59-21.4 0.29-23.06 1.24-43.95 2.09-46.41 1.11-3.2 1.24-2.23 0.5 3.38-1.32 10.06 2.03 8.43 3.66-1.78 0.61-3.83 1.44-6.68 1.9-6.66zm101.57 0.25c0.51-0.04 1.38 3.01 2 7.12 0.66 4.4 0.89 9.48 0.5 11.32-0.4 1.83-1.37-1.34-2.13-7.06-0.76-5.73-0.96-10.82-0.47-11.32 0.03-0.03 0.06-0.06 0.1-0.06zm-120.5 0.09c4.29-0.07 9.19 1.33 9.19 3.13 0 0.87-0.23 1.49-0.47 1.34-0.25-0.14-4.06-0.76-8.47-1.37-6.56-0.91-7.31-1.38-4.16-2.5 1.1-0.39 2.48-0.57 3.91-0.6zm34.15 0.25c0.23 0.03 0.45 0.19 0.63 0.47 0.66 1.07 0.36 4.06-0.63 6.66-2.44 6.43-2.23 8.06 0.91 8.06 1.86 0 2.66-1.89 2.66-6.15 0-3.38 0.8-6.62 1.78-7.22 2.14-1.33 2.15 0.97 0.03 11.59-0.88 4.42-1.77 24.48-1.97 44.59-0.2 20.12-1.36 53.04-2.59 73.16-1.24 20.12-3.17 55.05-4.28 77.62-1.12 22.58-3.14 56.3-4.54 74.94-1.39 18.65-3.03 43.92-3.62 56.19s-1.39 26.08-1.78 30.69c-0.4 4.6-1.62 31.09-2.72 58.87-1.75 43.98-2.32 54.23-3.31 60.75-0.31 2.02-14.1 1.63-15.38-0.44-0.61-0.99-0.71-3.19-0.22-4.9s2.19-24.4 3.75-50.41c1.56-26 4.02-63.72 5.47-83.84 3.09-43.01 6.58-102.03 11.53-194.5 3.18-59.37 5.52-92.5 7.91-112.41 0.41-3.43 0.42 8.07 0.03 25.56-0.55 24.61-0.23 31.67 1.47 31.1 1.48-0.5 2.13-4.78 2-13.1-0.96-60.31-0.81-80.73 0.62-84.43 0.74-1.92 1.58-2.94 2.25-2.85zm56.78 0.1c0.13-0.01 0.26 0.07 0.41 0.22 3.79 3.73 5.58 34.49 4.66 80-1.61 79.48-9.29 254.88-13.72 313.12-1.01 13.25-2.46 41.01-3.25 61.69s-1.98 38.43-2.63 39.47c-1.92 3.11-8.07 3.9-10.21 1.31-1.11-1.33-1.56-4.64-1-7.37 0.55-2.74 1.84-16.06 2.87-29.57 1.03-13.5 2.18-27.93 2.59-32.09 2.39-24.09 3.01-49.86 1.16-48.72-1.14 0.71-1.96 6.62-1.97 14.06-0.01 13.45-4.51 78.73-6.31 91.78-2.66 19.23-3.63 2.62-3.31-56.22 0.3-55.39 2.39-104.7 5.21-122.65 1.5-9.52 6.04-87.82 8.1-140.06 1.1-27.97 2.65-59.68 3.47-70.47 2.31-30.66 0.18 92.96-2.72 157-2.77 61.09-3.71 105.69-2.25 107.15 0.52 0.53 1.5-20.16 2.16-45.97 0.65-25.8 2.41-68.18 3.93-94.18 2.07-35.46 2.55-68.61 1.94-132.5-0.74-77.12 0.03-96.27 3.19-79.38 0.59 3.19 1.63 24.81 2.31 48.03 1.13 38.73 2.02 46.76 4.94 43.85 1.67-1.67 1.76-31.66 0.19-67.35-1.02-23.05-0.98-31.05 0.24-31.15zm18.63 1.56c4.27 0.1 5.23 44.13 2.06 98.88-1.93 33.37-1.51 43.65 1.69 42.59 3.02-1 5.59-100.67 3.16-122.5-1.8-16.14-1.47-24.83 0.46-12.31 0.51 3.29 1.39 9.01 1.97 12.72 0.59 3.7 1.85 6.26 2.79 5.68 1.63-1.01 2.34 32.97 1.81 84.82-0.39 37.26-8.11 240.45-9.94 261.5-0.52 5.95-0.98 30.04-1.06 53.53-0.08 23.48-0.7 48.31-1.35 55.18l-1.15 12.5-6.25 0.47c-10.33 0.77-11.39-0.96-9.85-15.9 2.39-23.04 4.25-76.57 6.07-173.69 0.97-52.01 2.23-104 2.81-115.53s0.35-20.97-0.5-20.97c-1.45 0-3 56.25-4.59 165.94-0.63 43.29-2.68 93.36-5.66 137.84l-1.16 17.37-5.62-0.24c-4.2-0.19-4.6-0.43-1.6-1 3.64-0.71 4.05-1.89 4.38-12.69 0.48-15.9-0.9-44.03-2.16-44.03-0.14 0-0.55-1.57-0.9-3.47-0.87-4.66 0.99-7.32 3-4.31 1.02 1.52 1.13 0.44 0.31-2.94-2.01-8.26-1.49-39.06 1.75-104.38 1.63-32.87 4.2-92.7 5.72-132.94 3.25-86.08 3.8-92.74 4.15-50.4 0.15 17.42 0.89 31.69 1.66 31.69 1.63 0 1.4-116.72-0.28-145.41-0.86-14.62-0.67-18.5 0.75-15.19 1.04 2.45 2.7 18.08 3.66 34.75 0.95 16.67 2.41 31.01 3.28 31.88 4.19 4.2 4.33-48.38 0.15-62.94-0.88-3.08-0.89-5.82 0-6.38 0.15-0.08 0.3-0.12 0.44-0.12zm-122.41 0.44c1.61 0 3.41 0.48 5.35 1.5 2.78 1.45 7.49 2.77 10.43 2.9 3.92 0.19 2.97 0.66-3.56 1.82-4.9 0.86-10.53 1.76-12.5 2-1.96 0.23-4.44 1.02-5.53 1.72-1.32 0.85-1.69-0.21-1.12-3.19 0.84-4.41 3.4-6.76 6.93-6.75zm148.6 0.59c1.04 0 1.9 0.8 1.9 1.78s-0.38 1.78-0.81 1.78-1.27-0.8-1.87-1.78c-0.61-0.98-0.26-1.78 0.78-1.78zm-8.19 1.85c0.93-0.4 3.24 6.31 4.72 16 3.27 21.53 4.35 210.65 1.87 329.21-1.21 57.91-2.48 108.08-2.81 111.5-0.33 3.43-0.65 12.05-0.72 19.16-0.11 12.44-0.28 12.94-4.4 12.94-4.07 0-4.27-0.46-3.63-9.35 0.37-5.15 1.04-20.15 1.47-33.31 0.61-18.99 0.25-24.44-1.75-26.44-2.16-2.16-2.5 0.61-2.5 19.91 0 13.15-0.71 22.44-1.72 22.44-1.05 0-1.34-8.22-0.72-21.44 0.73-15.6 0.41-22.18-1.18-24.09-1.34-1.62-1.45-2.66-0.32-2.66 1.05 0 2.1-5.39 2.44-12.47 0.33-6.87-0.01-12.5-0.75-12.5s-1.34-1.25-1.34-2.78 0.8-2.29 1.78-1.69c1.04 0.65 1.81-1.16 1.81-4.34 0-3-0.83-5.47-1.81-5.47s-1.69-2.21-1.6-4.91l0.19-4.9 1.5 4.47c1 2.95 1.29-0.06 0.88-8.91-0.35-7.36 0.06-27.45 0.9-44.63 0.84-17.17 2.44-57.32 3.56-89.21 4.15-117.31 5.06-124.12 4.29-32.1-0.41 48.58-1.25 93.11-1.88 99-0.81 7.65-0.6 10.22 0.78 8.94 1.31-1.22 2.61-39.73 3.97-119.56 1.93-113.21 1.48-138.97-3.03-175.72-0.58-4.71-0.49-6.89 0-7.09zm-197.94 1.81c1.591-0.14 2.844 0.66 2.844 2.37 0 1.36-2.015 2.88-4.468 3.35-4.865 0.93-5.648-0.32-2.313-3.66 1.267-1.27 2.7-1.96 3.937-2.06zm20.188 0.69c0.04 0 0.098 0.03 0.125 0.06 0.428 0.43-1.002 3.61-3.156 7.09-5.34 8.64-6.583 8.04-1.625-0.78 2.062-3.67 4.059-6.4 4.656-6.37zm55.75 3.65c1.67-0.23 1.83 3.38 1.06 17.44-1.7 30.99-2.84 53.1-6.53 126.22-1.06 21.1-2.22 42.37-2.56 47.28s-1.07 21.77-1.63 37.47c-1.01 28.41-1.84 44.18-3.71 71.37-2.88 41.67-6.44 107.02-7.26 132.94-0.5 16.19-1.09 32.64-1.31 36.56-0.31 5.61-1.17 7.23-3.93 7.57-6.46 0.78-9.988-2.79-8.942-9.04 0.522-3.12 1.782-23.73 2.782-45.81s2.18-46.17 2.62-53.53c1.68-27.9 2.8-80.83 3.69-175.16 0.51-53.64 1.69-107.01 2.63-118.62 2.92-36.43 5.17-54.76 7.78-63.06l2.53-8.04 0.15 8.04c0.09 4.41-1.04 19.29-2.5 33.03-1.45 13.74-2.7 31.78-2.74 40.12-0.05 8.34-1.11 23.8-2.35 34.35s-1.6 19.18-0.81 19.18 1.5 1.41 1.56 3.13c0.1 2.65 0.33 2.59 1.56-0.44 3.12-7.69 8.83-81.58 6.1-78.84-0.8 0.8-1.94 11.23-2.53 23.19l-1.07 21.74-0.28-17.84c-0.14-9.81 0.55-23.4 1.53-30.19 0.98-6.78 2.47-22.25 3.32-34.4 0.84-12.16 2.05-22.61 2.65-23.22 3.01-3.01 3.27 3.62 1.19 29.37-1.25 15.46-1.98 31.33-1.63 35.25 0.53 5.87 4.21-33.08 5.5-58.37 0.19-3.69 1.4-7.08 2.76-7.6 0.12-0.04 0.26-0.07 0.37-0.09zm132.19 2.47c0.27-0.08 0.64 0.13 1.12 0.53 1.29 1.07 2.35 3.31 2.35 5s1.11 5.43 2.47 8.28c1.39 2.93 2.9 14.08 3.5 25.69 0.57 11.29 2.24 37.78 3.68 58.88 1.44 21.09 3.23 50.4 3.97 65.12 1.46 28.85 1.07 311-0.44 313.44-1.19 1.92-8.06 1.85-11.18-0.13-1.82-1.15-2.19-4.04-1.41-11.12 0.58-5.27 1.43-31.26 1.88-57.75l0.78-48.19-1.66 38.37c-2.95 68.4-3.65 78.5-5.59 78.5-1.29 0-1.47-14.84-0.57-47.71 1.74-63.26 2.75-143.27 3.13-246.66 0.34-94.86 1.92-83.69 4.28 30.31 0.78 37.78 1.98 65.07 2.66 60.66 1.5-9.84 0.53-76.1-1.91-130.25-1-22.08-2.66-58.59-3.69-81.16-1.02-22.57-2.46-46.05-3.22-52.15-0.83-6.8-0.96-9.43-0.15-9.66zm-162.35 1.5c1.26-0.04 2.47 0.53 3.88 1.81 1.92 1.74 3.12 2.05 3.12 0.78 0-1.13 1.22-2.06 2.69-2.06 5.26 0 2.55 4.87-4.47 8.03-3.92 1.77-7.12 4.3-7.12 5.63 0 2.97 2.16 3.08 4.97 0.28 3.53-3.53 4.41-0.27 1.25 4.56-3.04 4.64-2.18 9.28 1.31 7.13 2.08-1.29 0.99 24.33-1.28 30.03-1.45 3.63-9.815 9.44-9.815 6.81 0-1.02 0.8-3.26 1.781-4.97 0.984-1.7 2.584-5.33 3.564-8.09s2.58-4.52 3.56-3.91c2.58 1.6 2.35 0.18-3.56-20.31-6.244-21.64-6.365-22.67-2.25-24.97 0.85-0.47 1.62-0.73 2.37-0.75zm169.47 0.53c1.04 0 1.39 0.85 0.75 1.88-0.63 1.02-0.17 3.04 1.03 4.5 2.7 3.24 1.37 5.08-1.56 2.15-2.62-2.62-2.77-8.53-0.22-8.53zm-225.65 0.56c1.211-0.16 2.485 0.85 3.032 2.94 0.523 2 0.84 3.55 0.687 3.44-0.153-0.12-1.728-0.6-3.5-1.06s-2.955-1.7-2.594-2.79c0.518-1.55 1.433-2.4 2.375-2.53zm30.656 1.6c0.776-0.02 0.538 1.96-0.156 7.19-1.283 9.67-8.227 38.82-9.875 41.5-0.604 0.98-1.11 2.53-1.125 3.43-0.069 4.17-4.74 2.51-8-2.84-4.099-6.73-4.178-7.34-3.656-22 0.483-13.56 1.474-15.06 5.625-8.5 3.074 4.85 3.119 5.84 0.687 12.25l-2.624 6.97 0.968-9.38c0.633-6.06 0.295-9.37-0.937-9.37-1.169 0-1.907 4.84-1.907 12.5 0 6.87 0.444 12.47 0.969 12.47 1.569 0 7.154-14.33 10.594-27.16 1.769-6.6 4.841-13.41 6.813-15.16 1.328-1.17 2.159-1.89 2.624-1.9zm16.969 3.9c0.449-0.44 2.115 6.19 3.688 14.75 1.571 8.57 2.661 15.78 2.441 16-0.96 0.96-9.12-9.3-8.66-10.87 0.278-0.95 0.795-5.64 1.125-10.41 0.33-4.76 0.958-9.02 1.406-9.47zm-26.906 2.88c0.091 0 0.144 0.04 0.187 0.09 0.351 0.44-0.236 3.77-1.312 7.44-1.883 6.42-2.038 6.55-4.312 2.91-2.059-3.3-1.895-4.27 1.312-7.47 1.771-1.77 3.491-2.99 4.125-2.97zm22.281 0.03c1.204-0.13 1.768 2.29 1.094 6.66-1.316 8.52-1.864 9.06-3.844 3.81-0.966-2.56-0.949-5.54 0.032-7.41 1.054-2.01 1.996-2.98 2.718-3.06zm220.18 1.75c2.1 0 5.67 14.03 4.41 17.31-0.72 1.87-0.22 2.38 1.66 1.66 3.92-1.51 3.4 3.54-1.13 10.87-2.11 3.42-4.45 8.73-5.19 11.82-0.92 3.87-1.44 4.49-1.72 2.03-0.21-1.97-0.34-4.04-0.28-4.63 0.07-0.58 0.27-9.61 0.44-20.06s0.99-19 1.81-19zm-229.72 0.25l4.281 9.22c3.875 8.36 4.114 10.22 2.469 19.94-2.877 16.99-3.548 25.87-1.969 25.87 0.804 0 2.014-6.21 2.719-13.81 0.705-7.61 1.831-15.33 2.5-17.16 1.093-2.99 1.711-2.75 5.969 2.32l4.716 5.62-3.654 9.28c-2.008 5.11-6.755 13.31-10.562 18.22s-10.24 12.55-14.282 16.97l-7.343 8.03 1.062-15.97c0.59-8.85 3.981-27.68 7.594-42.25l6.5-26.28zm30.405 7.56c0.64 0.03 1.1 0.73 1.1 1.88 0 1.53-0.8 2.78-1.79 2.78-0.98 0-1.78-0.77-1.78-1.69s0.8-2.17 1.78-2.78c0.25-0.15 0.48-0.2 0.69-0.19zm-39.124 1.72c-1.131 0.29-3.939 11.6-5.031 20.78-0.678 5.7 0.044 4.16 2.5-5.34 1.902-7.36 3.185-14.18 2.844-15.16-0.077-0.22-0.196-0.31-0.313-0.28zm165.78 12.19c0.12-0.05 0.29 0.01 0.44 0.15 0.59 0.6 0.64 2.15 0.12 3.44-0.57 1.43-0.98 0.99-1.06-1.09-0.06-1.41 0.13-2.37 0.5-2.5zm-154.66 1.75c-0.177 0-0.424 0.1-0.719 0.28-1.029 0.64-2.295 2.77-2.812 4.75s-0.202 3.59 0.688 3.59c0.889 0 1.625-0.72 1.624-1.62 0-0.9 0.531-3.04 1.188-4.75 0.564-1.47 0.563-2.26 0.031-2.25zm195.88 4.09c0.1 0.04 0.22 0.23 0.34 0.53 0.49 1.23 0.49 3.21 0 4.44s-0.91 0.24-0.91-2.22c0-1.84 0.24-2.87 0.57-2.75zm5.37 5.47c0.89-0.29 2.87 9.55 4.31 24.94 4.02 42.97 9.07 122.2 10 157 2.57 95.61 5.13 220.61 4.72 230.12-0.25 5.87-1.42 11.29-2.59 12.04-1.18 0.74-2.73 1.36-3.47 1.37-0.74 0.02-1.35-31.1-1.38-69.13-0.02-38.02-0.42-79.97-0.87-93.21-0.45-13.25-1.21-43.74-1.72-67.79-0.78-36.99-5.49-131.63-9.09-182.9-0.6-8.47-0.44-12.27 0.09-12.44zm-204.94 6.22c-0.376 0-1.112 1.6-1.625 3.56-0.513 1.97-0.202 3.56 0.687 3.56 0.89 0 1.625-1.59 1.625-3.56 0-1.96-0.311-3.56-0.687-3.56zm201.44 2.75c0.11 0.01 0.22 0.43 0.35 1.28 0.41 2.71 0.39 6.71-0.04 8.91-0.42 2.19-0.73 0-0.72-4.91 0.01-3.37 0.17-5.3 0.41-5.28zm-14.22 4.63c0.1-0.11 0.2 0.51 0.31 1.96 0.37 4.67 0.37 12.31 0 16.97-0.36 4.66-0.65 0.86-0.65-8.47 0-6.41 0.13-10.23 0.34-10.46zm29.91 0.43c2.85 0.28 8.23 95.43 9.03 160.78 0.33 26.5 0.04 58.62-0.63 71.38-0.88 16.84-1.22 7.31-1.21-34.78 0-68.26-1.54-111.48-6.19-171.88-1.05-13.56-1.56-25-1.13-25.43 0.05-0.05 0.08-0.07 0.13-0.07zm-189.69 5.25c0.49-0.32 0.34 10.86-0.34 24.85-0.68 13.98-1.23 49.11-1.22 78.06 0.02 85.49-1.39 142.63-5.782 236.41-2.718 58.04-3.535 65.47-6.938 63.31-1.472-0.94-4.815-1.74-7.438-1.75h-4.781l0.781-12.94c4.049-68.06 6.589-133.33 8.844-227.06 0.567-23.55 1.798-57.28 2.719-74.94s1.656-42.97 1.656-56.25v-24.13l5.809-2.5c3.19-1.36 6.2-2.74 6.69-3.06zm150.72 3.88l0.56 9.62c0.32 5.29-0.05 10.27-0.84 11.06-0.79 0.8-1.07-3.53-0.59-9.62l0.87-11.06zm24.81 6.78c0.44 0.18 1.33 9.51 2 21.22 0.69 12.08 0.96 24.37 0.6 27.31s-1.28-6.59-2.04-21.19c-0.75-14.6-1.02-26.88-0.59-27.31 0.01-0.01 0.02-0.04 0.03-0.03zm-214.78 29.78c0.092-0.09 0.804 0.45 2.219 1.56 1.717 1.35 3.125 2.76 3.125 3.13 0 1.47-1.45 0.53-3.781-2.44-1.11-1.41-1.655-2.16-1.563-2.25zm49.379 1.25c0.15 0.15 0.2 1.58 0.25 4.13 0.06 3.43-0.54 9.44-1.35 13.37-1.27 6.16-1.5 6.4-1.56 1.78-0.04-2.94 0.59-8.96 1.38-13.37 0.74-4.21 1.08-6.11 1.28-5.91zm179.93 0.53c0.11-0.07 0.22 0.35 0.35 1.34 0.39 3.19 0.39 8.41 0 11.6-0.4 3.19-0.72 0.6-0.72-5.78 0-4.39 0.15-7 0.37-7.16zm-103 5.47c-0.25-0.05-0.66 0.53-1.4 1.69-0.95 1.47-1.77 3.33-1.78 4.12-0.02 0.8 0.8 0.95 1.78 0.35 0.98-0.61 1.76-2.47 1.75-4.13-0.01-1.3-0.1-1.98-0.35-2.03zm-72.12 18.06c-0.37 0.14-0.59 1.09-0.53 2.5 0.08 2.08 0.52 2.52 1.09 1.1 0.52-1.29 0.44-2.85-0.15-3.44-0.15-0.15-0.29-0.2-0.41-0.16zm125.78 1.47c-0.85 0-1.56 0.73-1.56 1.63s-0.47 2.91-1.07 4.47c-0.59 1.55-0.28 2.81 0.69 2.81s2.16-1.99 2.63-4.44 0.16-4.47-0.69-4.47zm38.59 0.72c0.02-0.02 0.04 0.03 0.07 0.16 1.35 7.23 4.37 100.08 5.31 163.28 0.53 35.82 1.3 86.78 1.69 113.28 0.38 26.49 0.04 51.39-0.75 55.31-1.03 5.05-1.58-1.47-1.94-22.31-0.39-22.31-0.8-26.63-1.69-17.84l-1.19 11.62-0.28-13.06c-0.23-10.02 0.2-12.72 1.91-11.69 1.51 0.91 1.44 0.36-0.22-1.69-1.73-2.13-1.83-3.03-0.34-3.03 1.16 0 1.63-0.77 1.03-1.75-0.61-0.97-0.93-18.44-0.72-38.81s0.2-39.85 0-43.28c-0.2-3.44-0.59-30.34-0.88-59.78-0.28-29.44-0.99-71.58-1.56-93.66-0.54-20.7-0.72-36.48-0.44-36.75zm-165.03 4.62c-0.98 0-1.78 0.8-1.78 1.79 0 0.98 0.8 1.78 1.78 1.78s1.78-0.8 1.78-1.78c0-0.99-0.8-1.78-1.78-1.79zm-38.591 2.13c-0.365 0.13-0.59 1.09-0.531 2.5 0.085 2.08 0.524 2.49 1.093 1.06 0.516-1.29 0.437-2.81-0.156-3.4-0.148-0.15-0.285-0.2-0.406-0.16zm162.09 3.22c-0.76 0-1.54 2.21-1.69 4.91-0.23 4.23-0.04 4.42 1.29 1.34 2-4.65 2.11-6.25 0.4-6.25zm53.81 0.34c0.13-0.04 0.26 0.01 0.41 0.16 0.59 0.59 0.64 2.12 0.13 3.41-0.57 1.42-0.98 1.01-1.07-1.07-0.05-1.41 0.17-2.36 0.53-2.5zm-177.9 0.03c-0.41 0.13-1.04 1.94-1.88 5.44-0.7 2.91-0.42 4.91 0.66 4.91 1 0 1.81-2.55 1.81-5.66 0-3.25-0.19-4.81-0.59-4.69zm-38.782 3.22c-1.04 0-1.388 0.8-0.782 1.78 0.607 0.99 1.474 1.78 1.906 1.78 0.433 0 0.782-0.79 0.782-1.78 0-0.98-0.867-1.78-1.906-1.78zm-0.626 15c-0.19 0.21-0.342 6.1-0.343 16.22-0.002 10.35 0.177 16.49 0.375 16.78 0.073-0.17 0.165-1.11 0.25-2.87 0.338-7.07 0.335-19.13 0-26.78-0.105-2.39-0.195-3.44-0.282-3.35zm49.848 2.03c0.1 0.01 0.21 0.44 0.34 1.29 0.41 2.71 0.42 6.71 0 8.9-0.42 2.2-0.76-0.03-0.75-4.94 0.01-3.37 0.17-5.27 0.41-5.25zm0 17.85c0.1 0.01 0.21 0.43 0.34 1.28 0.41 2.71 0.42 6.71 0 8.9-0.42 2.2-0.76-0.03-0.75-4.93 0.01-3.38 0.17-5.27 0.41-5.25zm44.81 15.18c-0.02 0.01-0.05 0.02-0.06 0.04-0.39 0.41-1.23 14.38-1.88 31.06-0.64 16.68-1.59 31.75-2.09 33.47-0.51 1.71-0.18 3.12 0.72 3.12s2.17-7.36 2.81-16.34c1.25-17.63 1.56-51.42 0.5-51.35zm-96.158 14.16c-0.735 0-1.196 9.44-1.031 20.97 0.311 21.72 1.075 19.24 1.907-6.25 0.264-8.1-0.14-14.72-0.876-14.72zm84.778 25.22c-0.07 0.06-0.15 0.29-0.25 0.66-0.74 2.94-1.55 12.95-1.78 22.25-0.59 23.89 0.94 19.44 2.13-6.19 0.48-10.31 0.43-17.15-0.1-16.72zm7.82 30.25c-0.36 0.41-1.09 7.76-1.6 16.34-0.51 8.62-0.22 15.63 0.66 15.63 0.87 0 1.59-7.38 1.59-16.38 0-8.99-0.29-16-0.65-15.59zm-9.88 10.56c-0.87 0-1.58 4.99-1.56 11.13 0.03 8.6 0.37 9.94 1.41 5.81 1.93-7.71 2.01-16.94 0.15-16.94zm110.69 16.88c-0.1-0.07-0.22 0.23-0.34 0.93-0.79 4.42-1.49 20.82-1.57 36.44-0.07 15.62 0.18 28.07 0.53 27.66 0.36-0.41 1.04-16.81 1.54-36.44 0.43-16.97 0.36-28.21-0.16-28.59zm-18.6 2.75c-0.02 0-0.03 0.04-0.06 0.06-0.41 0.46-1.25 11.24-1.84 24-0.62 13.24-0.43 21.66 0.44 19.62 1.48-3.48 2.8-43.94 1.46-43.68zm-83.93 2.65l-1.25 13.38c-0.7 7.36-1.27 18.62-1.25 25l0.03 11.59 1.34-10.72c0.73-5.88 1.27-17.11 1.22-24.96l-0.09-14.29zm135.22 39.19c0.1 0.04 0.22 0.23 0.34 0.53 0.49 1.23 0.49 3.21 0 4.44s-0.88 0.23-0.87-2.22c0-1.84 0.2-2.87 0.53-2.75zm-0.16 8.44c0.12-0.05 0.26 0.01 0.41 0.16 0.59 0.59 0.67 2.11 0.15 3.4-0.57 1.42-1.01 1.02-1.09-1.06-0.06-1.41 0.16-2.37 0.53-2.5zm-147.94 4.06c0.11 0.04 0.25 0.19 0.38 0.5 0.49 1.23 0.49 3.24 0 4.47-0.5 1.23-0.91 0.23-0.91-2.22 0-1.84 0.21-2.87 0.53-2.75zm11.44 0.06l-2.41 16.94c-1.32 9.32-2.67 25.99-3 37.03s-0.01 20.07 0.72 20.07c0.74-0.01 1.47-7.01 1.6-15.6 0.12-8.59 0.4-17.22 0.62-19.19 0.23-1.96 0.87-11.59 1.44-21.4l1.03-17.85zm83.37 4.13c-0.2-0.16-0.34 6.55-0.34 18.19 0 16.19 0.26 22.81 0.6 14.72 0.33-8.1 0.33-21.35 0-29.44-0.1-2.28-0.18-3.41-0.26-3.47zm53.41 11.03c0.1-0.07 0.22 0.35 0.35 1.34 0.39 3.19 0.39 8.41 0 11.6-0.4 3.19-0.72 0.59-0.72-5.78 0-4.39 0.15-7 0.37-7.16zm-119.56 20.62c0.11 0.01 0.21 0.41 0.34 1.26 0.41 2.71 0.39 6.74-0.03 8.93-0.42 2.2-0.73-0.03-0.72-4.93 0.01-3.38 0.17-5.28 0.41-5.26zm119.59 4c0.1-0.17 0.2 0.37 0.32 1.66 0.37 4.14 0.4 11.37 0.03 16.06s-0.69 1.3-0.69-7.53c0-6.07 0.13-9.8 0.34-10.19zm-155.37 1.26c0.1-0.01 0.22 0.1 0.34 0.4 0.49 1.21 0.52 3.64 0.06 5.38-0.45 1.73-0.87 0.72-0.9-2.22-0.03-2.21 0.19-3.54 0.5-3.56zm99.87 11.59c-0.43 0-0.78 0.8-0.78 1.78s0.84 1.78 1.88 1.78 1.38-0.8 0.78-1.78c-0.61-0.98-1.44-1.78-1.88-1.78zm-65.97 0.31c0.03-0.01 0.07 0 0.1 0.03 0.51 0.51 1.01 5.91 1.09 12 0.09 6.09-0.34 11.56-0.94 12.16-0.59 0.6-1.09-4.8-1.09-12 0-6.75 0.38-11.98 0.84-12.19zm-68.06 2.56c0.27-0.17 0.71 5.13 1.41 16.69 0.79 13.21 1.07 24.4 0.62 24.85-0.45 0.44-0.87-2.73-0.94-7.07-0.1-6.33-0.45-7.18-1.81-4.31-1.26 2.67-1.49 1.74-0.81-3.59 0.5-3.93 1.03-13.14 1.19-20.5 0.08-3.87 0.18-5.96 0.34-6.07zm37.88 9c0.08 0.04 0.18 0.36 0.28 1.04 0.4 2.68 0.43 7.51 0.03 10.71-0.4 3.21-0.74 1.02-0.75-4.87-0.01-4.42 0.17-6.99 0.44-6.88zm56.97 11.04c0.11-0.04 0.23 0.21 0.37 0.74 0.45 1.72 0.45 4.54 0 6.26-0.45 1.71-0.81 0.3-0.81-3.13 0-2.36 0.18-3.79 0.44-3.87zm-154.13 5.65c0.281-0.01 0.586 0 0.906 0 3.739 0 4.288 0.83 4.313 6.69 0.043 10.49 4.698 27.7 8.187 30.25 1.743 1.27 7.259 2.31 12.25 2.31 5.773 0 10.663 1.14 13.469 3.13 2.588 1.83 9.575 3.62 16.905 4.31 20.22 1.91 29.43 3.62 28.41 5.28-0.53 0.86 2.33 1.56 6.37 1.56 4.22 0 6.92-0.74 6.32-1.72-0.64-1.03 1.22-1.24 4.78-0.56 3.22 0.62 12.03 1.3 19.59 1.53s14.53 0.89 15.47 1.47 7.2 0.59 13.9 0c15.34-1.33 23.83-1.08 26.32 0.75 1.06 0.79 2.96 1.28 4.18 1.09 1.23-0.18 5.07-0.43 8.57-0.56 3.73-0.13 5.9-0.95 5.25-2-0.7-1.12 3.45-1.78 11.15-1.78 6.93 0 13.14-0.92 14.32-2.09 1.16-1.17 11.25-2.67 23.09-3.41 11.57-0.73 21.31-1.37 21.66-1.47 0.35-0.09 0.19-1.37-0.38-2.84-0.56-1.47-0.7-2.69-0.31-2.69 0.74 0 11.65 22.56 11.65 24.1 0 0.48-5.74 0.87-12.78 0.87-7.03 0-12.39 0.41-11.9 0.91 0.49 0.49 6.69 0.98 13.78 1.09l12.9 0.19-0.56 21.65-0.53 21.66-14.28 1.19c-15.73 1.36-175.52 1.16-231.94-0.28l-35.685-0.91 0.156-43.72c0.248-62.04 0.251-65.77 4.469-66zm125.72 2.38c0.27-0.01 0.35 5.95 0.5 19.47 0.17 15.34-0.38 24.53-1.5 24.53-2.02 0-2.05-11.64-0.09-33.91 0.57-6.5 0.88-10.09 1.09-10.09zm-33.38 10.09c0.14-0.02 0.27 0.09 0.41 0.34 0.74 1.33 0.69 5.21-0.12 8.63-1.42 5.95-1.47 5.85-1.35-2.41 0.06-3.97 0.49-6.49 1.06-6.56zm95.5 21.75c0.13-0.04 0.26 0.01 0.41 0.16 0.59 0.59 0.64 2.15 0.12 3.43-0.56 1.43-0.97 0.99-1.06-1.09-0.06-1.41 0.17-2.37 0.53-2.5zm-94.4 2.34c0.1-0.01 0.22 0.11 0.34 0.41 0.49 1.21 0.52 3.64 0.06 5.38-0.45 1.73-0.87 0.72-0.9-2.22-0.03-2.21 0.19-3.54 0.5-3.57zm95.5 4.47c0.98 0 1.81 0.8 1.81 1.78 0 0.99-0.83 1.78-1.81 1.78s-1.78-0.79-1.78-1.78c0-0.98 0.8-1.78 1.78-1.78zm-157 21.75c-21.445-0.05-35.569 0.16-35.219 0.72 0.555 0.9 38.152 1.9 85.471 2.25 46.46 0.34 84.81 0.92 85.22 1.31 0.41 0.4 14.38 0.72 31.06 0.72s30-0.31 29.59-0.72c-1.71-1.7-131.79-4.13-196.12-4.28zm212.53 1.69c-0.97 0.01-1.87 0.13-2.47 0.38-1.21 0.48 0.21 0.84 3.16 0.81 2.94-0.04 3.92-0.43 2.18-0.88-0.86-0.22-1.9-0.32-2.87-0.31z" transform="translate(399.36 10.868)"/>
  </g>
  <metadata>
    <rdf:RDF>
      <cc:Work>
        <dc:format>image/svg+xml</dc:format>
        <dc:type rdf:resource="http://purl.org/dc/dcmitype/StillImage"/>
        <cc:license rdf:resource="http://creativecommons.org/licenses/publicdomain/"/>
        <dc:publisher>
          <cc:Agent rdf:about="http://openclipart.org/">
            <dc:title>Openclipart</dc:title>
          </cc:Agent>
        </dc:publisher>
        <dc:title>Hestia</dc:title>
        <dc:date>2009-03-15T19:02:05</dc:date>
        <dc:description>Statue of Vesta Giustiniani (Rome). Source: http://commons.wikimedia.org/wiki/File:Hestia-meyers.png This image comes from the 4th edition of Meyers Konversationslexikon (1885-90); it is therefore Public Domain. Uploaded to Wikimedia Commons by user Olliminatore. Vectorized by Warszawianka.</dc:description>
        <dc:source>https://openclipart.org/detail/22319/hestia-by-warszawianka</dc:source>
        <dc:creator>
          <cc:Agent>
            <dc:title>warszawianka</dc:title>
          </cc:Agent>
        </dc:creator>
        <dc:subject>
          <rdf:Bag>
            <rdf:li>ancient</rdf:li>
            <rdf:li>deity</rdf:li>
            <rdf:li>drawing</rdf:li>
            <rdf:li>externalsource</rdf:li>
            <rdf:li>goddess</rdf:li>
            <rdf:li>greek</rdf:li>
            <rdf:li>hestia</rdf:li>
            <rdf:li>line art</rdf:li>
            <rdf:li>mythology</rdf:li>
            <rdf:li>sculpture</rdf:li>
            <rdf:li>statue</rdf:li>
            <rdf:li>vesta</rdf:li>
            <rdf:li>wikimedia commons</rdf:li>
          </rdf:Bag>
        </dc:subject>
      </cc:Work>
      <cc:License rdf:about="http://creativecommons.org/licenses/publicdomain/">
        <cc:permits rdf:resource="http://creativecommons.org/ns#Reproduction"/>
        <cc:permits rdf:resource="http://creativecommons.org/ns#Distribution"/>
        <cc:permits rdf:resource="http://creativecommons.org/ns#DerivativeWorks"/>
      </cc:License>
    </rdf:RDF>
  </metadata>
</svg>