<?xml version="1.0" encoding="UTF-8" standalone="no"?>
<svg version="1.1" xmlns="http://www.w3.org/2000/svg" xmlns:xlink="http://www.w3.org/1999/xlink" width="397.76" height="243.2">
	<path id="Greek_letter_pi_by_Adam_Stanislav" transform="matrix(1,0,0,1,-1127.26,-689.915)" fill="black" d="M 1251.17,689.817 C 1239.87,689.887 1228.89,694.4 1219.82,701.221 C 1208.12,706.791 1196.98,715.773 1194.46,729.224 C 1188.98,754.421 1206.37,778.383 1227.15,790.811 L 1248.23,777.107 C 1246.83,772.107 1229.63,765.419 1225.95,756.06 C 1215.12,742.088 1212.57,720.223 1223.75,706.135 C 1227.19,705.249 1230.83,704.592 1232.77,705.275 C 1249.72,706.293 1265.88,711.832 1280.71,719.979 C 1276.84,739.019 1276.67,758.763 1276.51,778.131 C 1277.28,812.023 1276.64,845.997 1273.94,879.788 C 1272.35,887.3 1273.48,901.957 1261.92,896.104 C 1236.23,890.647 1209.74,887.132 1185.44,876.699 C 1169.58,869.977 1157.86,856.689 1149.1,842.224 L 1127.16,855.115 C 1136.53,869.737 1148.4,883.48 1164.68,890.496 C 1189.22,901.241 1216.06,904.82 1241.93,911.095 C 1252.3,913.883 1263.86,914.495 1273.27,908.388 C 1283.56,902.635 1293.71,894.295 1294.97,881.74 C 1299.42,858.728 1297.96,835.132 1299.24,811.84 C 1300.13,785.612 1298.39,759.183 1300.75,733.036 C 1304.88,736.156 1308.86,739.435 1312.68,742.82 C 1324.73,752.755 1333.29,765.976 1343.16,777.909 C 1338.95,793.835 1334.45,809.679 1329.7,825.453 C 1322.6,850.753 1316.29,877.655 1322.07,903.855 C 1324.65,915.539 1331.51,928.291 1344.16,931.033 C 1361.34,935.845 1379.62,932.237 1396.2,926.857 C 1405.41,923.459 1414.7,919.843 1423.28,915.12 C 1429.21,910.401 1435.15,905.683 1441.09,900.964 C 1419.54,911.209 1395.95,920.724 1371.61,917.549 C 1363.41,916.603 1354.98,913.2 1350.77,905.645 C 1341.07,888.695 1341.93,868.097 1344.55,849.395 C 1347.4,830.363 1353.21,812.04 1358.75,793.652 C 1359.24,794.037 1359.73,794.417 1360.23,794.789 C 1382.22,809.613 1410.6,809.937 1435.97,806.457 C 1458.27,803.344 1477.72,791.201 1496.42,779.504 C 1513.03,768.137 1528.79,748.473 1524.17,727.156 C 1522.52,718.269 1513.06,705.501 1508.14,703.212 L 1493.88,711.995 C 1490.99,713.5 1483.75,718.185 1485.78,718.175 C 1493.96,722.564 1499.32,732.288 1501.34,741.351 C 1503.61,759.015 1491.84,774.423 1478.24,784.851 C 1457.01,793.745 1432.98,795.341 1410.35,791.841 C 1390.57,789.424 1373.45,777.2 1362.37,760.961 C 1337.89,727.084 1302.44,698.895 1260.7,690.852 C 1257.52,690.127 1254.33,689.799 1251.17,689.817 Z "/>
</svg>