<?xml version="1.0" encoding="UTF-8" standalone="no"?>
<!-- Created with Inkscape (http://www.inkscape.org/) -->
<svg xmlns:inkscape="http://www.inkscape.org/namespaces/inkscape" xmlns:rdf="http://www.w3.org/1999/02/22-rdf-syntax-ns#" xmlns="http://www.w3.org/2000/svg" xmlns:cc="http://creativecommons.org/ns#" xmlns:dc="http://purl.org/dc/elements/1.1/" xmlns:sodipodi="http://sodipodi.sourceforge.net/DTD/sodipodi-0.dtd" xmlns:svg="http://www.w3.org/2000/svg" xmlns:ns1="http://sozi.baierouge.fr" xmlns:xlink="http://www.w3.org/1999/xlink" id="svg3494" sodipodi:docname="Venus_de_Milo.svg" viewBox="0 0 303.42 1003.9" sodipodi:version="0.32" version="1.0" inkscape:output_extension="org.inkscape.output.svg.inkscape" inkscape:version="0.46">
  <sodipodi:namedview id="base" bordercolor="#666666" inkscape:pageshadow="2" guidetolerance="10" pagecolor="#ffffff" gridtolerance="10000" inkscape:window-height="744" inkscape:zoom="0.35" objecttolerance="10" showgrid="false" borderopacity="1.0" inkscape:current-layer="layer1" inkscape:cx="375" inkscape:cy="520" inkscape:window-y="-4" inkscape:window-x="-4" inkscape:window-width="1280" inkscape:pageopacity="0.0" inkscape:document-units="px"/>
  <g id="layer1" inkscape:label="Layer 1" inkscape:groupmode="layer" transform="translate(-95.228 -38.744)">
    <path id="path3554" style="fill:#000000" d="m304.07 1042c-0.42-0.4-8.27-1.2-17.44-1.8-18.46-1.2-39.26-3.3-76.9-7.9-13.76-1.6-27.52-3.2-30.58-3.4-3.05-0.3-12.64-1.1-21.3-1.8-8.67-0.7-25.16-2.6-36.66-4.2-16.11-2.2-21.504-2.3-23.53-0.7-2.253 1.9-2.594-1.8-2.376-25.84l0.254-28.07 6.602-6.52c3.63-3.59 11.19-9.58 16.79-13.31l10.19-6.79 20.39 0.93c11.21 0.51 21.63 0.2 23.16-0.7 1.53-0.89 4.5-5.06 6.6-9.26 2.87-5.76 5.06-7.79 8.88-8.24 4.06-0.47 4.84-1.3 3.93-4.16-0.84-2.67 0.05-4.03 3.5-5.34l4.63-1.76-6.15-6.71c-6.82-7.45-6.93-13.61-0.26-15.39 3.66-0.98 3.61-1.1-0.75-2.15-3.11-0.74-4.84-2.6-5.27-5.66-0.35-2.51-1.37-5.44-2.26-6.53-0.89-1.08-1.14-4.86-0.57-8.39 0.82-5.08-0.15-8.36-4.64-15.63-3.13-5.07-6.84-13.8-8.26-19.4-2.49-9.89-2.78-10.22-9.77-11.12l-7.21-0.93-0.06-13.9c-0.03-7.64-0.72-16.6-1.53-19.91-0.99-4-0.81-6.03 0.51-6.03 1.1 0 2.1 1.88 2.23 4.17 0.12 2.3 0.94-0.83 1.82-6.95 1.89-13.21 19.32-63.26 23.87-68.56 5.44-6.32 14.29-26.07 13.79-30.75-0.27-2.45-0.63-9.45-0.81-15.57l-0.32-11.12-2.69 10.19c-3.77 14.3-13.87 45.03-15.53 47.25-0.76 1.02-2.8 6.86-4.54 12.98-1.74 6.11-5.53 16.12-8.43 22.23-2.92 6.18-5.84 16.26-6.56 22.7-0.72 6.37-2.14 11.58-3.16 11.58-1.17 0-1.31-2.9-0.4-7.87 1.83-9.98 1.79-12.7-0.41-26.83-1.35-8.72-3-12.67-6.74-16.13-2.72-2.52-4.94-6.37-4.94-8.55 0-2.19-1.38-6.31-3.07-9.17-2.96-5.01-2.88-5.51 2.54-15.1 3.08-5.46 6.04-9.51 6.58-9 3.72 3.55 14.6-15.46 27.45-47.99 3.29-8.32 6.9-14.8 8.01-14.4 2.61 0.93 1.94 6.87-1.65 14.61l-2.82 6.09 0.9-5.56c0.68-4.17-0.2-3.16-3.52 4.01-5.95 12.87-7.77 20.67-2.09 8.96 7.62-15.68 5.21-6.75-4.73 17.55-8.71 21.29-17.45 37.05-22.15 39.96-1.05 0.65-3.1 0.19-4.57-1.03-2.01-1.66-2.19-3.18-0.74-6.18 1.86-3.85 1.83-3.86-0.97-0.38-3.69 4.62-3.63 5.34 0.79 9.35 3.09 2.79 4.14 2.93 6.63 0.87 2.39-1.99 3.24-2 4.42-0.08 0.95 1.54 3.53-2.72 7.37-12.17 3.25-7.99 6.68-16.2 7.63-18.24s4.32-11.15 7.48-20.26c7.52-21.59 19.48-47.37 21.98-47.37 1.08 0 1.97-1.88 1.98-4.17 0.02-7.31 3.9-18.88 5.48-16.33 0.94 1.53 2.5-0.75 4.46-6.5 1.65-4.86 2.68-9.17 2.27-9.57-0.4-0.41-1.78 2.43-3.06 6.3-2 6.07-2.52 6.54-3.76 3.37-2.1-5.37-1.93-7.81 0.31-4.6 1.55 2.21 1.72 1.99 0.86-1.13-1.24-4.45 7.78-31.41 15.9-47.51 2.96-5.86 4.96-10.66 4.45-10.66-1.49 0-13.51 24.7-18.58 38.17-2.56 6.79-6.81 20.27-9.45 29.95-3.91 14.38-4.34 17.9-2.31 19.19 1.42 0.9 1.61 1.59 0.44 1.61-1.12 0.01-5.94 3-10.7 6.63-9.18 7.01-11.5 11.1-22.45 39.48-6.65 17.25-11.8 27.05-13.37 25.47-0.46-0.45 0.1-2.57 1.24-4.7 2.9-5.41-0.67-17.74-6.62-22.92-10.18-8.85-12.22-14.86-13.9-40.85-2.27-35.13-5.42-51.79-10.02-53.04-9.28-2.54-10.43-4.41-9.06-14.72 0.98-7.45 2.59-10.95 6.84-14.92 5.23-4.9 5.75-10.14 0.82-8.38-1.24 0.44-5.07-1.53-8.51-4.39-7.34-6.1-6.92-10.36 1.61-16.03 3.06-2.04 5.56-4.49 5.56-5.44 0.01-0.96 1.63-3.46 3.61-5.57 2.69-2.86 4.56-10.33 7.42-29.52 2.15-14.49 6.23-32.63 9.37-41.62 3.05-8.75 5.55-17.35 5.55-19.1s5-13.11 11.12-25.23c10.27-20.38 11.12-22.99 11.12-34.41 0-11.95-1.01-14.24-4.73-10.68-3 2.87-21.48 7.58-29.76 7.58-4.63 0-9.05-1.18-10.73-2.87-6.72-6.71-18.53-61.63-18.11-84.15 0.55-29.33 3.51-33.74 39.51-58.84 30.95-21.57 29.33-19.53 27.79-35.14-1.5-15.17-3.52-18.23-18.32-27.78-11.56-7.45-15.17-12.48-18.01-25.11-2.6-11.534-0.9-19.261 8.87-40.348 4.4-9.474 7.63-12.621 20.71-20.162 7.79-4.493 12.16-5.542 27.52-6.612 17.41-1.212 18.71-1.04 28.11 3.715 8.53 4.319 11.11 7.048 19.26 20.379 8.64 14.137 9.39 16.271 9.16 26.167-0.19 8.251-0.62 9.773-1.83 6.496-0.88-2.354-2.43-3.76-3.46-3.124-1.02 0.635-1.86-0.146-1.86-1.734 0-1.589-0.93-2.889-2.07-2.889-1.33 0-1.09 1.497 0.66 4.169 4.31 6.597 1.65 38.773-5.1 61.613-0.98 3.33 0.68 4.16 16.14 8.14 10.06 2.59 26.11 4.96 38.54 5.69 15.6 0.92 23.62 2.3 29.91 5.14 8.16 3.69 8.64 4.32 9.27 12.17 0.36 4.56 0.07 19.84-0.66 33.97-0.73 14.12-2.13 44.86-3.1 68.3-0.98 23.44-2.32 47.2-2.97 52.81-0.75 6.45-0.13 15.63 1.71 25.01 1.59 8.16 3.71 19 4.72 24.09 1 5.1 2.79 18.19 3.97 29.1 2.08 19.17 2.32 19.89 7.25 21.6 4.38 1.53 5.28 3.12 6.39 11.21 0.72 5.19 1.9 9.43 2.63 9.43s2.79 1.08 4.59 2.39c2.81 2.06 2.95 3.1 0.99 7.4-2.05 4.51-1.8 5.44 2.65 9.56 4.4 4.09 4.69 5.08 2.69 9.46-1.9 4.17-1.76 5.17 0.92 6.67 1.74 0.97 3.16 2.95 3.16 4.41 0 5.48-7.35 14.57-13.34 16.5-4.95 1.6-6.19 3.04-6.52 7.54-0.23 3.06-1.37 15.63-2.54 27.94l-2.12 22.38 6.57 19.44c3.61 10.69 7.14 24.8 7.84 31.36 0.7 6.55 2.84 15.56 4.76 20.02 2.07 4.8 3.5 12.43 3.5 18.68 0 8.28 3.04 19.53 14.09 52.11 14.33 42.26 17.66 57.3 15.17 68.58-0.77 3.47-1.46 14.06-1.54 23.53-0.09 10.43-1.26 20.29-2.97 25.01-2.64 7.27-2.51 23.7 0.4 51.35 0.27 2.55 0.56 5.93 0.64 7.52s3.07 7.73 6.63 13.66c6.71 11.14 8.36 20.32 3.96 22.01-3.92 1.51-5 10.86-1.83 15.79 3.16 4.9 2.15 9.58-2.07 9.58-2.4 0-2.86 3.9-2.98 25.48-0.08 14.01-0.03 30.5 0.11 36.7 0.18 7.4-0.57 11.9-2.17 13.2-5.69 4.4-25.96 10.1-41.39 11.7-16.87 1.8-40.39 2.4-41.8 1.2zm9.42-12.4c0-4.2 0.9-9.2 1.98-11.3 1.45-2.7 1.39-4.4-0.21-6.3-1.21-1.5-2.46-5-2.77-7.8-1.48-13.03-0.23-12.44-32-15.04-15.99-1.3-31.16-2.73-33.7-3.16-2.55-0.43-13.39-1.6-24.09-2.61-63.93-5.99-112.59-11.01-119.05-12.28l-5.1-1.01v23.31 23.29h5.42c2.98 0 9.44 0.8 14.36 1.8 10 2 34.93 4.7 68.24 7.4 12.23 1.1 34.32 3.2 49.1 4.8 41.07 4.5 55.54 5.8 67.17 6.1l10.65 0.3v-7.5zm47.46 5c0.12-0.1 0.75-8.6 1.4-18.8 0.81-12.5 0.6-17.63-0.64-15.8-1.01 1.6-1.96 5.3-2.11 8.4-0.27 5.5-0.28 5.5-1.64-0.9l-1.36-6.5-0.46 6.5-0.47 6.4-1.33-5.5-1.34-5.6-0.99 5.6c-0.55 3-0.75 1-0.45-4.7 0.39-7.19 0.11-8.8-0.97-5.51-0.84 2.51-1.6 3.51-1.71 2.21-0.44-5.84-3.91 0.6-4.1 7.6l-0.21 7.8-1.44-7.4c-1.56-8.1-0.55-11.15 5.4-16.54 2.13-1.93 3.88-4.68 3.88-6.11 0-1.5 0.91-2.04 2.13-1.28 1.32 0.82 1.64 0.51 0.83-0.8-0.72-1.17-0.51-3.56 0.47-5.31 1.3-2.32 0.95-3.81-1.29-5.51-2.78-2.11-2.7-2.34 0.81-2.4 2.14-0.03 5.39-1.72 7.24-3.76 1.84-2.04 4.91-3.71 6.82-3.71 1.94 0 4.19-1.93 5.13-4.39 0.93-2.44 3.82-4.94 6.49-5.61 2.65-0.66 6.29-2.69 8.1-4.49 3.14-3.15 3.14-3.52-0.05-8.76-1.83-3.01-5.5-11.14-8.16-18.07s-6.71-14.85-9-17.6c-7.96-9.53-10.2-16.55-12.08-37.76-2.25-25.5-2.24-24.19-0.29-22.99 0.88 0.54 2.19 9.88 2.92 20.74 1.54 22.96 2.57 26.25 12.1 38.71 3.9 5.1 7.39 10.9 7.76 12.9 0.44 2.44 2.77 4.06 7.12 4.95 3.56 0.73 6.78 1.01 7.17 0.62 0.75-0.75-8.7-17.54-9.87-17.54-0.39 0 0.12 3 1.14 6.66 2.36 8.55 0.81 10.26-2.02 2.23-2.01-5.67-5.55-36.78-8.73-76.52-1.08-13.59-1.53-15.31-2.4-9.27-1.03 7.09 0.03 35.41 2.37 63 0.91 10.81 0.81 11.58-0.61 4.63-0.94-4.58-2.31-12.5-3.04-17.6l-1.35-9.26-2.24 11.11c-1.83 9.04-2.28 9.91-2.45 4.64-0.11-3.57 1.06-12.33 2.6-19.46 2.57-11.84 2.53-14.44-0.39-29.85-3.08-16.23-3.33-16.74-6.24-12.98-1.67 2.16-3.5 5.17-4.09 6.7-0.83 2.19-1.08 2.09-1.2-0.51-0.19-4.18 8.9-18.02 11.83-18.02 1.69 0 1.62-2.76-0.31-11.58-1.39-6.37-4.54-23.26-7-37.53-2.46-14.26-5.84-33.86-7.51-43.54-4.47-25.94-13.7-69.06-15.04-70.28-0.64-0.58-0.69 1.03-0.11 3.57 2.25 9.81 3.62 19.42 2.64 18.53-0.56-0.51-3.11-9.16-5.66-19.22-2.56-10.07-5.45-19.1-6.44-20.09-0.98-0.98-0.61 3.09 0.82 9.04 1.44 5.95 5.51 24.71 9.06 41.68 3.54 16.98 6.93 32.41 7.52 34.28 0.94 3 0.79 2.97-1.24-0.23-1.27-2-2.98-6.17-3.79-9.26-1.09-4.1-1.22-3.23-0.5 3.19 2.7 23.97 4.78 43.69 7.29 69.01 1.51 15.29 3.18 30.3 3.69 33.35 0.52 3.06 1.28 8.61 1.68 12.33 0.96 8.67 3.46 13.25 9.33 17.1 2.59 1.7 4.71 3.94 4.71 4.99 0 3.98-12.86-8.11-14.59-13.72-2.61-8.42-5.56-28.66-7.6-52.2-6.69-76.89-18.21-151.99-23.85-155.47-2.32-1.43-2.1 4.03 0.77 19.28 2.85 15.13 5.55 39.61 7.26 65.78 0.59 9.17 1.49 22.93 2 30.58 1.62 24.46 6.4 64.77 11.97 100.98 2.98 19.37 6.32 42.71 7.41 51.88 2.69 22.55 6.44 38.13 11.74 48.66 2.43 4.83 5.03 10.87 5.79 13.42 2.36 7.95-1.72 1.72-7.88-12.05-5.43-12.11-11-37.73-14.31-65.78-0.66-5.6-2.77-18.94-4.68-29.64-1.92-10.7-3.79-21.96-4.17-25.02-0.37-3.06-0.8 10.7-0.95 30.58-0.27 33.96 1.76 57.71 5.31 62.18 0.85 1.07 2.78 6.64 4.27 12.37s3.61 12.09 4.7 14.13c1.09 2.05 1.99 5.23 2 7.08 0.01 1.86 1.26 5.76 2.78 8.68 3.05 5.85 3.49 8.59 1.38 8.58-2.25-0.01-11.34-26.15-14.37-41.3-0.64-3.25-1.81-4.68-3.14-3.86-1.37 0.84-1.72 0.28-1-1.61 0.67-1.74-0.5-4.25-2.93-6.27-2.22-1.86-3-2.18-1.72-0.73 1.27 1.45 2.3 3.93 2.28 5.51-0.02 2.53-0.24 2.54-1.85 0.09-1.3-1.99-1.5-1.1-0.69 3.11 0.95 4.96 0.6 5.81-2.22 5.4-3.61-0.54-6.08-4.8-2.77-4.8 2.56 0 2.63-10.51 0.08-12.09-1.25-0.78-1.55 0.66-0.85 4.06l1.08 5.25-2.62-5.56-2.63-5.56-1.38 5.18c-0.76 2.85-0.87 5.7-0.24 6.33s1.2-0.87 1.27-3.33c0.11-4.37 0.15-4.38 1.73-0.49 0.88 2.2 1.14 5.76 0.58 7.92-0.97 3.71-1.17 3.74-3.52 0.64-2.29-3-2.5-2.85-2.56 1.81-0.03 2.81-1.03 5.1-2.22 5.1s-1.68 0.48-1.1 1.06c0.59 0.59 3.49-0.19 6.45-1.71 2.95-1.53 6.16-2.22 7.12-1.53 2.56 1.84 3.16 7.74 0.78 7.74-1.12 0-1.52-0.83-0.89-1.85 1.72-2.8-3.43-2.23-7.52 0.83-3.51 2.62-3.5 2.66 0.36 1.69 4.63-1.16 7.57 2.13 3.34 3.75-1.57 0.6-2.39 0.33-1.81-0.61 0.86-1.39-6.44-1.4-10.12-0.01-0.51 0.19-1.56 0.25-2.32 0.12-2.05-0.32-1.69 3.09 0.46 4.42 1.02 0.63 1.86 0.21 1.86-0.93s0.88-1.53 1.95-0.86c1.3 0.8 1.02 2.62-0.84 5.47-2.62 3.99-2.56 4.2 0.92 3.29 3.26-0.85 3.56-0.34 2.42 4.18-0.95 3.8-0.7 4.79 0.96 3.76 1.23-0.76 1.84-1.79 1.35-2.28s0.49-2.36 2.19-4.15 3.92-4.63 4.94-6.32c1.29-2.14 2.67-2.55 4.53-1.36 2.19 1.4 2.27 2.6 0.44 6.61-1.59 3.5-1.67 5.78-0.26 8 1.63 2.59 1.76 2.42 0.82-1.05-1.36-4.96 0.12-5.5 2.55-0.93 1.18 2.23 0.93 3.97-0.8 5.57-2.05 1.9-3.06 1.39-5.48-2.78-1.63-2.81-2.4-3.44-1.71-1.4 2.67 7.92 2 9.27-4.63 9.27-5.25 0-6.63-0.84-7.69-4.64-1.09-3.88-1.32-4.01-1.48-0.83-0.1 2.09 0.86 4.9 2.13 6.25 1.86 1.97 1.85 2.63-0.01 3.31-1.28 0.47-1.86 1.62-1.28 2.55s-0.62 1.69-2.66 1.69-6.71 1.78-10.38 3.94c-5.22 3.08-8.16 3.64-13.54 2.57-10.21-2.04-28.46-4.36-51.16-6.53-11.11-1.06-22.8-3.16-25.98-4.66-4.68-2.22-8.48-2.4-19.99-0.94-10.82 1.37-15.9 1.22-21.27-0.63-8.18-2.82-9.53-6.85-5.51-16.46l2.68-6.41-19.42-1.26-19.42-1.25-9.56 6.38c-5.26 3.51-11.93 8.87-14.82 11.91l-5.25 5.54 8.96 1.08c4.92 0.6 21.88 2.38 37.68 3.96 15.79 1.58 33.54 3.73 39.43 4.78 5.9 1.04 12.15 1.45 13.9 0.9s9.44-0.25 17.08 0.68c7.64 0.92 24.74 2.99 37.99 4.59 13.24 1.6 33.26 3.23 44.47 3.61 19.12 0.65 20.42 0.93 20.97 4.64 0.63 4.18 3.05 5.19 4.98 2.08 0.63-1.03-0.27-3.29-2.01-5.03-2.98-2.98-2.83-3.25 2.66-4.67 8.52-2.21 7.1-3.36-2.52-2.04-5.65 0.77-8.33 0.46-8.33-0.97 0-1.28 3.54-2.1 9.11-2.1 5.01 0 12.93-1.64 17.6-3.64s8.49-2.92 8.49-2.03c0 0.88-2.5 2.47-5.56 3.54-3.05 1.07-5.56 2.37-5.56 2.9s1.26 0.49 2.78-0.1c1.53-0.59 2.78-0.24 2.78 0.77 0 1.02-3.54 2.38-7.87 3.04-4.33 0.65-9.13 2.02-10.66 3.04-2.7 1.81 2.24 1.22 11.82-1.41 2.23-0.61 3.02-0.22 2.2 1.1-0.69 1.13-2.51 2.05-4.04 2.05s-2.27 0.84-1.64 1.86-0.02 1.85-1.45 1.85-4.04 1.58-5.79 3.51c-2.49 2.76-2.65 3.76-0.75 4.66 1.34 0.6-0.83 0.7-4.82 0.3-7.78-1-7.13 1.7 0.77 3.2 4.28 0.7 4.22 0.8-0.93 1.2-5.51 0.5-5.52 0.5-0.92 2 4.23 1.3 4.28 1.5 0.63 1.6-3.05 0.2-3.76 1.1-3.02 3.9 1.11 4.3 2.57 4.6 5.72 1.5 1.73-1.7 2.22-1.7 2.22 0 0 1.3-2.08 3.2-4.63 4.4s-4.63 3.1-4.63 4.4c0 1.2-0.54 4.9-1.21 8.3l-1.21 6 22.98-1.3c12.64-0.8 23.08-1.5 23.19-1.7zm-27.05-18.1c-0.01-2.7 1.62-6.9 3.62-9.3l3.64-4.4 0.07 8.8c0.03 4.9-0.78 8.8-1.8 8.8-1.01 0-1.86-1-1.88-2.3-0.02-1.5-0.62-1.4-1.82 0.5-1.41 2.2-1.8 1.7-1.83-2.1zm13.38-7.2c0-3.6 0.38-5 0.84-3.2 0.47 1.7 0.47 4.7 0 6.4-0.46 1.8-0.84 0.4-0.84-3.2zm-28.23-34.16c0-0.45 0.84-1.34 1.86-1.97 1.01-0.63 1.85-0.26 1.85 0.82s-0.84 1.96-1.85 1.96c-1.02 0-1.86-0.36-1.86-0.81zm9.27-2.72c0-1.53 7.6-4.31 8.73-3.18 0.3 0.3-1.54 1.5-4.09 2.67-2.55 1.16-4.64 1.39-4.64 0.51zm39.15-33.06c-5.75-14.18-24.64-128.63-21.72-131.55 1.06-1.05 2.15 5.44 5.63 33.52 2.8 22.52 15.05 87.79 17.88 95.25 1.89 4.98 4.78 5.43 5.96 0.93 0.52-2 0.93-1.29 1.06 1.85 0.16 3.83-0.65 5.09-3.27 5.09-2.06 0-4.32-2.07-5.54-5.09zm-22.96-42.16c-2.87-17.97-4.47-45.5-2.51-43.39 0.4 0.43 1.25 8.62 1.9 18.21 0.66 9.59 2.06 20.91 3.14 25.16 1.07 4.26 1.67 10.58 1.34 14.07-0.4 4.2-1.71-0.55-3.87-14.05zm23.22 124.6c0.49-5.9 0.16-11.2-0.73-11.7-0.9-0.6-1.73 2.8-1.86 7.4-0.12 4.7-0.39 9.5-0.58 10.8-0.37 2.5 0.82 5.7 1.74 4.8 0.3-0.4 0.94-5.4 1.43-11.3zm7.08 7.8c2-1.1 3.2-2.7 2.66-3.5-0.54-0.9 0.56-1.2 2.44-0.7 3.06 0.8 3.55-0.8 4.63-14.6 1.7-21.88 1.5-32.6-0.63-33.92-1.87-1.15-2.25 2.5-2.1 20.38 0.05 5.14-0.61 13.04-1.46 17.64-1.3 7-1.53 5.7-1.52-8.9 0.01-18.22-2.21-26.59-2.52-9.51-0.14 7.81-0.51 9.01-1.67 5.41-1.79-5.6-2.03-5.12-2.69 5.6-0.29 4.5-1.12 11.8-1.86 16.2-1.42 8.4-0.96 8.9 4.72 5.9zm-1.89-8.4c0.07-4 0.87-8.9 1.79-11 1.08-2.4 1.27-0.1 0.54 6.5-1.33 12.3-2.51 14.5-2.33 4.5zm-4.98-16.6c0.63-1.7 0.32-2.4-0.73-1.8-1.01 0.7-1.83 2-1.83 2.9 0 2.7 1.32 2.1 2.56-1.1zm0.5-19.88c-0.5-1.25-0.89 0.22-0.85 3.28s0.45 4.08 0.92 2.28 0.44-4.31-0.07-5.56zm-70.7-6.54c7.58-1.12 9.43-2.26 6.56-4.04-2.24-1.38-2.23-2.09 0.05-4.99 2.45-3.12 2.4-3.18-0.67-0.77-1.9 1.49-2.85 3.85-2.22 5.5 0.61 1.59 0.52 2.29-0.21 1.57-0.72-0.72-2.43-0.39-3.8 0.75-1.7 1.41-2.49 1.44-2.49 0.09 0-1.08 0.85-2.49 1.88-3.13 1.04-0.64 3.66-4.65 5.83-8.91 2.18-4.26 5-8.58 6.27-9.6 1.28-1.02 2.9-3.79 3.61-6.16 1.02-3.43 0.46-4.51-2.76-5.35-4.61-1.21-4.47-2.7 1.87-20 2.24-6.11 5.65-12.26 7.59-13.66 1.93-1.39 3.51-3.69 3.51-5.09 0-2.89 7.58-3.49 10.28-0.81 1.11 1.1 1.82-9.66 1.91-29.18 0.14-29.38 0.04-30.22-1.86-16.7-1.09 7.84-2.74 14.92-3.65 15.76-0.96 0.88-1.11-1.59-0.36-5.9 4.28-24.63 5.84-73.17 3.02-93.58-1.05-7.63-1.48-2.75-1.7 19.46-0.16 16.3-1 30.77-1.88 32.15-0.91 1.45-1.33-6.78-0.99-19.45l0.59-21.97-2.63 11.12-2.63 11.12 0.82-11.12c0.45-6.11 1.74-19.87 2.88-30.57 1.98-18.61 1.45-50.62-1.45-88.02-1.16-14.88-1.41-15.74-2.36-7.99-0.58 4.78-0.35 16.87 0.52 26.87s1.14 24.58 0.6 32.41-0.33 14.5 0.47 14.82c2.28 0.95-0.76 31.13-4.36 43.29-1.8 6.07-3.65 10.01-4.11 8.74-0.45-1.27 0.7-6.69 2.57-12.05 6.07-17.41 3.04-72.62-4.99-90.79-1.68-3.82-3.45-6.56-3.92-6.08-0.48 0.47-4.76-2.71-9.51-7.07l-8.64-7.94-1.92 5.49c-1.05 3.02-1.91 8.1-1.91 11.28 0 8-4.63 14.04-10.76 14.03-6.04-0.01-15.39-5.45-20.08-11.68l-3.44-4.58-2.32 11.38c-1.27 6.25-3.11 16.87-4.08 23.59-2.64 18.3-13.22 53.67-24.06 80.43-0.83 2.04-2.47 6.11-3.66 9.04-1.18 2.93-1.87 5.61-1.53 5.95 0.69 0.69 19.54-39.28 33.18-70.38 4.87-11.09 9.26-20.58 9.76-21.07 2.06-2.06-1.61 13.81-4.08 17.62-1.83 2.83-2.3 6.3-1.44 10.84 0.85 4.53 0.61 6.28-0.73 5.45-2.16-1.34-5.84 6.47-6.52 13.83-0.23 2.55-0.55 6.14-0.71 7.98-0.18 2.01-1.14 2.83-2.42 2.04-1.48-0.91-1.77 0.1-0.95 3.35 1.86 7.42-19.03 61.5-22.44 58.08-2.59-2.58-1.93-12.16 0.83-12.16 1.47 0 2.15-0.84 1.51-1.88s-1.94-1.4-2.89-0.82c-0.95 0.59-1.71 0.39-1.7-0.43 0.04-1.9 3.61-7.52 3.65-5.73 0.03 1.49 13-11.09 13-12.62 0-0.53-1.04-0.44-2.32 0.2-1.27 0.65-1.01 0.07 0.57-1.28 3.12-2.65 9.85-18.13 8.48-19.5-0.46-0.46-1.38 0.9-2.05 3.01-0.68 2.12-1.98 3.85-2.89 3.85-0.92 0-1.14 1.38-0.49 3.08 0.86 2.24 0.51 2.67-1.27 1.57-1.64-1.01-2.01-0.8-1.13 0.62 0.72 1.18 0.43 2.14-0.64 2.14-1.08 0-1.97-0.69-1.97-1.53 0-3.29 9.78-25.41 11.78-26.66 1.17-0.73 2.16-3.38 2.2-5.9 0.05-2.51-0.61-4.14-1.46-3.62-0.85 0.53-1.01 2.66-0.35 4.74 0.73 2.29 0.48 3.34-0.63 2.66-1-0.62-5.78 7.82-10.61 18.76-4.84 10.94-11.19 24.15-14.12 29.37-5.18 9.21-10.42 22.09-11.91 29.24-0.4 1.93-1.58 6.1-2.62 9.26-3.34 10.2-5.32 31.69-3.12 33.89 3.55 3.55 25.32-14.68 34.37-28.78 3.17-4.95 7.74-14.79 10.15-21.86 4.22-12.42 12.02-29.08 12.18-26.04 0.05 0.81-1.23 4.01-2.83 7.12-1.61 3.1-2.53 6.02-2.05 6.5 1.61 1.61 30.83-55.24 43.48-84.59 1.75-4.06 2.01-4.17 2.12-0.88 0.07 2.07-2.79 9.86-6.36 17.31s-5.98 14.38-5.35 15.39c1.17 1.9-6.66 18.85-8.06 17.45-0.43-0.43 0.12-2.46 1.22-4.52s1.96-4.42 1.91-5.26c-0.12-1.85-25.62 47.85-25.75 50.2-0.05 0.92 1.76 0.09 4.04-1.85 4.08-3.48 4.1-3.48 1.39 0.06-6.39 8.34-11.09 12.63-11.11 10.11-0.01-1.42-2.05 1.8-4.55 7.16-7.02 15.08-14.69 25.13-27.05 35.46-12.98 10.84-19.7 13.41-23.07 8.8-1.23-1.68-2.76-3.05-3.42-3.05-2.5 0-0.89 6.69 2.63 10.92l3.7 4.44 14.31-3.21c7.87-1.76 17.85-4.33 22.19-5.71 4.33-1.38 7.87-1.84 7.87-1.02s-4.79 3.02-10.65 4.9c-6.96 2.23-9.41 3.67-7.05 4.17 4.52 0.94 22.34-3.08 29.75-6.72 6.14-3.01 32.64-19.05 39.67-24 3.14-2.21 4.22-2.41 3.63-0.67-0.79 2.38-26.95 19.26-40.51 26.14-8.43 4.28-25.61 7.83-40.78 8.42-15.43 0.6-14.9 0.48-14.36 3.14 0.25 1.25-1.41 2.56-3.71 2.91-2.29 0.35-4.17 1.09-4.17 1.65s3.41 4.32 7.57 8.36c4.17 4.04 7.07 7.86 6.45 8.47-0.62 0.62-2.4-0.69-3.96-2.91s-4.67-4.99-6.91-6.15c-3.49-1.81-3.33-1.32 1.07 3.38 3.1 3.3 6.96 11.32 9.7 20.16 5.31 17.08 5.13 16.13 2.76 14.67-1.02-0.63-1.85-0.4-1.85 0.5 0 4 12.46 7.27 33.35 8.75 25.01 1.77 41.97 3.99 45.38 5.95 2.02 1.17 4.11 1.56 4.63 0.87s2.62-1.49 4.65-1.8zm-68.54-12.5c-4.07-3.43-7.4-7.34-7.41-8.69s-1.81-6.19-4-10.74c-7.12-14.82-11.48-27.69-9.75-28.76 0.93-0.58 1.69 0.11 1.69 1.53s1.05 2.58 2.35 2.58c1.29 0 7.47 3.5 13.74 7.78 22.65 15.46 42.84 24.01 53.39 22.59 5.49-0.73 14.15-5.45 19.92-10.85 2.81-2.63 5.1-3.88 5.1-2.79 0 2.69-11.47 11.24-19.69 14.68-4.57 1.91-9.15 2.4-14.31 1.53-9.92-1.68-32.61-13.23-46.59-23.72-6.1-4.58-11.32-8.11-11.58-7.84-0.77 0.77 6.21 20.27 9.61 26.84 1.7 3.29 6.08 9.28 9.73 13.32 3.65 4.05 6.32 7.67 5.92 8.06s-4.05-2.1-8.12-5.52zm-0.94-3.4c0-0.38-1.46-1.84-3.25-3.24-2.93-2.3-3-2.24-0.69 0.7 2.42 3.09 3.94 4.07 3.94 2.54zm22.05 4.18c-10.18-7.22-23.91-20.31-23.91-22.79 0-1.03 4.38 2.38 9.73 7.57 5.35 5.2 13.4 12.05 17.88 15.23 4.49 3.18 7.32 5.78 6.3 5.78s-5.52-2.6-10-5.79zm-33.19-5.37c-1.1-2.06-1.42-4.69-0.71-5.84 0.76-1.22 0.48-1.6-0.66-0.89-1.1 0.68-2.8-1.22-3.89-4.35-1.13-3.24-1.23-5.56-0.23-5.56 2.84 0 8.24 9.63 8.52 15.19 0.31 6.17-0.34 6.48-3.03 1.45zm36.62-23.47c-6.57-1.72-2.99-3.8 4.97-2.9 4.53 0.51 12.07 0.35 16.76-0.36 7.81-1.17 9.49-2.44 19.86-15.07 6.23-7.59 11.72-13.39 12.22-12.9 0.49 0.49-3.77 6.66-9.47 13.72-8.32 10.29-12.08 13.41-19.11 15.8-8.37 2.85-18.28 3.52-25.23 1.71zm-27.34-22.7c0-1.08 0.84-1.97 1.86-1.97s1.85 0.37 1.85 0.82-0.83 1.33-1.85 1.96-1.86 0.27-1.86-0.81zm11.12-1.83c3.57-0.9 10.24-2.49 14.83-3.51 4.58-1.03 13.22-3.24 19.19-4.92 5.97-1.67 11.25-2.65 11.73-2.17 1.64 1.64-30.05 10.33-41.17 11.29-8.76 0.76-9.71 0.61-4.58-0.69zm-35.2-11.1c0-1.09 3.54-3.66 7.87-5.71 12.05-5.69 24.56-17.43 32.15-30.18 3.78-6.33 11.63-17.77 17.45-25.41 5.82-7.65 13.71-20.15 17.54-27.8 8.79-17.58 19.77-35.54 20.97-34.33 0.51 0.51-2.01 5.73-5.61 11.61-15.18 24.8-17.89 35.12-3.62 13.81 10.74-16.05 15.37-26.78 21.71-50.38 4.51-16.81 6.13-15.25 1.93 1.85-5.86 23.8-10.29 33.65-24.21 53.82l-9.65 13.98 2.41 9.18c1.33 5.05 3.34 14.03 4.46 19.95 1.12 5.93 2.53 12.18 3.13 13.9 0.8 2.27 0.52 2.6-1.02 1.19-1.16-1.07-3-6.9-4.07-12.97-1.08-6.07-2.84-13.83-3.92-17.25l-1.97-6.21-3.15 4.8c-2.42 3.7-3.65 4.3-5.34 2.61s-2.82-1.37-4.92 1.41c-1.5 1.98-2.76 4.7-2.79 6.03-0.03 1.34-0.84 1.95-1.78 1.36-0.95-0.58-2.19-0.31-2.76 0.61s0.63 2.11 2.67 2.64c3.89 1.02 7.53-3.36 6.09-7.33-1.09-3.04 2.54-4.84 3.7-1.83 2.78 7.25-33.37 48.9-49.67 57.21-7.83 4-17.6 5.91-17.6 3.44zm15.66-4.58c7.54-3.92 32.7-27.13 31.5-29.07-0.58-0.94-0.18-1.71 0.9-1.71s1.76-1 1.5-2.23c-0.25-1.23 0.57-2.27 1.82-2.32 1.25-0.04 3.53-1.87 5.06-4.05 2.54-3.63 2.46-4.04-0.89-4.92-3.99-1.04-6.75 1.43-3.7 3.31 1.03 0.64 1.88 2.05 1.88 3.13 0 1.35-0.79 1.32-2.48-0.09-2.95-2.45-4.93-0.93-4.93 3.77 0 1.87-0.83 3.4-1.85 3.4s-1.65 1.04-1.39 2.32c0.25 1.27-0.58 2.1-1.86 1.85-1.27-0.26-2.31 0.61-2.31 1.93 0 2.99-13.34 15.89-23.13 22.37-8 5.29-8.06 6.42-0.12 2.31zm54.75-65.17c0-0.45-0.84-0.82-1.85-0.82-1.02 0-1.86 0.89-1.86 1.97 0 1.07 0.84 1.44 1.86 0.81 1.01-0.63 1.85-1.51 1.85-1.96zm-64.29 25.78c-0.67-1.74 0.03-3.92 1.61-5.09 1.53-1.13 2.43-3.09 2-4.37-0.43-1.27 0.56-2.83 2.2-3.45 2.43-0.93 2.56-1.71 0.72-4.17-2.09-2.8-2.01-2.8 1.05-0.02 3.09 2.81 3.11 3.4 0.31 8.8-1.64 3.19-3.78 5.79-4.74 5.79s-1.27 1.25-0.68 2.78 0.54 2.78-0.12 2.78c-0.65 0-1.7-1.37-2.35-3.05zm57-32.16c0-1.52 1.22-4.39 2.71-6.37 3.47-4.58 3.43-1.57-0.05 4.52-1.54 2.69-2.65 3.47-2.66 1.85zm3.58-11.93c0-0.45 0.84-1.33 1.86-1.96 1.01-0.63 1.85-0.26 1.85 0.81 0 1.08-0.84 1.97-1.85 1.97-1.02 0-1.86-0.37-1.86-0.82zm-3.59-20.49c0-2.04 1.31-5.38 2.92-7.41 2.82-3.6 2.87-3.58 1.57 0.92-0.74 2.55-2.05 5.89-2.92 7.41-1.26 2.24-1.57 2.06-1.57-0.92zm-8.35-10.66c1.28-5.35 3.18-14.31 4.24-19.92l1.93-10.19-0.88 11.12c-1.08 13.62-4.35 28.72-6.22 28.72-0.76 0-0.34-4.38 0.93-9.73zm-0.1-66.24c-1.85-2.04-2.52-3.71-1.5-3.71s3.36 1.67 5.2 3.71c1.85 2.04 2.52 3.71 1.51 3.71-1.02 0-3.37-1.67-5.21-3.71zm54.4 245.67c1.13-4.11 1.23-6.49 0.23-5.5-1.81 1.82-4.98 15.33-3.21 13.69 0.55-0.51 1.89-4.2 2.98-8.19zm-110.45 3.33c2.8-0.55 5.09-2.22 5.09-3.72 0-4.77-17.85-21.07-23.07-21.07-5.36 0-6.78 5.47-1.48 5.69 2.77 0.11 2.71 0.36-0.46 1.72-5.22 2.24-6.91 2.18-5.45-0.19 0.89-1.43 0.09-1.41-2.67 0.07-4.75 2.54-5.19 4.17-0.68 2.53 2.82-1.03 2.76-0.63-0.47 3.15l-3.7 4.33 5.56-3.83c5.99-4.14 16.77-7.36 14.99-4.49-0.58 0.95-3.27 2.28-5.97 2.96-6.26 1.57-17.64 10.19-16.31 12.35 1.63 2.63 4.51 1.91 4.51-1.13 0-1.53 1.09-2.78 2.43-2.78 1.33 0 6-1.73 10.37-3.84 4.36-2.1 8.43-3.34 9.02-2.74 0.6 0.6-1.56 2.09-4.81 3.31-3.24 1.23-5.9 3.35-5.9 4.72s-1.46 2.24-3.24 1.94c-2.99-0.51-4.17 0.42-4.17 3.31 0 1.11 16.23-0.3 26.41-2.29zm128.03-1.71c-0.61-1.57-1.5-2.46-1.98-1.98-0.49 0.49-0.34 1.78 0.33 2.86 1.83 2.96 2.9 2.39 1.65-0.88zm56.77-3.27c0.02-0.83-0.81-0.99-1.82-0.36-1.02 0.63-1.86 0.34-1.86-0.66 0-0.99 1.05-2.23 2.32-2.74 1.67-0.68 1.7-0.98 0.11-1.08-3.26-0.22-4.69 3.06-3.27 7.52 0.98 3.1 1.59 3.39 2.87 1.38 0.89-1.41 1.63-3.24 1.65-4.06zm-179.79-13.15c-4.03-13.06-8.85-19.67-14.28-19.58-2.83 0.05-2.77 0.33 0.46 2.19 4.12 2.36 8.19 7.07 8.28 9.59 0.04 0.9-1.67-0.56-3.78-3.24-4.17-5.31-10.03-6.19-15.18-2.29-3 2.28-2.83 2.58 2.17 3.57 6.28 1.26 17.33 10.39 21.87 18.07 1.72 2.91 3.39 5.03 3.71 4.71 0.33-0.32-1.14-6.18-3.25-13.02zm107.55-13.6c0-0.51-1.25 0.11-2.78 1.38-1.52 1.27-2.78 2.72-2.78 3.23s1.26-0.11 2.78-1.38c1.53-1.27 2.78-2.72 2.78-3.23zm77.59-9.43c-4.98-0.8-5.94 0.39-4.34 5.42l1.32 4.15 3.4-4.47c3.32-4.38 3.32-4.5-0.38-5.1zm-72.39-4.99c-0.57-0.57-1.6 0.46-2.3 2.29-1 2.64-0.79 2.85 1.04 1.03 1.27-1.25 1.83-2.75 1.26-3.32zm-123.96-43.03c1.37-4.84 6.47-20.89 11.34-35.67 30.67-92.99 48.31-156.95 44.04-159.59-1.26-0.78-1.63-2.08-0.81-2.89 0.81-0.81 2.31 0.02 3.34 1.86 3.78 6.76 12.81 15.69 18.06 17.87 6.96 2.88 12.73 0.04 14.08-6.93 0.54-2.77 1.88-8.38 2.98-12.46 1.1-4.07 1.98-10.33 1.96-13.89l-0.05-6.49 2.5 5.56c1.37 3.06 5.98 8.9 10.25 12.97l7.75 7.41-6.79-13.62c-3.74-7.49-6.39-14.03-5.89-14.53 0.5-0.51 4.37 6.04 8.6 14.55 9.13 18.37 10.12 19.61 10.44 13.05 0.14-2.75 0.88-9.01 1.65-13.9 0.86-5.48 0.72-8.67-0.38-8.33-2.09 0.65-29.36-24.12-28.02-25.46 0.5-0.5 4.79 2.51 9.53 6.69 6.61 5.81 8.62 6.82 8.62 4.32 0-1.8 0.95-5.89 2.11-9.08 1.87-5.17 1.53-6.68-3.03-13.57-2.82-4.26-5.85-7.75-6.73-7.75-0.89 0-1.61-1-1.61-2.22s2.92 0.62 6.49 4.07c3.56 3.46 6.48 7.38 6.48 8.71 0 1.32 0.83 2.41 1.85 2.41 2.41 0 2.38-0.24-1.07-7.15-1.61-3.22-2.55-6.9-2.08-8.16 0.46-1.26 1.45 0 2.2 2.8 0.75 2.81 2.01 5.1 2.81 5.1 1.77 0 4.28-9.31 2.88-10.71-0.55-0.55-7.74-2.46-15.98-4.25-15.69-3.4-28.66-2.75-42.49 2.16-11.41 4.04-14.73 7.4-21.59 21.83-6.11 12.85-6.86 16.23-8.32 37.29-0.91 13.2-0.9 27.95 0.03 34.28l1.63 11.12 0.44-11.12c0.25-6.11 0.38-16.12 0.29-22.23-0.11-7.61 0.33-9.95 1.4-7.41 1.2 2.83 1.89 1.09 2.95-7.42 0.76-6.11 2.15-12.36 3.09-13.89 1.19-1.94 1.42-1.09 0.76 2.78-0.52 3.05-2.28 17.53-3.92 32.18-1.63 14.64-3.74 28.66-4.69 31.15-2.21 5.83-2.18 8 0.13 8 1.02 0 1.94-2.29 2.04-5.09s0.92-7.18 1.83-9.73c1.36-3.84 1.51-3.44 0.86 2.32-1.03 9.12 0.18 8.83 2.74-0.65 1.12-4.18 2.36-7.28 2.75-6.89 1.06 1.06-3.08 16.92-5.09 19.5-0.96 1.23-1.12 3.23-0.37 4.46 0.93 1.5 0.59 1.73-1.08 0.7-1.78-1.1-2.13-0.67-1.27 1.57 0.77 2.01 0.24 3.08-1.54 3.08-3.32 0-3.5 2.18-0.42 5.27 1.77 1.76 1.79 2.61 0.1 3.66-1.22 0.75-2.56 4.26-2.98 7.8-0.43 3.54-1.24 7.68-1.8 9.21-0.57 1.53-1.87 5.28-2.89 8.34-1.38 4.16-1.92 4.62-2.13 1.85-0.27-3.7-0.27-3.7-1.74 0-0.83 2.1-0.69 4.21 0.33 4.87 2.2 1.42-0.09 9.48-2.3 8.1-0.87-0.53-2.58 3.83-3.79 9.71-2.95 14.25-20.76 68.61-21.63 66-0.38-1.14 1-6.49 3.05-11.91 2.06-5.41 3.44-10.15 3.07-10.52-0.65-0.64-7.75 17.56-11.88 30.41-2.31 7.22-0.49 9.66 2.92 3.92 2.44-4.08 2.48-4.04 1.32 1.33-2.38 10.95-2.48 12.05-1.16 12.05 0.74 0 2.46-3.96 3.83-8.8zm118.27-203.52c-1.09-5.42-9.58-15.08-25.53-29.03-4.38-3.82-7.5-7.4-6.95-7.95 1.07-1.07 8.71 5.43 23.89 20.32 11.02 10.82 12.76 13.76 11.01 18.58-1.13 3.11-1.47 2.83-2.42-1.92zm-117.87 167.85c3.44-8.66 6.67-16.17 7.18-16.68 0.52-0.51 0.97-1.76 1.01-2.78 0.18-4.63 6.66-22.19 8.73-23.68 1.54-1.1 0.96-1.36-1.75-0.77-3.14 0.68-5.23-0.81-9.26-6.62-5.04-7.26-5.24-8.47-6.15-36.39-0.83-25.35-1.17-27.76-2.74-19.63-0.99 5.1-1.55 11.56-1.26 14.36 0.3 2.81-0.34 5.1-1.43 5.1-1.08 0-1.97 0.88-1.97 1.96s1.04 1.35 2.32 0.61c1.27-0.75 0.95 0.25-0.73 2.21-3.84 4.49-6.43 22.09-3.51 23.9 1.43 0.88 1.7-0.21 0.87-3.51-0.66-2.63-0.42-4.79 0.53-4.79s1.42-2.71 1.03-6.02c-0.6-5.09-0.38-5.5 1.39-2.68 1.57 2.5 1.57 7.45 0 19.46-3.92 30.01-5.9 47.59-6.09 54.1-0.28 9.06 2.3 21.19 4.08 19.23 0.82-0.9 4.3-8.72 7.75-17.38zm-16.33-5.1c-4.35-20.28-2.52-46.3 5.73-81.06 3.86-16.31 7.5-30.9 8.08-32.43s1.12-3.34 1.21-4.02 0.78-1.86 1.55-2.62c1.84-1.84 1.54-13.71-0.47-18.38-0.87-2.03-1.65-3.28-1.72-2.78-0.08 0.51-2.66 7.1-5.73 14.64s-5.26 14.03-4.87 14.42c0.68 0.68 2.63-3.61 6.77-14.95 1.07-2.95 2.36-4.95 2.86-4.45s-1.66 7.08-4.8 14.62c-17.93 43.03-22.26 56.11-24.97 75.46-1.53 10.88-3.6 20.06-4.61 20.4-4.01 1.35-1.49 3.13 4.55 3.24 3.51 0.06 5.93-0.64 5.37-1.54-0.56-0.91-2.15-1.21-3.53-0.68-1.99 0.76-2.13-0.04-0.66-3.9 1.02-2.68 1.33-7.23 0.7-10.11-0.67-3.05-0.37-5.23 0.72-5.23 2.36 0 3.35 3.25 5.87 19.45 2.35 15.14 7.71 32.43 10.04 32.43 0.33 0-0.62-5.63-2.09-12.51zm204.28-18.39c0.31-5.94 1.11-20 1.78-31.26l1.22-20.47-13.95-42.53c-7.68-23.39-14.82-45.45-15.88-49.02-3.65-12.26-0.21 13.83 6.36 48.18 6.96 36.41 15.69 92.08 16.08 102.56 0.41 10.69 3.74 5.02 4.39-7.46zm-152.97 5.66c0-2.08-3.48-0.26-4.48 2.34-0.97 2.54-0.7 2.66 1.66 0.7 1.55-1.29 2.82-2.66 2.82-3.04zm142.23-3.24c-0.32-5.5-1.21-7.81-2.76-7.22-1.62 0.61-1.75 1.86-0.46 4.26 1 1.87 1.82 5.12 1.82 7.23s0.42 3.83 0.94 3.83 0.73-3.64 0.46-8.1zm-189.29 1.19c-0.61-0.62-1.05 0.48-0.97 2.43 0.09 2.16 0.53 2.6 1.12 1.12 0.53-1.34 0.47-2.94-0.15-3.55zm1.46-12.09c0.66-2.8 0.45-5.09-0.47-5.09-1.7 0-3.89 6.13-3.93 11.02-0.04 4.08 3.01-0.03 4.4-5.93zm-25.44-16.67c-0.51-1.28-0.93-0.23-0.93 2.31 0 2.55 0.42 3.59 0.93 2.32 0.52-1.27 0.52-3.36 0-4.63zm24.14-6.49c-0.47-1.78-0.85-0.32-0.85 3.25 0 3.56 0.38 5.02 0.85 3.24 0.47-1.79 0.47-4.7 0-6.49zm25.48-5.06c-0.54-7.63-2.31-17.01-3.93-20.85-1.85-4.37-3.36-15.29-4.03-29.21l-1.08-22.24-1.29 13.9c-0.7 7.64-0.84 24.32-0.29 37.06 0.79 18.51 1.72 24.37 4.62 29.18 2 3.31 4.39 6.02 5.31 6.02 0.93 0 1.23-6.14 0.69-13.86zm5.77-20.05c0.09-27-1.32-34.49-8.22-43.63-3.21-4.25-3.28-3.88-2.71 14.82 0.36 11.98 1.73 22.23 3.64 27.31 1.68 4.47 3.16 13.38 3.27 19.8 0.14 7.76 0.83 11.05 2.07 9.83 1.05-1.04 1.89-13.19 1.95-28.13zm-53.55 20.45c-0.5-1.26-0.89 0.22-0.85 3.27 0.04 3.06 0.45 4.09 0.92 2.28 0.47-1.8 0.44-4.3-0.07-5.55zm124.76-1.01c-0.02-2.7-0.28-2.74-1.82-0.35-2.35 3.63-2.35 6.08 0 4.63 1.02-0.63 1.84-2.55 1.82-4.28zm82.79-11.93c-0.52-1.27-0.94-0.23-0.94 2.32 0 2.54 0.42 3.59 0.94 2.31 0.51-1.27 0.51-3.36 0-4.63zm-199.55-10.01c2.14-5.72 3.49-10.79 3.01-11.28-0.94-0.94-6 9.99-8.58 18.55-2.75 9.1 1.54 3.51 5.57-7.27zm59.89-12.8c1.05-6.69 0.92-7-1.55-3.7-1.49 1.97-2.71 5.31-2.72 7.41s-0.44 7.15-0.96 11.22l-0.95 7.42 2.52-7.53c1.39-4.13 3.03-10.8 3.66-14.82zm137.7 14.51c-0.62-0.62-1.06 0.48-0.98 2.43 0.09 2.16 0.53 2.6 1.12 1.12 0.54-1.34 0.47-2.93-0.14-3.55zm-146.17-17.64c-0.41-3.31-0.74-0.6-0.74 6.02s0.33 9.33 0.74 6.02 0.41-8.73 0-12.04zm-50.92-18.99c11.46-30.94 14.28-39.58 19.97-61.15 7.78-29.52 10.26-43.55 7.7-43.55-2.19 0-11.44 21.92-9.53 22.61 1.32 0.47-21.42 73.25-26.23 83.94-1.34 2.97-1.55 2.53-1.05-2.22 0.34-3.34-0.14-5.46-1.12-4.86-0.95 0.59-1.3 4.3-0.77 8.25 0.55 4.05 0.24 6.72-0.71 6.13-0.93-0.57-1.68 4.12-1.68 10.56 0 6.45 0.7 10.82 1.56 9.84 0.86-0.97 6.2-14.27 11.86-29.55zm195.33 22.66c-0.51-1.26-0.89 0.22-0.86 3.28 0.04 3.05 0.46 4.08 0.93 2.28 0.47-1.81 0.44-4.31-0.07-5.56zm-187.73-9.23c1.59-3.82 2.46-6.95 1.95-6.95-0.98 0-6.29 11.94-6.29 14.15 0 2.24 1.37-0.03 4.34-7.2zm185.89 0c-0.52-1.27-0.94-0.23-0.94 2.32 0 2.54 0.42 3.59 0.94 2.31 0.51-1.27 0.51-3.36 0-4.63zm-135.12-38.25c-0.25-21.29-1.07-38.34-1.84-37.88-0.76 0.46-1.39-0.83-1.39-2.87 0-2.03 0.84-4.22 1.85-4.85 1.02-0.63 1.86-2.84 1.86-4.92 0-5.73 14.8-32.96 19.64-36.14 9.5-6.22 29.56-11.24 49.95-12.49 21.43-1.32 26.76-0.58 26.76 3.72 0 3.35-1.43 3.27-5-0.3-1.59-1.59-4.1-2.42-5.58-1.86-1.48 0.57-6.17 1.14-10.42 1.27l-7.72 0.24 10.19 2.08c13.24 2.7 15.07 3.99 21.32 15.05 5.87 10.4 12.34 18.02 19.94 23.48l5.12 3.68-3.58-9.87c-1.96-5.43-4.87-14.51-6.46-20.17-6.39-22.84-34.71-72.56-38.92-68.34-0.56 0.55 2.7 5.25 7.24 10.43 8.47 9.68 12.85 18.1 11 21.11-1.72 2.78-4.76 1.96-11.32-3.03-19.02-14.51-41.99-13.44-60.51 2.82-3.76 3.3-6.83 5.15-6.83 4.11 0-2.61 10.2-10.93 18.77-15.3 15.52-7.92 34.27-6.3 47.34 4.09 12.75 10.13 13.64 4.46 1.52-9.73-4.58-5.37-8.4-10.23-8.48-10.8-0.07-0.57-0.42-2.5-0.76-4.28-0.99-5.19 1.34-3.87 11.48 6.48 6.41 6.56 12.38 15.62 18.31 27.8 4.84 9.93 9.07 17.79 9.4 17.46s-2.61-8.88-6.54-18.99c-3.92-10.12-7.66-19.9-8.31-21.75-0.64-1.85-2.07-2.81-3.16-2.13-1.1 0.68-2.42-0.38-2.93-2.36-1.25-4.76-20.28-17.16-26.4-17.2-2.66-0.01-6.09-0.9-7.62-1.98-2.02-1.42-0.28-1.62 6.4-0.73 9.64 1.29 22.7 8.88 27.8 16.16 4.6 6.57 3.28 2.01-1.7-5.89-2.51-3.98-7.52-9.49-11.13-12.24-8.04-6.13-11.39-5.67-34.82 4.73-9.23 4.09-17.18 7.04-17.67 6.54-0.5-0.5 6.09-4.04 14.64-7.87 8.56-3.83 24.31-11.44 35.01-16.9 26.26-13.42 40.76-17.92 40.76-12.65 0 2.3-11.03 6.74-16.89 6.8-1.41 0.01-6.73 2.07-11.83 4.57l-9.26 4.56 7.41-1.01c12.69-1.71 32.22-6.98 31.32-8.44-0.48-0.77 1.51-2.63 4.42-4.14 2.91-1.5 6.32-3.97 7.58-5.49 1.93-2.32 1.66-2.59-1.71-1.71-2.39 0.63-4.66 0.01-5.64-1.53-2.39-3.79-2.1-5.05 2.02-8.57 3.23-2.77 5.13-7.91 2.93-7.91-0.43 0-1.92-0.44-3.31-0.97-1.64-0.63-2.65 0.49-2.85 3.17-0.28 3.76-6.81 10.63-10.2 10.73-0.77 0.02-6.87 2.63-13.56 5.79-14.43 6.82-26.75 9.12-26.75 5.01 0-4.3 7.71-10.41 21.5-17.03 7.03-3.37 15.49-8.42 18.8-11.22 3.31-2.79 6.02-4.24 6.02-3.22 0 3.18-11.49 11.7-23.54 17.46-6.36 3.03-12.51 6.67-13.69 8.09-2.83 3.41-1.95 3.26 7.42-1.27 4.36-2.11 8.41-3.36 8.98-2.78 0.58 0.57-1.63 1.98-4.9 3.12-3.28 1.14-5.49 2.54-4.93 3.11 0.57 0.56 5.92-1.36 11.9-4.28 11.71-5.72 22.09-18.46 19.83-24.35-0.64-1.68 0.22-4.54 1.96-6.45 2.95-3.27 2.86-3.44-1.81-3.44-2.71 0-4.92 0.81-4.92 1.79 0 0.99 1.21 1.33 2.69 0.77 1.48-0.57-0.05 1.87-3.4 5.42-6.24 6.61-20.39 14.94-23.59 13.88-2.33-0.78 7.47-12.6 10.44-12.6 1.26 0 3.32-1.25 4.59-2.78s3.14-2.78 4.16-2.78c2.95 0-2.44 5.54-8.36 8.6-2.97 1.54-4.99 3.21-4.48 3.72s3.3-0.3 6.2-1.8c6.38-3.3 13.29-10.52 10.07-10.52-1.23 0-1.73-0.83-1.1-1.85 4.02-6.51-16.77 6.99-27.21 17.67-5.42 5.54-10.66 10.08-11.65 10.1-0.98 0.01 3.19-5.12 9.27-11.41l11.06-11.43-9.81 6.86c-5.4 3.77-10.52 6.42-11.37 5.89-1.76-1.08-6.17 3.46-4.74 4.89 1.36 1.35-20.11 23.75-22.76 23.75-3.83 0-2.57-3.7 3.82-11.16 6.75-7.89 28.57-25.89 31.37-25.89 0.99 0 4.01-1.52 6.72-3.37 2.7-1.86 8.38-4.37 12.61-5.58 8.96-2.58 16.32-7.96 15.25-11.17-0.5-1.49-2.92-0.62-7.21 2.59-3.56 2.65-7.93 5.63-9.71 6.61-6.14 3.38-3.22 0.1 5.83-6.55 8.27-6.07 12.58-11.53 10.64-13.47-0.42-0.41-5.38 3.88-11.04 9.53-5.66 5.66-11.22 10.29-12.37 10.29-1.14 0-1.57-0.83-0.95-1.83 0.66-1.07-0.13-1.35-1.9-0.67-2.11 0.81-2.38 1.57-0.88 2.49 1.31 0.81-4.12 5.5-13.98 12.06-8.87 5.9-21.97 16.61-29.13 23.79-14.34 14.4-35.56 45.04-45.09 65.14-3.39 7.14-6.16 11.72-6.17 10.2 0-1.53 3.69-9.83 8.21-18.44s7.93-15.95 7.58-16.31c-1.09-1.08-16.89 29.32-22.26 42.84-2.78 7-5.32 17.11-5.65 22.46-0.32 5.36-1.45 11.35-2.5 13.32s-1.29 4.59-0.53 5.82c0.79 1.28 4.1-8.38 7.63-22.22 3.43-13.46 6.54-23.58 6.9-22.49 0.37 1.09-2.24 13.55-5.79 27.68-3.55 14.14-8.55 39.16-11.11 55.6-5.03 32.32-4.59 39.59 2.79 46.26 2.14 1.94 5.86 7.39 8.25 12.12 5.01 9.86 9.19 14.56 12.97 14.56 2.21 0 2.56-6.26 2.18-38.71zm-4.94 19.41c-0.08-1.95 0.36-3.05 0.98-2.43 0.61 0.61 0.68 2.21 0.14 3.55-0.59 1.48-1.03 1.04-1.12-1.12zm-12.89-8.14c-0.12-2.35-0.97-3.82-1.88-3.25-3.23 2-3.47-3.99-0.81-20.36 1.48-9.12 2.43-20.54 2.12-25.38-0.32-4.84 0.09-8.81 0.9-8.8 0.82 0 0.72-1.37-0.21-3.03-3.33-5.95 14.67-73.84 24.8-93.55 3.76-7.31 18.81-20.06 36.45-30.88 15.98-9.79 25.98-13.38 28.03-10.06 1.33 2.16-1.35 4.38-9.02 7.48-5.11 2.06-5.27 2.02-1.96-0.57 8.31-6.49-2.52-2.33-16.66 6.39-22.53 13.9-33.38 24.7-38.72 38.55-2.47 6.39-3.7 11.13-2.75 10.54 2.8-1.73 2 1.37-2.8 10.83-2.49 4.89-5.32 13.23-6.3 18.53-3.68 19.87-4.91 30.2-4.32 36.38l0.61 6.37 3.5-7.83c2.22-4.97 3.1-9.82 2.4-13.31-0.65-3.25-0.31-5.49 0.82-5.49 1.05 0 1.44 1.8 0.86 3.99-0.71 2.74-0.37 3.58 1.1 2.68 1.18-0.73 2.17-2.32 2.19-3.54 0.02-1.21 1.69-4.29 3.71-6.84 2.06-2.59 0.35 2.55-3.89 11.71-7.07 15.26-7.69 17.94-9.26 40.12-1.42 19.99-1.23 24.87 1.18 30.65 1.58 3.77 2.46 7.28 1.95 7.79-1.24 1.24-6.64-11.84-6.95-16.84-0.14-2.17-1.29 1.9-2.56 9.03s-2.41 11.05-2.53 8.69zm6.55-50.88c-0.51-1.25-0.89 0.22-0.85 3.28s0.45 4.08 0.92 2.28 0.44-4.31-0.07-5.56zm8.92-40.36c-0.74-1.2-0.58-2.71 0.35-3.36s5.66-6.81 10.52-13.69 9.75-12.5 10.88-12.5c1.12 0 0.54 1.66-1.31 3.7-4.54 5.02-1.97 4.68 5.22-0.71 14.9-11.15 30.76-15.53 40.89-11.3 9.2 3.84 10.71 3.29 2.99-1.1-5.02-2.86-5.44-3.44-1.85-2.56 2.55 0.62 7.97 2.65 12.05 4.51 4.07 1.86 10.64 4.75 14.58 6.43 3.95 1.67 6.73 3.49 6.19 4.04-0.55 0.54-2.95 0.02-5.33-1.16-2.9-1.44-2.34-0.53 1.7 2.77 6.73 5.49 17.13 19.75 17.13 23.48 0 1.33-2.97-2-6.61-7.41-7.91-11.73-19.35-19.44-36.68-24.72-12.16-3.71-13.19-3.74-23.49-0.88-5.92 1.64-14.49 5.51-19.04 8.58-4.56 3.08-9.17 5.59-10.24 5.59-2.13 0-11.37 11.35-11.47 14.07-0.03 0.93-1.2 3.19-2.6 5.03-1.8 2.38-2.93 2.73-3.88 1.19zm0.24-10.41c1.71-7.1 2.6-7.77 2.6-1.96 0 2.66-0.87 5.37-1.93 6.02-1.26 0.79-1.49-0.61-0.67-4.06zm14.64-1.54c9.73-8.77 24.85-17.56 30.22-17.59 2.43-0.01 3.78 0.8 3.12 1.87-0.64 1.04-1.92 1.41-2.85 0.84-0.92-0.57-3.99 0.26-6.82 1.83l-5.14 2.87 5.56-0.94 5.56-0.95-5.56 2.61c-3.36 1.58-5.99 1.91-6.66 0.84-0.6-0.97-4.68 1.23-9.07 4.89-10.81 9.04-17.62 12.07-8.36 3.73zm-11.9-9.04c-0.19-4.57 10.22-25.15 15.11-29.87l3.84-3.71-3.84 6.49c-4.14 6.99-12.31 23.27-13.95 27.79-0.76 2.08-1.05 1.91-1.16-0.7zm3.56-22.76c0-2.24 11.58-19.31 12.49-18.41 0.83 0.83-10.54 19.64-11.87 19.64-0.34 0-0.62-0.56-0.62-1.23zm29.68-20.12c10.54-10.66 17.49-13.83 30.39-13.85 9.58-0.01 7.32 1.97-3.38 2.97-11.72 1.1-15.52 2.95-25.87 12.65-12.57 11.78-13.34 10.59-1.14-1.77zm-1.88 8.49c0-2.29 19.17-8.06 23.63-7.1 1.78 0.38-1.35 1.8-6.96 3.16-5.6 1.35-11.65 3.21-13.43 4.13-2.05 1.06-3.24 0.99-3.24-0.19zm35.2-64.86c0-1.08 0.84-1.96 1.86-1.96s1.85 0.37 1.85 0.82c0 0.44-0.83 1.33-1.85 1.96s-1.86 0.26-1.86-0.82zm-139.15 222.5c0.1-1.39-1.36-0.61-3.27 1.74-2.56 3.17-2.92 4.84-1.39 6.51 1.58 1.71 2.34 1.31 3.27-1.74 0.66-2.19 1.29-5.12 1.39-6.51zm-5.31 0.59c1.52-1.82 1.73-3.5 0.59-4.64-2.39-2.38-9.07 2.52-7.32 5.37 1.8 2.9 3.9 2.68 6.73-0.73zm1.46-21.69c5.34-7.77 17.67-34.7 16.44-35.92-0.35-0.35-3.02 4.38-5.95 10.5s-6.8 12.47-8.6 14.1c-2.9 2.62-10.83 16.04-10.83 18.33 0 3.09 4.33-0.31 8.94-7.01zm13.17 1.74c-0.13-3.91-0.19-3.92-1.73-0.35-2.19 5.1-2.19 6.91 0 5.56 1.02-0.63 1.8-2.97 1.73-5.21zm155.2-8.25c-0.47-1.77-0.83 0.12-0.81 4.19 0.02 4.08 0.4 5.53 0.84 3.23 0.45-2.31 0.43-5.65-0.03-7.42zm-141.13-30.09c7.09-21.77 7.14-21.95 4.91-18.53-1 1.53-3.89 9.04-6.42 16.68-2.54 7.64-5.24 15.57-6.02 17.6-0.95 2.52-0.79 3.11 0.5 1.86 1.04-1.02 4.2-8.94 7.03-17.61zm-21.27 0.93c0.92-2.04 3.3-7.97 5.3-13.19l3.63-9.48-6.58-23.87c-3.62-13.13-7.29-26.37-8.16-29.43-2.44-8.64 0.13 29.72 2.89 43.11 1.32 6.38 1.76 11.99 1 12.47-1.55 0.95-4.66-13.77-6.85-32.42l-1.42-12.04-1.21 13.89c-0.79 8.97-0.28 19.49 1.41 29.65 3.31 19.75 6.46 31.42 7.51 27.8 0.45-1.53 1.56-4.45 2.48-6.49zm39.95 1.43c-0.62-0.62-1.06 0.48-0.98 2.43 0.09 2.16 0.53 2.6 1.12 1.12 0.54-1.34 0.47-2.94-0.14-3.55zm3.89-17.56c1.26-9.12 1.11-13.81-0.57-17.6-2.13-4.81-2.3-4.32-2.46 6.86-0.09 6.63-0.69 15.38-1.32 19.46-0.77 5.01-0.54 6.81 0.74 5.56 1.03-1.02 2.66-7.45 3.61-14.28zm117.26 10.11c-0.07-3.74-2.44-9.73-3.85-9.73-0.88 0-0.8 2.09 0.17 4.63 0.97 2.55 1.03 4.64 0.15 4.64-2.2 0-4.11-8.31-2.74-11.89 0.62-1.6 1.87-2.46 2.78-1.89 2.1 1.3 2.1-1.19-0.01-4.51-1.18-1.87-2.14-0.89-3.62 3.7-2.12 6.59-2.03 10.3 0.36 14.12 1.55 2.5 6.8 3.22 6.76 0.93zm2.99-5.52c-0.61-0.62-1.05 0.48-0.97 2.43 0.09 2.16 0.53 2.6 1.12 1.12 0.54-1.34 0.47-2.94-0.15-3.55zm-175.98-2.82c-0.61-2.29-1.15-5.42-1.2-6.95-0.06-2.17-0.5-2.06-1.99 0.5-2.15 3.69-0.61 10.62 2.37 10.62 1.11 0 1.46-1.79 0.82-4.17zm203.59 0.46c-0.63-1.02-1.52-1.85-1.97-1.85s-0.81 0.83-0.81 1.85 0.88 1.86 1.96 1.86 1.45-0.84 0.82-1.86zm-211.44-13.58c-0.72-6.13 0.04-17.08 2.02-28.84 1.75-10.43 2.81-19.34 2.35-19.8-0.45-0.46-2.41 4.81-4.35 11.7-4.76 16.93-4.67 46.82 0.14 46.82 0.55 0 0.48-4.45-0.16-9.88zm36.14-12.26c2.41-6.06 3.9-12.53 3.31-14.36-5.31-16.54-17.68-46.95-18.53-45.57-0.6 0.96 0.56 9.18 2.57 18.28 5.62 25.4 5.74 26.54 1.74 15.72-2.06-5.54-4.65-15.34-5.77-21.77s-2.79-11.69-3.7-11.69c-2.55 0-1.98 11.01 1.14 22.29 1.54 5.58 4.97 18.68 7.63 29.13 2.65 10.44 5.36 18.99 6.03 18.99 0.66 0 3.17-4.96 5.58-11.02zm-31.83-7.02c-0.43-2.82-0.79-0.95-0.8 4.14-0.02 5.1 0.33 7.4 0.77 5.12s0.45-6.44 0.03-9.26zm44.78-3.01c1.24-1.5 5.05-13.01 8.46-25.58 8.45-31.14 15.58-54.95 17.86-59.68 1.54-3.2 1.18-3.07-1.89 0.69-2.09 2.55-5 5.91-6.48 7.46-3.56 3.74-6.92 12.79-5.57 14.97 0.58 0.95 0.23 4.43-0.78 7.72-1.02 3.29-4.53 14.73-7.8 25.42-3.28 10.7-7.49 23.01-9.36 27.37-3.26 7.61-3.26 7.86-0.05 6.14 1.84-0.98 4.36-3.01 5.61-4.51zm13.25-62.58c-0.04-0.65 1.15-3.99 2.64-7.42 1.49-3.42 2.71-4.98 2.71-3.45 0.01 2.67-5.22 13.28-5.35 10.87zm-56.23 48.89c-0.47-1.79-0.85-0.33-0.85 3.24s0.38 5.03 0.85 3.24c0.46-1.78 0.46-4.7 0-6.48zm35.78-9.45c-2.44-4.74-5.94-10.83-7.78-13.54-4.65-6.85-4.06-9.03 0.9-3.32 4.09 4.73 14.17 11.86 15.11 10.7 1.38-1.69 6.57-19.25 6.45-21.78-0.13-2.5-0.29-2.52-1.17-0.14-0.56 1.53-2.14 5.54-3.5 8.9l-2.48 6.11-7.94-4.42c-4.36-2.43-9.39-4.42-11.17-4.41-3.74 0-3.8 0.18-1.62 4.5 0.9 1.77 2.65 6.44 3.9 10.37 1.25 3.92 3.98 11 6.07 15.73 3.65 8.24 3.88 8.41 5.73 4.25 1.55-3.47 1.05-6.04-2.5-12.95zm-37.78-11.86c2.39-6.88 3.61-12.51 2.72-12.51-1.79 0-8.95 22.11-10.34 31.9l-0.87 6.09 2.07-6.49c1.14-3.57 4.03-12.11 6.42-18.99zm-2.99-10.19c0-1.4-2.46-2.32-6.18-2.32h-6.19l1.65 11.58c2.51 17.61 3.41 18.25 7.22 5.1 1.92-6.63 3.49-13.09 3.5-14.36zm6.68 20.42c-0.61-0.62-1.05 0.48-0.97 2.43 0.09 2.16 0.53 2.6 1.12 1.12 0.54-1.34 0.47-2.94-0.15-3.55zm41.47-0.97c0.02-0.76-1.64-1.39-3.69-1.39-3.23 0-3.42 0.48-1.45 3.64 1.63 2.62 2.66 3 3.69 1.38 0.78-1.23 1.44-2.86 1.45-3.63zm8.2-37.11l1.17-5.86-6.06 5.99c-3.33 3.3-7.72 7.25-9.76 8.76-3.5 2.61-3.42 2.66 1.32 0.97 5.56-1.98 7.69-0.42 5.07 3.72-0.94 1.48-1.69 4.35-1.67 6.39 0.03 4.74 8.32-11.92 9.93-19.97zm18.15 16.45c0.48 0.92 0.57 0.5 0.2-0.93-1-3.84 3.15-15.21 5.11-14 0.93 0.57 1.21-0.19 0.63-1.69-0.57-1.5 0.57-4.35 2.55-6.33 1.98-1.97 4.92-6 6.55-8.94 3.26-5.92 12.38-26.27 12.38-27.64 0-1.91-3.49-0.7-6.83 2.37-1.95 1.78-2.46 2.51-1.13 1.62 1.53-1.03 2.4-0.8 2.4 0.64 0 1.24-1.61 2.68-3.58 3.19-3.71 0.97-6.91 6.13-3.81 6.13 0.97 0 0.01 3.13-2.14 6.95-3.7 6.59-18.34 42.64-18.2 44.83 0.04 0.56 1.18-0.97 2.53-3.42 1.36-2.45 2.86-3.7 3.34-2.78zm-30.02 0.74c0-1.02-1.88-1.84-4.17-1.82-3.37 0.02-3.64 0.37-1.39 1.82 3.59 2.33 5.56 2.33 5.56 0zm-11.12-8.79c0-0.51-1.25 0.11-2.78 1.38s-2.78 2.73-2.78 3.23c0 0.51 1.25-0.11 2.78-1.38 1.53-1.26 2.78-2.72 2.78-3.23zm-40.42 1.97c-1.34-0.54-2.93-0.47-3.55 0.15-0.62 0.61 0.48 1.05 2.43 0.97 2.16-0.09 2.6-0.53 1.12-1.12zm32.08-3.45c8.55-2.43 10.28-3.46 7.48-4.48-3.39-1.23-3.3-1.54 1.45-4.65 2.8-1.83 4.66-3.76 4.14-4.27-0.51-0.52-2-0.09-3.3 0.95-2.84 2.28-23.74 8.45-24.85 7.33-0.43-0.43 1.53-1.68 4.37-2.78 2.83-1.1 10.99-4.26 18.12-7.02 7.14-2.76 21.96-10.73 32.94-17.71 20.82-13.22 24.33-14.93 19.29-9.36-3 3.31-14.29 26.8-14.19 29.52 0.02 0.79 3.25-4.6 7.17-11.98s8.13-14.64 9.37-16.14c1.24-1.49 1.71-3.59 1.04-4.67-1.11-1.81 17.45-11.92 19.01-10.35 0.37 0.37-0.19 2.21-1.24 4.09-5.65 10.1-11.31 23.1-9.59 22.03 1.09-0.67 1.98-0.34 1.98 0.73s-1.67 2.98-3.7 4.26c-2.04 1.27-3.7 3.57-3.69 5.11 0.01 1.61 2.17 0.04 5.09-3.69 13.65-17.46 36.93-41.34 49.86-51.14 7.92-6.02 18-14.48 22.39-18.81 4.38-4.33 9.46-7.87 11.28-7.87 1.81 0 4.88-1.16 6.81-2.57 7.66-5.6-29.48 3.62-43.24 10.74-8.4 4.34-25.09 20.37-29.18 28.01-2.98 5.59-4.4 6.58-8.57 5.97-2.98-0.43-4.54 0.02-3.87 1.11 0.71 1.15-0.19 1.28-2.41 0.36-7.84-3.28-11.7-2.81-29.36 3.52-10.13 3.62-20.37 6.59-22.77 6.59s-6.36 1.32-8.82 2.92c-2.45 1.61-6.26 2.65-8.45 2.32-3.44-0.52-2.78-1.46 4.64-6.67 6.92-4.86 13.11-6.97 31.21-10.65 12.42-2.53 25.61-4.59 29.3-4.59 9.49 0 18.31-2 18.31-4.14 0-1-1.46-1.26-3.25-0.57-4.97 1.92-31.36 5.14-45.88 5.6-10.89 0.35-15.85 1.72-30.58 8.46-9.66 4.42-21.83 10.8-27.03 14.17s-10.31 6.12-11.36 6.12c-1.04 0-2.82 1.12-3.95 2.48-1.71 2.06 0.82 2.05 15.06-0.04 20.97-3.08 34.62-6.94 63.44-17.96 13.36-5.1 23.68-8.04 25.86-7.36 2.91 0.92 1.59 2.16-6.82 6.41-5.74 2.91-10.96 6.13-11.6 7.17-1.41 2.27-4.66 2.52-4.66 0.35 0-0.85 2.08-2.65 4.63-4.02 2.55-1.36 4.28-2.83 3.85-3.26s-6.56 2.66-13.63 6.85c-10.62 6.31-15.36 7.92-27.47 9.33-8.05 0.93-18.8 2.55-23.89 3.6-5.1 1.05-12.19 2.28-15.75 2.74-3.57 0.46 3.1 0.46 14.83 0 11.73-0.45 25.69-1.98 31.04-3.39 5.34-1.41 9.71-1.96 9.71-1.23 0 3.52-30.26 7.82-58.17 8.27-8.6 0.14-16.31 0.93-17.14 1.76s5.36 1.02 13.74 0.44c9.19-0.65 15.25-0.37 15.25 0.7 0 2.74-2.21 3.53-13.08 4.68-7.46 0.79-9.12 0.58-6.38-0.81 2.98-1.5 2.51-1.66-2.39-0.79-3.61 0.65-7.2 0.17-8.8-1.16-2.25-1.86-2.7-1.44-2.7 2.53 0 2.63-1 6.96-2.21 9.63-1.81 3.95-1.72 5.16 0.46 6.53 3.62 2.27 28.19 0.66 40.2-2.64 5.36-1.48 9.32-2.01 8.81-1.18s-5.19 2.52-10.4 3.77c-6.5 1.56-8.68 2.77-6.95 3.85 1.38 0.87 3.76 1.25 5.29 0.84s7.79-2.16 13.9-3.89zm-46.24-8.13c-1.72-2.77 2.35-4.28 18.29-6.75 8.24-1.28 17.9-2.83 21.47-3.46 5.27-0.92 5.7-0.79 2.33 0.7-2.29 1.02-11.46 3.12-20.38 4.67-8.93 1.56-16.51 3.68-16.85 4.7-0.78 2.34-3.46 2.42-4.86 0.14zm119.43-23.5c0-4.29 22.44-35.87 28.93-40.73 3.96-2.96 8.31-6.42 9.65-7.7 1.35-1.27 3.47-2.31 4.72-2.31s5.53-3.34 9.51-7.42c4.29-4.39 8.97-7.41 11.5-7.41 6.15 0 5.22 4.23-1.77 8.08l-6.02 3.31 4.43-3.89c2.44-2.14 3.85-4.47 3.14-5.18s-4.65 2.23-8.74 6.53c-4.1 4.31-8.16 7.83-9.03 7.83-3.01 0-31 28.75-37.89 38.91-8.02 11.84-8.43 12.32-8.43 9.98zm27.8-34.99c2.39-2.55 3.93-4.64 3.42-4.64s-2.88 2.09-5.28 4.64c-2.39 2.54-3.93 4.63-3.42 4.63s2.88-2.09 5.28-4.63zm69.85 63.86c-0.41-4.1-0.04-7.91 0.83-8.44 0.87-0.54 1.47-3.22 1.33-5.97-0.22-4.4-0.35-4.5-1.06-0.79-0.44 2.31-1.58 3.72-2.53 3.14-0.94-0.59-1.72 1.9-1.72 5.53s-0.63 6.59-1.4 6.59c-0.78 0-3.36-5.44-5.75-12.1-4.93-13.75-7.97-17.54-14.04-17.54-4.08 0-4 0.27 1.9 6.52 3.38 3.59 8.67 11.72 11.75 18.07s5.62 10.5 5.64 9.22c0.07-3.32 3.76-2.87 3.76 0.47 0 1.52 0.45 2.77 1.02 2.77 0.56 0 0.68-3.36 0.27-7.47zm-110.37-8.69c-1.47-2.64-1.74-2.41-1.63 1.42 0.07 2.5-0.48 6.22-1.22 8.26s0 1.4 1.63-1.42c2.07-3.56 2.44-6.09 1.22-8.26zm-40.09 3.42c3.06-1.91 8.9-6.57 12.97-10.35l7.42-6.89-7.98 6.19c-4.39 3.41-11.06 8.05-14.83 10.33-3.76 2.28-6.01 4.15-4.99 4.16 1.02 0.02 4.36-1.53 7.41-3.44zm144.69-13.36c-0.85-6.38-0.63-9.04 0.68-8.23 1.07 0.66 1.94-0.1 1.94-1.69s0.84-2.89 1.86-2.89 1.85 1.62 1.85 3.6 0.82 4.1 1.82 4.72c1.14 0.71 1.39-1.16 0.66-4.98-1.5-7.91-1.67-8.05-7.42-6-7.82 2.79-9.01 6.47-5.27 16.26 1.82 4.75 3.71 8.64 4.21 8.64 0.51 0 0.35-4.24-0.33-9.43zm-84.53-7.85c0.03-0.85-2.02 0.94-4.57 3.97s-4.63 6.22-4.62 7.09c0.01 1.98 9.1-8.96 9.19-11.06zm-44.41 3.1c0-1.34-7.14 2.98-8.46 5.12-0.69 1.11 0.93 0.6 3.6-1.15 2.68-1.76 4.86-3.54 4.86-3.97zm-59.18-14.23c2.43-1.7 3.61-3.15 2.62-3.22-8.03-0.57-25.54 0.06-28.6 1.03-2.79 0.89-3.78 0.38-3.78-1.96 0-2.73 1.57-3.04 11.58-2.29 6.37 0.48 13.67 0.31 16.22-0.38 2.54-0.68 5.49-0.59 6.54 0.21 1.06 0.8 3.07 0.74 4.47-0.12 1.83-1.13 0.49-2.15-4.69-3.59-3.99-1.11-8.44-2.02-9.88-2.03-3.89-0.01-9.42-5.63-9.42-9.56 0-1.88-0.88-3.42-1.96-3.42s-1.5 0.75-0.93 1.66c0.56 0.91-0.32 2.17-1.95 2.8-2.7 1.03-2.7 1.54-0.08 5.54 1.58 2.42 2.37 4.91 1.74 5.54-1.86 1.86-6.08 1.29-6.08-0.82 0-1.08 0.83-1.45 1.85-0.82s1.86 0.31 1.86-0.71c0-3.9-3.23-3.55-8 0.88-6.06 5.62-6.18 7.48-0.81 12.03 5.2 4.41 22.56 3.95 29.3-0.77zm-24.85 0.18c-1.17-0.75 2.8-1.38 8.83-1.39 6.03-0.02 10.43 0.5 9.78 1.16-1.68 1.68-16.05 1.86-18.61 0.23zm236.89-6.96c0.65-1.05-0.1-1.36-1.74-0.73-3.21 1.24-3.8 2.56-1.14 2.56 0.96 0 2.26-0.82 2.88-1.83zm-158.42-4.77l6.49-2.62-8.34 1.11c-4.58 0.62-9.59 1.83-11.12 2.71-4.73 2.7 5.7 1.74 12.97-1.2zm89.94-8.58c8.6-9.01 7.36-9.32-2.55-0.65-3.91 3.41-8.74 10.28-7.24 10.28 0.33 0 4.73-4.34 9.79-9.63zm-116.12 5.21c3.09-1.72 3.64-2.71 1.85-3.37-1.39-0.52-4.14 0.6-6.1 2.49-4.12 3.98-2.1 4.4 4.25 0.88zm-11.04-3.13c4.36-2.11 9.05-3.4 10.42-2.88 1.36 0.52 2.77 0.06 3.14-1.03 0.36-1.09 5.08-2.41 10.49-2.93l9.83-0.94-5.74-3.64c-3.16-2-5.74-4.42-5.74-5.37 0-0.96 3.11 0.38 6.92 2.96 7.16 4.87 14.87 5.98 20.44 2.94 5.43-2.96 24.23-9.29 44.55-14.99 10.64-2.99 24.45-7.81 30.7-10.71 6.24-2.91 19.54-8.13 29.54-11.6 17.25-6 18.15-6.56 17.24-10.96-0.52-2.56-1.87-12.98-3-23.17-1.12-10.19-3.24-24.37-4.71-31.5-5.6-27.19-6.69-34.61-5.53-37.63 1.04-2.7 5.06-91.78 5.08-112.46 0-4.08-0.79-10.75-1.76-14.83-1.6-6.74-1.86-6.99-2.9-2.78-0.96 3.94-2.98 24.27-3.31 33.36-0.05 1.53 0.66 8.15 1.58 14.71 3.65 25.92-5.89 42.69-27.61 48.5-10.8 2.89-23.43 0.85-30.36-4.89l-5.53-4.57 8.34 3.66c24.09 10.57 49.22-2.29 52.94-27.08 2.42-16.16-4.44-34.95-15.19-41.59-3.54-2.19-6.06-4.37-5.6-4.84 1.41-1.4 12 4.74 13.84 8.02 2.47 4.43 5.39 1.67 6.75-6.38 1.41-8.33-0.91-15.29-7.4-22.19-5.88-6.25-12.71-16.99-11.55-18.15 0.48-0.48 3 2.28 5.6 6.12s6.62 9.26 8.93 12.04l4.19 5.06 3.09-6.91c1.7-3.8 3.57-11.91 4.15-18.03 0.58-6.11 1.59-12.46 2.25-14.09 0.95-2.38-1.42-3.82-11.68-7.12-10.44-3.36-15.1-3.9-24.69-2.87-9.77 1.04-15.05 0.39-30.27-3.76-10.14-2.76-19.3-5.35-20.34-5.75-2.05-0.79-2.29 28.25-0.24 30.3 0.64 0.64 6.59-1.07 13.22-3.8 19.39-7.96 18.29-5.68-1.59 3.28-10.02 4.52-20.23 9.54-22.7 11.15-2.46 1.62-4.48 2.09-4.48 1.04 0-1.04 0.82-1.89 1.82-1.89 4.41 0 9.3-14.72 9.3-27.99v-13.32l-4.35 4.7c-2.39 2.58-6.91 5.25-10.04 5.94-11.51 2.53-32.06-6.94-40.96-18.86l-3.83-5.13-0.02 5.55c-0.04 9.16 4.98 39.17 7.26 43.45 1.99 3.7 1.87 3.81-1.68 1.59-2.87-1.79-3.82-4.31-3.82-10.17 0-4.28-0.83-8.29-1.85-8.92s-4.98 1.41-8.8 4.53c-11.41 9.3-31.75 23.98-37.13 26.79-18.32 9.57-25.291 37.22-17.81 70.59 1.6 7.13 4.47 20.37 6.37 29.4 1.9 9.04 3.92 16.9 4.49 17.47s2.61-0.66 4.54-2.73c4.1-4.4 24.65-13 35.06-14.66 4.31-0.69 8.9-0.26 11.39 1.08 3.39 1.81 3.98 1.76 3.18-0.27-0.54-1.37-3.65-10.29-6.91-19.81-3.26-9.53-8.18-19.95-10.94-23.17-5.35-6.24-10.54-17.35-8.88-19.01 0.56-0.55 1.61 0.93 2.34 3.3s4.23 8.29 7.78 13.16l6.44 8.86 5.05-7.93c5.31-8.33 11.24-14.26 11.24-11.22 0 0.99-1.76 3.38-3.9 5.32-5.14 4.65-9.07 12.46-9.07 18.02 0 2.46 2.87 13.13 6.37 23.71 5.48 16.51 7.12 19.56 11.59 21.48 13.51 5.79 37.66-0.19 46.6-11.55 2.23-2.83 4.5-4.69 5.06-4.13 2.51 2.5-11.23 14.44-20.7 17.98-12.19 4.56-17.37 4.72-30.24 0.9-9.18-2.73-10.01-2.7-13.52 0.46-3.36 3.02-3.63 4.82-2.59 17.25 1.05 12.56 1.75 14.47 7.4 20.12 4.72 4.72 8.3 6.47 14.72 7.2 4.67 0.52 9.91 0.41 11.64-0.26 2.89-1.11 2.86-1.44-0.38-4.08-3.44-2.81-3.44-2.85 0.18-1.37 2.04 0.83 10.38 1.29 18.53 1.02 16.34-0.54 21.31-3.56 21.31-12.94 0-7.21 2.28-3.36 2.74 4.62 0.22 3.86 0.04 5.96-0.41 4.66-0.54-1.55-2.06-0.76-4.47 2.3-2.11 2.68-3.07 5.64-2.26 6.99 0.93 1.54 0.32 1.45-1.81-0.28-4.18-3.39-19.56-2.85-32.16 1.12-12.48 3.94-21.84 1.45-30.13-7.99-3.22-3.66-6.03-6.36-6.26-6-5.4 8.69-19 38.92-21.56 47.91-1.89 6.62-4.75 15.58-6.35 19.91-3.62 9.72-8.27 35.66-9.74 54.24-1.21 15.2-0.65 16.36 9.57 19.95 8.12 2.86 10.49 2.66 19.29-1.59zm15.84-20.37c-2-3.23 0.28-3.91 2.82-0.85 1.46 1.76 1.6 2.82 0.37 2.82-1.08 0-2.52-0.88-3.19-1.97zm-6.02-7.35c-3.32-5.31-2.73-7.01 0.73-2.09 1.63 2.34 2.64 4.57 2.24 4.96-0.4 0.4-1.73-0.89-2.97-2.87zm31.11-3.39c-4.65-1.43 19.64-3.63 52.91-4.78 23.65-0.82 30.64-5.48 38.8-25.88 3.29-8.21 4.6-9.54 11.39-11.5 4.22-1.22 9.87-3.66 12.56-5.42 2.7-1.76 5.32-2.78 5.85-2.26 1.38 1.38-11.24 8.47-18.24 10.25-3.69 0.94-6.7 3.23-7.84 5.97-11.27 27.01-15.17 29.58-48 31.65-12.33 0.78-27 1.86-32.61 2.41-5.6 0.54-12.27 0.35-14.82-0.44zm-13.89-7.35c-4.57-4.57-15.05-24.41-12.9-24.41 0.44 0 3.27 4.91 6.3 10.91 3.03 5.99 7.83 12.64 10.68 14.76 2.85 2.13 4.27 3.89 3.17 3.92s-4.36-2.3-7.25-5.18zm91.75-39.35c1-3.5 1.75-6.64 1.67-6.98-0.09-0.34 0.42-1.18 1.14-1.86 1.87-1.78-1.07 11.41-3.01 13.47-0.89 0.95-0.8-1.14 0.2-4.63zm-0.96-17.22c-2.41-5.08-2.63-7.26-0.98-9.88 1.32-2.09 1.84-2.31 1.38-0.57-0.4 1.52 0.43 5.58 1.86 9 3.5 8.41 1.62 9.63-2.26 1.45zm-46 0.9c0.68-2.58-0.43-3.84-4.34-4.96l-5.25-1.49 6.48-1.1c3.57-0.61 8.37-0.79 10.66-0.39 4.63 0.8 5.75 4 1.4 4-1.52 0-3.8 1.67-5.07 3.7-2.92 4.67-5.07 4.8-3.88 0.24zm-9.59-11.35c-0.66-1.07 1.07-1.87 4.06-1.89 6.57-0.03 8.99-1.63 10.68-7.06 0.74-2.37 1.8-3.85 2.35-3.3 2.07 2.07-3.65 11.93-7.51 12.97-5.82 1.56-8.28 1.37-9.58-0.72zm54.81-6.34c-0.08-1.95 0.36-3.04 0.97-2.43 0.62 0.62 0.68 2.22 0.15 3.55-0.59 1.48-1.03 1.04-1.12-1.12zm4.48-17.75c-0.63-1.02-7.14-1.87-14.47-1.88-7.32-0.02-14.57-0.82-16.1-1.79-1.83-1.16 1.63-1.44 10.19-0.82 18.45 1.34 25.02 2.54 25.02 4.57 0 2.33-3.18 2.27-4.64-0.08zm13.19-2.35c11.9-6.95 19.7-10.79 20.43-10.05 1.1 1.1-19 12.4-22.01 12.37-1.29-0.02-0.58-1.06 1.58-2.32zm-4.91-10.5c1.05-1.97 1.91-8.64 1.91-14.83 0-8.91-0.79-12.03-3.86-15.1-5.08-5.08-3.45-6.49 2.21-1.9 3.73 3.02 4.39 5.11 4.15 13.17-0.39 12.92-2.27 22.24-4.5 22.24-1.18 0-1.15-1.27 0.09-3.58zm-45.06-26.93c-0.57-1.5-0.24-3.21 0.73-3.82 0.98-0.6 1.77 0.62 1.77 2.72 0 4.48-1.03 4.93-2.5 1.1zm-1.69-8.86c-0.63-1.64 0.06-3.97 1.52-5.19 2.9-2.4 3.21-1.01 1.01 4.59-1.2 3.08-1.55 3.16-2.53 0.6zm5.12-23.63c-1.64-3.16-2.06-5.56-0.97-5.56 1.04 0 1.9 1.19 1.9 2.65s1.31 3.96 2.91 5.56 2.04 2.91 0.97 2.91c-1.06 0-3.23-2.5-4.81-5.56zm-69.02 0.98c-1.28-1.47-2.27-4.17-2.2-6 0.09-2.63 0.46-2.46 1.79 0.85 1.87 4.64 5.38 5.36 9.02 1.86 1.94-1.88 2.28-1.61 1.74 1.39-0.8 4.46-7.13 5.62-10.35 1.9zm1.89-5.8c0.62-0.62 2.21-0.69 3.55-0.15 1.48 0.59 1.04 1.03-1.12 1.12-1.95 0.08-3.05-0.36-2.43-0.97zm56.94-1.66c0-1.53 0.69-2.78 1.54-2.78s1.55 1.25 1.55 2.78-0.7 2.78-1.55 2.78-1.54-1.25-1.54-2.78zm6.74-3.71c-0.59-1.53-0.26-2.78 0.73-2.78s1.79 1.25 1.79 2.78-0.32 2.78-0.72 2.78-1.21-1.25-1.8-2.78zm50.7-10.07c0-1.08 2.18-1.97 4.85-1.97 4.22 0 4.73-0.63 3.93-4.81-0.85-4.42-0.68-4.57 2.07-1.82 2.28 2.29 2.51 3.75 0.98 6.2-2.23 3.56-11.83 5.51-11.83 2.4zm-95.32-67.81c-2.71-2.06-9.53-2.75-27.79-2.84-14.18-0.07-22.66-0.74-20.49-1.61 2.04-0.82 11.62-1.52 21.31-1.56 13.15-0.05 19.59 0.8 25.47 3.36 4.34 1.88 7.88 3.89 7.88 4.46 0 1.77-2.63 1.02-6.38-1.81zm6.29-8.46c-2.13-4.18-3.51-7.96-3.06-8.41 0.44-0.44 2.28 2.35 4.08 6.21 4.44 9.51 4.21 9.43 9.31 3.23l4.52-5.48-2 6.02c-2.85 8.56-8.01 7.93-12.85-1.57zm-10.88-16.36c-1.67-1.07 1.89-1.56 9.89-1.37 10.93 0.27 12.93-0.22 15.89-3.86 4.1-5.05 5.52-5.31 4.34-0.79-1.61 6.17-23.1 10.46-30.12 6.02zm-32.68 316.89c0.57-0.92-0.63-1.24-2.67-0.71-4.33 1.13-4.88 2.39-1.04 2.39 1.47 0 3.14-0.76 3.71-1.68zm49.21-0.17c3.39-2.19 0.46-2.19-4.63 0-2.45 1.05-2.76 1.62-0.93 1.69 1.53 0.06 4.03-0.7 5.56-1.69zm-26.73-5.79c1.57-2.53-1.82-1.91-5.81 1.06-3.47 2.6-3.45 2.65 0.6 1.63 2.31-0.58 4.65-1.79 5.21-2.69zm61.36-8.32c7.28-0.63 12.35-2.07 13.89-3.95 2.15-2.62 1.89-2.82-2.2-1.68-10.65 2.98-14.82 3.44-14.82 1.65 0-1.03 5.39-2.89 11.98-4.14 6.59-1.24 13.04-3.53 14.32-5.08 2.06-2.47 1.54-2.65-4.1-1.42-8.78 1.91-51.85 15.72-51.85 16.62 0 0.68 6.04 0.32 32.78-2zm88.48-39.46c0.57-0.92-0.63-1.24-2.67-0.71-4.32 1.14-4.87 2.39-1.04 2.39 1.47 0 3.14-0.75 3.71-1.68zm-181.36-114.24c9.16-2.51 19.36-9.33 19.31-12.92-0.02-0.98-0.84-0.54-1.83 0.99-1.19 1.85-1.8 2.01-1.82 0.46-0.05-3.62-3.73-2.71-3.76 0.93-0.03 2.77-0.29 2.84-1.83 0.46-1.14-1.75-1.81-1.95-1.82-0.52-0.02 1.34-1.28 1.78-3.12 1.08-2.07-0.8-2.64-0.48-1.74 0.98 0.76 1.23 0.29 2.18-1.08 2.2-1.79 0.02-1.7 0.55 0.35 2.03 2.47 1.77 2.47 1.9 0 1.15-9.6-2.93-11.88-3.34-9.57-1.74 1.99 1.39 1.87 1.95-0.62 2.9-4.87 1.87-7.75 1.37-4.63-0.81 2.09-1.47 1.63-1.6-1.86-0.52-2.55 0.78-7.34 1.25-10.65 1.04-4.16-0.26-6.02 0.45-6.02 2.28 0 4.88 12.86 4.88 30.69 0.01zm15.63-19.34c0-1.02-1.88-1.8-4.17-1.72-3.98 0.12-4 0.2-0.46 1.72 2.04 0.87 3.91 1.65 4.17 1.72 0.25 0.07 0.46-0.7 0.46-1.72zm156.77-94c-0.62-0.62-1.06 0.48-0.98 2.43 0.09 2.16 0.53 2.6 1.12 1.12 0.54-1.34 0.47-2.93-0.14-3.55zm-1.75-15.79c-0.51-1.27-0.93-0.23-0.93 2.32 0 2.54 0.42 3.59 0.93 2.31 0.52-1.27 0.52-3.36 0-4.63zm-88.31-10.54c0-3.11-3.29-3.88-4.38-1.03-0.65 1.68 0 2.77 1.66 2.77 1.49 0 2.72-0.79 2.72-1.74zm-10.61-31.18c6-6.27 10.3-17.97 11.67-31.75 0.56-5.71 1.43-12.35 1.92-14.77 0.83-4.05 0.67-4.16-2.1-1.39-3.74 3.74-5.74 3.8-7.11 0.23-0.73-1.89 0.1-2.78 2.58-2.78 2 0 3.65-0.84 3.65-1.86 0-2.71-4.77-2.26-7.22 0.69-1.57 1.89-1.58 5.02-0.06 12.12 2.47 11.49 0.51 14.99-8.39 14.99-7.14 0-8.31-0.94-7.08-5.67 0.59-2.25 2.43-3.52 4.9-3.38 3.13 0.17 3.28 0.39 0.71 1.06-4.48 1.17-4.06 3.64 0.83 4.91 7.12 1.87 8.65-1.35 5.81-12.21-4.19-16.05 0.6-25.215 10.43-19.96 3.05 1.64 3.77 1.47 3.77-0.88 0-6.147-5.54-15.839-10.03-17.546-2.55-0.972-6.34-3.468-8.42-5.547s-3.78-2.856-3.78-1.726c0 3.598-17.24 18.115-27.8 23.409-5.6 2.81-10.48 5.77-10.83 6.57s-2.85 4.09-5.56 7.3c-2.7 3.22-4.66 6.31-4.34 6.88 0.31 0.57-1.36 1.65-3.71 2.39-3.76 1.2-3.67 1.28 0.82 0.72 6.16-0.77 6.63 1.25 0.92 4-3.71 1.8-3.78 2.03-0.61 2.14 1.96 0.07 5.09-1.25 6.95-2.94 1.87-1.69 3.39-2.21 3.39-1.15 0 1.05-1.2 2.91-2.67 4.12-1.47 1.22-2.16 3.54-1.54 5.16 0.89 2.31 0.24 2.71-2.99 1.86-3.33-0.87-3.72-0.59-2.03 1.45 1.15 1.39 3.07 2.17 4.27 1.74s3.5 1.91 5.11 5.2c3.16 6.47 18.65 19.27 24.8 20.49 11.85 2.36 18.87 1.21 23.74-3.87zm-10.59-9.88c0.57-0.92 3.02-1.67 5.45-1.67 2.42 0 5.01-0.97 5.74-2.15 0.96-1.56-1-1.82-7.31-0.96-5.02 0.69-8.63 0.45-8.63-0.57 0-1.93 6.4-5.82 8.73-5.32 0.81 0.18 2.98-0.34 4.83-1.14 5.07-2.21 7.12 1.09 4.69 7.54-1.74 4.62-3.19 5.62-8.32 5.76-3.42 0.1-5.75-0.57-5.18-1.49zm-15.86-33.15c-1.53-0.88-4.44-2.14-6.48-2.78-3.54-1.13-3.51-1.31 0.82-4.58l4.51-3.4-4.99 0.95c-2.74 0.53-4.98 0.5-4.98-0.06 0-0.55 4.52-1.95 10.05-3.09 10.57-2.2 16.44-0.53 18.68 5.29 0.82 2.14 0.49 2.19-1.82 0.27-2.4-1.99-2.82-1.65-2.82 2.3 0 5.88-6.93 8.6-12.97 5.1zm7.14-3.52c1.58-1 1.82-2.03 0.63-2.76-2.54-1.57-8.01 0.66-6.73 2.75 1.28 2.05 2.87 2.06 6.1 0.01zm-40.5 4.49c0-0.47-1.87-1.86-4.17-3.08-3.78-2.02-3.93-1.94-1.62 0.86 2.37 2.87 5.79 4.18 5.79 2.22zm-13.84-8.05c-0.57-0.57-2.07 0-3.33 1.27-1.81 1.83-1.6 2.04 1.04 1.04 1.83-0.7 2.86-1.74 2.29-2.31zm10.14-0.31c-1.53-0.97-2.78-2.76-2.78-3.99s-1.25-2.57-2.78-2.99c-2.47-0.67-2.47-0.52 0 1.4 2.29 1.77 2.01 1.98-1.57 1.19-4.61-1.02-9.55 0.18-9.55 2.32 0 0.7 2.82 0.95 6.27 0.55 3.44-0.4 6.83 0.18 7.52 1.3s2.25 2.02 3.46 2c1.32-0.02 1.09-0.74-0.57-1.78zm-18.53-2.82c0-1.53-0.81-2.78-1.8-2.78-0.98 0-1.31 1.25-0.72 2.78 0.58 1.53 1.39 2.78 1.79 2.78s0.73-1.25 0.73-2.78zm33.35-4.16c0-0.51-1.25 0.11-2.78 1.38s-2.78 2.72-2.78 3.23 1.25-0.11 2.78-1.38 2.78-2.72 2.78-3.23zm-24.09-3.06c2.55 0.04 6.3 0.71 8.34 1.5 2.95 1.14 3.14 1.02 0.93-0.57-2.29-1.64-2-2 1.66-2.02 3.56-0.03 2.67-0.98-4.42-4.75-4.89-2.595-10.22-4.359-11.86-3.921-2.22 0.593-2.03 0.864 0.72 1.054 2.04 0.141 5.61 1.72 7.93 3.508 4.19 3.219 4.13 3.249-5.61 3.099-5.41-0.08-10.86-0.778-12.1-1.548-2.92-1.802-2.94 1.108-0.03 4.018 1.3 1.3 3.8 1.67 6.02 0.89 2.08-0.73 5.88-1.3 8.42-1.26zm28.26-2.35c-1.27-0.513-3.36-0.513-4.63 0-1.28 0.52-0.23 0.94 2.31 0.94 2.55 0 3.59-0.42 2.32-0.94zm-34.74-2.477c0.64-1.034-0.75-1.841-3.14-1.825-3.44 0.023-3.73 0.38-1.49 1.825 3.44 2.228 3.25 2.228 4.63 0zm34.63-1.266c-1.34-0.535-2.94-0.47-3.56 0.146-0.61 0.616 0.48 1.054 2.44 0.973 2.15-0.089 2.59-0.528 1.12-1.119zm-10.4-2.681c0.79-1.27 0.29-1.756-1.28-1.235-1.41 0.472-6.18-0.741-10.6-2.694-9.86-4.364-11.87-3.226-3.63 2.054 6.72 4.3 13.51 5.121 15.51 1.875zm17.46-1.269c0-2.918-10.98-6.167-14.3-4.233-2.74 1.599-2.21 1.938 3.18 2.009 5.07 0.066 5.88 0.509 3.71 2.03-2.15 1.501-1.77 1.661 1.62 0.7 3.27-0.928 4.03-0.648 2.96 1.091-0.94 1.52-0.7 1.875 0.69 1.016 1.18-0.727 2.14-1.903 2.14-2.613zm5.91 2.097c-1.34-0.535-2.94-0.47-3.56 0.146-0.61 0.616 0.48 1.054 2.44 0.973 2.15-0.089 2.59-0.528 1.12-1.119zm-50.03-5.559c-1.34-0.535-2.94-0.469-3.56 0.146-0.61 0.616 0.48 1.054 2.44 0.973 2.16-0.088 2.59-0.528 1.12-1.119zm22.86-2.361c-1.71-2.762 9.57-7.7 16.21-7.102 3.29 0.296 5.98-0.296 5.98-1.315 0-1.02-4.14-1.862-9.19-1.872-6.86-0.014-10.45 1.045-14.17 4.169-2.73 2.303-6.1 4.287-7.49 4.407-1.38 0.121-0.01 0.856 3.05 1.634s5.82 1.513 6.13 1.634c0.32 0.12 0.08-0.58-0.52-1.555zm78.7 1.135c0-0.352-1.88-2.228-4.17-4.17l-4.17-3.529 3.53 4.169c3.32 3.918 4.81 5.012 4.81 3.53zm-53.46-4.457c3.45-3.445 6.14-2.804 3.19 0.761-2.32 2.813-2.18 2.857 1.58 0.51 3.41-2.122 3.65-2.832 1.38-4.101-1.68-0.944-4.24-0.48-6.65 1.205-2.93 2.052-4.96 2.262-8.09 0.837-3.04-1.386-5.46-1.223-8.94 0.602-4.55 2.382-4.3 2.502 5.22 2.502 5.52 0 11.03-1.036 12.31-2.316zm-46.6 0.662c0-0.401-1.29-1.225-2.87-1.832-1.65-0.633-2.4-0.322-1.75 0.728 1.09 1.761 4.62 2.604 4.62 1.104zm18.73-6.061c2.66-2.486 6.56-4.65 8.68-4.809 2.11-0.159 3.68-1.114 3.5-2.121-0.52-2.82 12.15-6.451 24.58-7.051 7.04-0.339 11.2-1.349 11.21-2.719 0-1.2 1.47-2.484 3.25-2.855 2.64-0.548 2.46-0.888-0.93-1.816-2.31-0.633-3.71-0.393-3.13 0.538 0.57 0.924-2.02 1.681-5.75 1.681-7.97 0-27.36 4.765-34.12 8.382-2.59 1.389-8.46 5.945-13.05 10.124-6.97 6.353-7.58 7.401-3.7 6.383 2.54-0.67 6.8-3.251 9.46-5.737zm-14.56 1.856c-1.27-0.514-3.36-0.514-4.63 0-1.28 0.514-0.23 0.934 2.31 0.934 2.55 0 3.59-0.42 2.32-0.934zm58.83-0.232c0-0.802-1.68-1.585-3.74-1.74-2.06-0.156-3.27 0.501-2.67 1.458 1.3 2.106 6.41 2.331 6.41 0.282zm31.84-4.501c-1.33-1.33-2.19-1.439-2.19-0.278 0 2.473 2.19 4.664 3.43 3.428 0.52-0.527-0.03-1.944-1.24-3.15zm-87.62-0.291c1.16-1.399 1.6-3.869 0.98-5.488-1.22-3.181 7.24-12.349 11.4-12.349 2.8 0 8.79-5.582 7.43-6.938-1.4-1.403-21.56 12.435-22.8 15.648-0.58 1.53-0.02 3.427 1.26 4.216 3.08 1.907-0.87 4.497-4.65 3.046-1.48-0.568-2.69-0.294-2.69 0.608 0 1.49 2.84 3.285 5.79 3.656 0.64 0.08 2.12-0.999 3.28-2.399zm19.71-10.986c3.1-1.555 8.72-3.409 12.51-4.119 3.79-0.711 6.89-2.033 6.89-2.939 0-2.601-7.98-1.805-11.94 1.192-1.98 1.496-5.89 2.72-8.69 2.72s-5.65 0.891-6.32 1.98c-0.67 1.088-2.43 1.515-3.91 0.947-1.52-0.583-2.19-0.225-1.54 0.824 0.63 1.021-0.2 4.543-1.84 7.828l-2.98 5.973 6.1-5.789c3.36-3.184 8.63-7.061 11.72-8.617zm29.7 10.811c3.44-2.602 3.36-2.724-1.61-2.78-2.97-0.033-4.72 0.728-4.08 1.773 0.65 1.05-0.09 1.361-1.74 0.728-1.58-0.607-2.87-0.18-2.87 0.948 0 2.928 6.06 2.534 10.3-0.669zm28.61 1.877c0-1.43-5.52-2.58-6.3-1.314-0.47 0.763 0.75 1.509 2.72 1.657s3.58-0.006 3.58-0.343zm-36.81-5.504c5.12-2.17 5.65-2.868 2.96-3.917-3.33-1.295-13.58 1.999-15.41 4.946-1.53 2.49 5.52 1.907 12.45-1.029zm17.22-0.855c0.56-0.903-0.43-2.78-2.21-4.169-2.87-2.254-2.96-2.196-0.82 0.536 1.95 2.503 1.95 3.238 0 4.023-1.65 0.659-1.71 1.007-0.19 1.107 1.21 0.08 2.66-0.593 3.22-1.497zm27.93-0.21c-0.63-1.019-2.61-1.853-4.39-1.853-1.79 0-4.86-1.224-6.84-2.72-4.07-3.078-11.94-3.766-11.94-1.044 0 0.987 1.26 1.311 2.8 0.72 2.08-0.796 2.51-0.181 1.68 2.375-0.88 2.719-0.72 2.886 0.77 0.788 1.39-1.963 2.53-2.131 4.34-0.64 2.1 1.728 4.94 2.581 13.22 3.975 0.83 0.139 0.99-0.582 0.36-1.601zm-5.06-8.917c0.4-1.21-0.22-2.2-1.38-2.2-1.17 0-1.52 0.975-0.78 2.167 0.91 1.471 0.32 1.776-1.84 0.948-1.98-0.758-2.73-0.49-1.99 0.709 1.45 2.35 4.98 1.392 5.99-1.624zm-55.9-5.197c4.52-2.142 9.29-2.716 16.71-2.011 12.04 1.142 11.33-2.077-0.82-3.706-9.35-1.255-15.08 0.118-20.66 4.957-5.22 4.535-3.69 4.778 4.77 0.76zm49.64-3.298c1.13 0.556 0.43-0.302-1.55-1.906-1.97-1.605-5.31-2.834-7.41-2.733-3.29 0.16-3.17 0.39 0.82 1.669 4.17 1.336 3.96 1.502-2.16 1.668-8.88 0.241-13.95-1.568-10.5-3.751 1.68-1.064 0.76-1.576-2.88-1.595l-5.34-0.028 4.42 3.482c5.64 4.436 10.45 5.451 17.19 3.631 2.94-0.796 6.28-0.992 7.41-0.437z"/>
  </g>
  <metadata>
    <rdf:RDF>
      <cc:Work>
        <dc:format>image/svg+xml</dc:format>
        <dc:type rdf:resource="http://purl.org/dc/dcmitype/StillImage"/>
        <cc:license rdf:resource="http://creativecommons.org/licenses/publicdomain/"/>
        <dc:publisher>
          <cc:Agent rdf:about="http://openclipart.org/">
            <dc:title>Openclipart</dc:title>
          </cc:Agent>
        </dc:publisher>
        <dc:title>Aphrodite</dc:title>
        <dc:date>2009-03-11T11:32:06</dc:date>
        <dc:description>Statue of Venus de Milo (Louvre, Paris). Source: http://commons.wikimedia.org/wiki/File:Aphrodite2.png\n\nThis image comes from Meyers Lexikon 1888, it is therefore Public Domain.\n\nUploaded to Wikimedia Commons by user Olliminatore. Converted to SVG by Warszawianka.</dc:description>
        <dc:source>https://openclipart.org/detail/22154/aphrodite-by-warszawianka-22154</dc:source>
        <dc:creator>
          <cc:Agent>
            <dc:title>warszawianka</dc:title>
          </cc:Agent>
        </dc:creator>
        <dc:subject>
          <rdf:Bag>
            <rdf:li>ancient</rdf:li>
            <rdf:li>aphrodite</rdf:li>
            <rdf:li>deity</rdf:li>
            <rdf:li>drawing</rdf:li>
            <rdf:li>externalsource</rdf:li>
            <rdf:li>goddess</rdf:li>
            <rdf:li>greek</rdf:li>
            <rdf:li>milo</rdf:li>
            <rdf:li>mythology</rdf:li>
            <rdf:li>sculpture</rdf:li>
            <rdf:li>statue</rdf:li>
            <rdf:li>venus</rdf:li>
            <rdf:li>wikimedia commons</rdf:li>
          </rdf:Bag>
        </dc:subject>
      </cc:Work>
      <cc:License rdf:about="http://creativecommons.org/licenses/publicdomain/">
        <cc:permits rdf:resource="http://creativecommons.org/ns#Reproduction"/>
        <cc:permits rdf:resource="http://creativecommons.org/ns#Distribution"/>
        <cc:permits rdf:resource="http://creativecommons.org/ns#DerivativeWorks"/>
      </cc:License>
    </rdf:RDF>
  </metadata>
</svg>